<?xml version="1.0" encoding="utf-8"?>
<!-- Generator: Adobe Illustrator 17.1.0, SVG Export Plug-In . SVG Version: 6.00 Build 0)  -->
<!DOCTYPE svg PUBLIC "-//W3C//DTD SVG 1.1//EN" "http://www.w3.org/Graphics/SVG/1.1/DTD/svg11.dtd">
<svg version="1.1" id="圖層_1" xmlns="http://www.w3.org/2000/svg" xmlns:xlink="http://www.w3.org/1999/xlink" x="0px" y="0px"
	 viewBox="0 0 112 33" enable-background="new 0 0 112 33" xml:space="preserve">
<g>
	<path d="M12.2,3.3c0.7,0,1.1,0.4,1.1,1.1c0,0.4-0.2,0.7-0.6,0.9c-1.3,0.5-2.6,0.9-4.1,1.2v3.9h6.8c-0.2-2-0.2-4.1-0.2-6.4
		c0-0.8,0.3-1.2,1-1.2c0.7,0,1.1,0.4,1.1,1.2c0,2.4,0.1,4.5,0.2,6.4h8.3c0.7,0,1,0.3,1,1c0,0.7-0.3,1-1,1h-8.1c0.1,1,0.3,2,0.5,2.8
		c0.3,1.7,0.7,3.2,1.3,4.5c0.2-0.3,0.3-0.6,0.5-0.9c0.6-1.2,1.2-2.7,1.7-4.6c0.1-0.4,0.4-0.6,0.8-0.6c0.3,0,0.6,0.1,0.8,0.2
		c0.2,0.2,0.3,0.4,0.3,0.7c0,0.2,0,0.5-0.1,0.8c-0.5,2-1.1,3.6-1.8,4.8c-0.4,0.7-0.8,1.4-1.2,2c0.5,1.1,1.2,2.1,1.9,3
		c0.5,0.6,0.8,1,1.1,1c0.2,0,0.3-0.3,0.5-0.8c0.2-1.2,0.3-2.4,0.3-3.5c0.1-0.7,0.4-1,1-1c0.6,0.2,1,0.6,1,1.3c0,1.7-0.2,3.3-0.7,4.9
		c-0.4,1.1-1,1.7-1.8,1.7c-0.9,0-1.8-0.5-2.8-1.6c-0.7-0.9-1.4-1.9-2-3c-0.6,0.6-1.3,1.2-2.1,1.8c-1.1,0.8-2.4,1.5-4.1,2.2
		c-0.4,0.2-0.6,0.2-0.8,0.2c-0.3,0-0.5-0.1-0.8-0.3c-0.2-0.2-0.3-0.4-0.3-0.7c0-0.5,0.2-0.8,0.6-1c1.6-0.7,2.9-1.4,3.9-2.1
		c0.9-0.7,1.8-1.4,2.5-2.2c0.1-0.1,0.1-0.1,0.1-0.2c-0.9-2.2-1.6-4.9-2.1-8c-0.1-0.4-0.2-0.9-0.2-1.4h-7v5.2
		c1.8-0.4,3.3-0.9,4.6-1.4c0.2-0.1,0.3-0.1,0.5-0.1c0.6,0,0.9,0.3,1,0.9c0,0.5-0.2,0.8-0.7,1.1c-1.4,0.6-3.2,1.2-5.4,1.7V26
		c0,1.7-1,2.5-3.1,2.5c-0.9,0-2-0.3-3.5-0.8c-0.6-0.2-0.9-0.5-0.9-1.1c0-0.7,0.3-1.1,1-1.1c0.1,0,0.3,0,0.5,0.1
		c1.4,0.5,2.4,0.7,2.8,0.7c0.7,0,1-0.3,1-0.9v-5.1c-1.3,0.3-2.8,0.5-4.5,0.8c-0.6,0-1-0.4-1-1.1c0-0.7,0.3-1.1,0.9-1.2
		c1.9-0.2,3.4-0.5,4.6-0.7v-5.7H1.9c-0.7,0-1-0.3-1-1c0-0.7,0.3-1,1-1h4.6V6.9C5.1,7.2,3.8,7.3,2.6,7.4C1.8,7.4,1.4,7,1.4,6.2
		c0-0.6,0.4-0.9,1-0.9C3.8,5.2,5.2,5,6.6,4.8C8.4,4.5,10.3,4,12.2,3.3z M20,3.5c0.2,0,0.4,0.1,0.7,0.2c1.5,1.1,2.9,2.2,4.1,3.3
		c0.3,0.3,0.5,0.6,0.5,0.9c0,0.7-0.3,1-1,1c-0.3,0-0.6-0.1-0.8-0.2c-1.1-1.1-2.4-2.3-3.9-3.4c-0.5-0.3-0.7-0.5-0.7-0.8
		C18.9,3.8,19.3,3.5,20,3.5z"/>
	<path d="M53.6,3.9c0.6,0,0.9,0.3,0.9,0.9c0,0.7-0.3,1-0.9,1h-7.1v2.1h5c1.2,0,1.8,0.5,1.8,1.6v3.9c0,1.2-0.6,1.7-1.8,1.7h-9.2
		c-0.1,0.2-0.1,0.4-0.3,0.6c-0.3,0.6-0.7,1.1-1.1,1.6h13.3c0.7,0,1,0.3,1,1c0,0.7-0.3,1-1,1h-4.7c0,0.3-0.1,0.6-0.4,1.1
		c-0.8,1.2-1.8,2.3-2.8,3.2c-0.3,0.3-0.6,0.5-1,0.7c2.5,0.6,5.3,1.2,8.6,2c0.6,0.2,0.9,0.5,0.9,1c-0.1,0.8-0.4,1.3-1.1,1.3
		c-0.1,0-0.4,0-0.7-0.1c-3.4-1-6.8-1.9-10.1-2.8c-0.7,0.3-1.5,0.6-2.3,0.9c-1.6,0.6-3.5,1-5.6,1.3c-1.8,0.3-3.4,0.5-4.7,0.5
		c-0.7,0-1.1-0.4-1.1-1.1c0-0.5,0.3-0.8,0.9-0.9c3.6-0.2,6.4-0.6,8.6-1.2c0.3-0.1,0.6-0.2,0.9-0.3c-1.6-0.4-3.2-0.8-4.8-1.1
		C33.6,23.5,33,23,33,22.2c0-0.5,0.3-0.9,1-1.4c0.8-0.5,1.6-1,2.2-1.5h-6.4c-0.7,0-1-0.3-1-1c0-0.7,0.3-1,1-1h8.6
		c0.7-0.7,1.3-1.4,1.8-2.3h-7.6c-1.1,0-1.7-0.6-1.7-1.7V9.4c0-1.1,0.6-1.6,1.7-1.6h5V5.7h-7.2c-0.6,0-0.9-0.3-0.9-1
		c0-0.6,0.3-0.9,0.9-0.9H53.6z M37.7,13.2V9.6h-4.2c-0.4,0-0.6,0.2-0.6,0.5v2.3c0,0.5,0.2,0.7,0.6,0.7H37.7z M42.5,23.7
		c0.6-0.3,1.1-0.6,1.6-1c1.1-0.8,2.2-2,3.2-3.4H39c-0.8,0.8-1.8,1.6-2.9,2.3c-0.2,0.1-0.3,0.3-0.3,0.4s0.1,0.2,0.4,0.3
		C37.6,22.6,39.6,23,42.5,23.7z M44.4,7.8V5.7h-4.6v2.1H44.4z M44.4,13.2V9.6h-4.6v3.5H44.4z M50.7,13.2c0.4,0,0.6-0.2,0.6-0.7v-2.3
		c0-0.3-0.2-0.5-0.6-0.5h-4.2v3.5H50.7z"/>
	<path d="M64.3,8.2c0.7,0,1,0.3,1,1s-0.3,1-1,1h-1.6v5.3c0.4-0.3,0.8-0.6,1.3-0.8l0.3-0.1c0.7,0,1,0.4,1,1.1c0,0.2-0.1,0.4-0.4,0.7
		c-0.6,0.5-1.3,1-2.2,1.5v8.3c0,1.6-0.9,2.4-2.8,2.4c-0.4,0-1-0.1-1.7-0.4c-0.5-0.2-0.8-0.5-0.8-1c0-0.6,0.3-1,0.8-1
		c0.1,0,0.1,0,0.3,0c0.7,0.2,1.2,0.3,1.4,0.3c0.5,0,0.8-0.3,0.8-0.9v-6.9c-0.7,0.3-1.3,0.6-1.9,0.8c-0.2,0.1-0.3,0.1-0.5,0.1
		c-0.7,0-1-0.3-1-1c0-0.5,0.3-0.9,0.8-1.1c1-0.3,1.9-0.7,2.6-1v-6.3h-2c-0.7,0-1-0.3-1-1s0.3-1,1-1h2v-4c0-0.7,0.3-1,1-1
		c0.7,0,1,0.3,1,1v4H64.3z M67.9,12.4h12.2c1.2,0,1.8,0.6,1.8,1.7v11.4c0,1.9-1,2.9-3,2.9c-1.1,0-2.5-0.2-4.1-0.6
		c-0.4-0.2-0.6-0.5-0.6-0.9c0-0.7,0.2-1.1,0.7-1.1c0.3,0,0.6,0,0.9,0.1c1.2,0.3,2.2,0.4,2.8,0.4c0.9,0,1.3-0.4,1.3-1.1V23H67.9v4.5
		c0,0.7-0.3,1-1,1c-0.6,0-1-0.3-1-1V14.1C66,13,66.6,12.4,67.9,12.4z M68,4.1h11.8c1.1,0,1.7,0.5,1.7,1.4v3.6c0,1-0.6,1.5-1.7,1.5
		H68c-1,0-1.5-0.5-1.5-1.5V5.5C66.5,4.6,67,4.1,68,4.1z M67.9,16.8H80v-1.7c0-0.6-0.3-0.8-0.8-0.8H68.7c-0.5,0-0.8,0.3-0.8,0.8V16.8
		z M67.9,21.3H80v-2.8H67.9V21.3z M78.9,9c0.5,0,0.7-0.3,0.7-0.9V6.5c0-0.5-0.2-0.8-0.7-0.8H69c-0.4,0-0.6,0.3-0.6,0.8v1.6
		C68.4,8.7,68.6,9,69,9H78.9z"/>
	<path d="M88.2,19.9c0.3,0,0.5,0.1,0.7,0.2c0.2,0.1,0.3,0.3,0.3,0.4s0,0.3-0.1,0.5c-0.5,1.8-1,3.4-1.6,4.7c-0.2,0.3-0.5,0.4-0.8,0.4
		c-0.7,0-1.1-0.3-1.1-0.8c0-0.3,0-0.4,0.1-0.5c0.6-1.2,1.2-2.8,1.9-4.6C87.6,20.1,87.8,19.9,88.2,19.9z M91.3,18.6h-4.7
		c-0.6,0-0.9-0.3-0.9-1c0-0.6,0.3-0.9,0.9-0.9H98c0.6,0,0.9,0.3,0.9,0.9c0,0.7-0.3,1-0.9,1h-4.7v8c0,1.3-0.8,1.9-2.3,1.9
		c-0.7,0-1.5-0.2-2.4-0.5c-0.5-0.1-0.8-0.4-0.8-0.8c0-0.6,0.3-1,0.9-1c1.1,0.3,1.7,0.4,1.9,0.4c0.5,0,0.7-0.1,0.7-0.4V18.6z
		 M97.8,5.2c0.6,0,0.9,0.3,0.9,0.9c0,0.6-0.3,0.8-0.9,0.8h-4.4v2.4h3.1c0.6,0,0.8,0.3,0.8,0.9c0,0.6-0.3,0.9-0.8,0.9h-8.7
		c-0.6,0-0.8-0.3-0.8-0.9c0-0.6,0.3-0.9,0.8-0.9h3.5V6.9h-4.5c-0.6,0-0.8-0.3-0.8-0.8c0-0.6,0.3-0.9,0.8-0.9h4.5V3.9
		c0-0.7,0.3-1,1-1c0.7,0,1.1,0.3,1.1,1v1.3H97.8z M96.5,13.2c0.6,0,0.8,0.3,0.8,0.8c0,0.6-0.3,0.9-0.8,0.9h-8.7
		c-0.6,0-0.8-0.3-0.8-0.9c0-0.6,0.3-0.8,0.8-0.8H96.5z M96.1,19.9c0.4,0,0.7,0.2,0.9,0.6c0.3,0.7,0.6,1.8,0.9,3.3
		c0.1,0.3,0.1,0.5,0.1,0.6c0,0.6-0.3,0.9-1,0.9c-0.5,0-0.8-0.3-0.9-0.9c-0.2-1.4-0.4-2.5-0.7-3.5l-0.1-0.3
		C95.4,20.1,95.6,19.9,96.1,19.9z M104,9.2c0.7,0,1,0.3,1,1v3.6c0,0.8,0.1,1.9,0.2,3c0.2,1.2,0.5,2.5,1,3.7c0.4,1.1,1,2.3,1.7,3.4
		c0.4,0.8,1.1,1.7,1.9,2.8c0.3,0.3,0.4,0.5,0.4,0.8c0,0.6-0.4,0.9-1,1c-0.3,0-0.5-0.2-0.9-0.5c-0.9-1-1.6-2-2.2-3.1
		c-0.6-1-1-2-1.3-2.9c-0.4-1-0.7-2-0.9-3c-0.2,1-0.6,2-1,2.9c-0.4,0.9-0.9,1.9-1.6,3c-0.8,1.2-1.6,2.2-2.5,3.2
		c-0.3,0.2-0.6,0.4-0.8,0.4C97.4,28.4,97,28,97,27.3c0-0.2,0.2-0.5,0.6-0.8c0.8-0.9,1.6-1.9,2.3-3.1c0.8-1.2,1.4-2.4,1.9-3.6
		c0.5-1.1,0.8-2.2,1-3.2c0.2-1.1,0.3-2,0.3-2.8v-3.6C103,9.5,103.3,9.2,104,9.2z M101,3c0.6,0,1,0.3,1,1c0,0.7,0,1.4-0.1,2.1h6.9
		c1.2,0,1.8,0.6,1.8,1.8c0,0.7-0.1,1.5-0.3,2.5c-0.3,1.7-0.7,3.6-1.3,5.6c-0.3,0.3-0.6,0.4-0.8,0.4c-0.7,0-1.1-0.3-1.1-0.8
		c0-0.1,0-0.3,0.1-0.5c0.5-1.8,1-3.6,1.3-5.2c0.1-0.6,0.2-1.1,0.2-1.5c0-0.5-0.2-0.7-0.5-0.7h-6.4c0,0.2,0,0.4-0.1,0.5
		c-0.3,1.7-0.9,3.3-1.7,4.6c-0.2,0.3-0.5,0.5-0.8,0.5c-0.7,0-1.1-0.4-1.1-1.1c0-0.1,0.1-0.3,0.2-0.6c0.7-1.2,1.2-2.5,1.5-4
		c0.2-1.2,0.3-2.5,0.3-3.8C100,3.3,100.3,3,101,3z"/>
</g>
</svg>
