<?xml version="1.0" encoding="utf-8"?>
<!-- Generator: Adobe Illustrator 17.1.0, SVG Export Plug-In . SVG Version: 6.00 Build 0)  -->
<!DOCTYPE svg PUBLIC "-//W3C//DTD SVG 1.1//EN" "http://www.w3.org/Graphics/SVG/1.1/DTD/svg11.dtd">
<svg version="1.1" id="圖層_1" xmlns="http://www.w3.org/2000/svg" xmlns:xlink="http://www.w3.org/1999/xlink" x="0px" y="0px"
	 viewBox="0 0 112 33" enable-background="new 0 0 112 33" xml:space="preserve">
<g>
	<path d="M3,18.6c0.6,0,1,0.3,1,1c0,2.3-0.3,4.5-0.8,6.6c-0.1,0.6-0.5,0.9-1.2,0.9c-0.5,0-0.8-0.3-0.8-0.8c0-0.3,0-0.5,0.1-0.8
		c0.6-1.6,0.9-3.7,1-6.1C2.2,18.9,2.5,18.6,3,18.6z M6.3,3.2c0.3,0,0.6,0.1,0.8,0.2C7.3,3.6,7.4,3.7,7.4,4c0,0.1,0,0.3-0.1,0.5
		C6.4,6.3,5.5,7.9,4.5,9.2c0.6,0.6,1.2,1.2,1.8,2c0.9-1.5,1.8-3,2.5-4.6c0.2-0.2,0.5-0.3,0.8-0.3c0.2,0,0.4,0.1,0.6,0.2
		c0.2,0.2,0.3,0.4,0.3,0.6c0,0.2-0.1,0.4-0.2,0.6C9.3,9.4,8.4,11,7.4,12.5c-0.6,0.8-1.2,1.7-1.9,2.5c1.2-0.1,2.3-0.3,3.3-0.5
		c-0.1-0.3-0.3-0.6-0.4-0.9c-0.1-0.2-0.2-0.4-0.2-0.5c0-0.4,0.3-0.7,0.9-0.7c0.2,0,0.4,0.1,0.5,0.4c0.6,1,1.1,2.1,1.6,3.3
		c0.1,0.2,0.1,0.5,0.1,0.7c0,0.5-0.4,0.7-1.1,0.7c-0.3,0-0.5-0.2-0.7-0.6c-0.1-0.3-0.1-0.5-0.2-0.7c-0.1,0-0.1,0-0.2,0
		c-0.6,0.1-1.2,0.3-1.8,0.4v11.2c0,0.6-0.3,0.9-1,0.9c-0.6,0-0.9-0.3-0.9-0.9V16.9c-1.1,0.2-2.2,0.4-3.3,0.5c-0.7,0-1-0.4-1-1.2
		c0-0.6,0.3-1,1-1c0.4,0,0.8,0,1.1-0.1c0.7-0.8,1.4-1.7,2-2.5c-0.2-0.1-0.3-0.1-0.4-0.2c-0.7-0.9-1.4-1.6-1.9-2.1
		C2.5,9.9,2,9.4,1.5,9C1.3,8.8,1.1,8.5,1.1,8.2c0-0.6,0.3-0.8,0.9-0.8c0.2,0,0.4,0.1,0.6,0.2C2.9,7.7,3,7.8,3.1,8
		c0.8-1.2,1.6-2.6,2.4-4.3C5.7,3.3,5.9,3.2,6.3,3.2z M9,18.3c0.4,0,0.7,0.2,0.8,0.6c0.3,0.8,0.5,2.1,0.8,3.9
		c0.1,0.4,0.1,0.6,0.1,0.8c0,0.5-0.3,0.7-0.9,0.7c-0.5,0-0.8-0.2-0.8-0.7c-0.2-1.7-0.4-3.1-0.7-4.2L8.2,19C8.2,18.5,8.4,18.3,9,18.3
		z M12.2,17.2h3.5c0.8,0,1.2,0.4,1.2,1.3c0,0.5-0.2,1-0.5,1.8c-0.5,1.2-1.1,2.3-1.8,3.3c-1,1.4-2.2,2.5-3.6,3.4
		c-0.3,0.2-0.5,0.3-0.5,0.3c-0.7,0-1-0.4-1-1.1c0-0.4,0.3-0.7,0.8-1c1.1-0.7,1.9-1.5,2.6-2.3c0.6-0.7,1.2-1.7,1.8-3
		c0.1-0.3,0.2-0.5,0.2-0.6c0-0.1,0-0.1-0.1-0.1h-2.5c-0.6,0-1-0.3-1-1C11.3,17.5,11.6,17.2,12.2,17.2z M18.6,2.8
		c0.2,0,0.5,0.1,0.7,0.3c0.2,0.2,0.3,0.4,0.3,0.7c0,0.2-0.1,0.4-0.2,0.6C19.2,4.7,19,5,18.9,5.3h5.5c1.1,0,1.7,0.5,1.7,1.6v5.9
		c0,1.1-0.6,1.7-1.7,1.7H20v1.1c0.5,1.6,0.9,2.9,1.4,3.9c0.1,0.1,0.1,0.2,0.2,0.4c1.2-1.2,2.2-2.3,2.9-3.3c0.2-0.3,0.5-0.5,0.7-0.5
		c0.6,0,1,0.3,1,0.9c0,0.3-0.1,0.6-0.4,0.9c-0.9,1.2-1.9,2.4-3.2,3.6c0.3,0.4,0.6,0.9,1,1.3c0.8,1,1.8,2.1,3.1,3.1
		c0.3,0.3,0.5,0.5,0.5,0.7c0,0.7-0.4,1.1-1,1.1c-0.3,0-0.7-0.1-1.1-0.3c-1.4-1.3-2.6-2.6-3.5-4.1c-0.6-0.9-1.1-1.9-1.5-2.9v6.3
		c0,1.3-0.6,1.9-1.7,1.9c-1.1,0-2.3-0.3-3.7-0.8c-0.5-0.1-0.7-0.4-0.7-0.9c0-0.6,0.3-0.9,0.9-1c1.8,0.5,2.8,0.7,3.1,0.7
		c0.2,0,0.4-0.1,0.4-0.4V14.5h-4.8c-1.1,0-1.6-0.6-1.6-1.7V6.9c0-1.1,0.5-1.6,1.6-1.6h3.5C16.9,5.2,17,5,17,4.9
		c0.3-0.5,0.5-1.1,0.7-1.7C17.9,2.9,18.2,2.8,18.6,2.8z M13.6,9h10.7V7.7C24.3,7.2,24,7,23.6,7h-9.5c-0.3,0-0.5,0.2-0.5,0.7V9z
		 M23.6,12.7c0.5,0,0.7-0.2,0.7-0.6v-1.4H13.6v1.4c0,0.4,0.2,0.6,0.5,0.6H23.6z"/>
	<path d="M40.2,3.2c0.7,0,1.1,0.4,1.1,1.1v6.3h10.7c0.6,0,1,0.3,1,1c0,0.7-0.3,1.1-1,1.1H41.3v12.9h12.4c0.7,0,1,0.3,1,1s-0.3,1-1,1
		H30.4c-0.7,0-1-0.3-1-1s0.3-1,1-1h8.8V4.3C39.2,3.6,39.5,3.2,40.2,3.2z"/>
	<path d="M68.5,3.3c0.7,0,1,0.4,1,1.1c0,0.5-0.2,0.8-0.7,0.9l-5.4,0.4c-2,0.2-2.9,0.8-2.9,2v4.9c0.6-0.1,1.2-0.3,1.7-0.4
		c1-0.3,2.4-0.8,4.2-1.5c-0.5-0.7-1.1-1.3-1.7-1.9c-0.1-0.3-0.2-0.5-0.2-0.6c0-0.6,0.4-1,1.1-1c0.2,0,0.4,0.1,0.6,0.3
		c1.2,1.2,2.3,2.5,3.4,4c0.1,0.3,0.2,0.5,0.2,0.7c0,0.6-0.3,0.9-1,0.9c-0.2,0-0.4-0.1-0.6-0.2c-0.2-0.3-0.4-0.6-0.7-0.8
		c0,0,0,0-0.1,0.1c-0.9,0.5-2,1-3.5,1.5c-1.8,0.6-3.6,1.1-5.1,1.5c-0.3,0.1-0.5,0.1-0.7,0.1c-0.7,0-1-0.3-1-1c0-0.6,0.3-0.9,0.8-1.1
		c0.2,0,0.4-0.1,0.5-0.1V6.7c0-0.9,0.3-1.5,0.8-1.8c0.6-0.4,2.1-0.8,4.5-1.1C66.3,3.5,67.8,3.3,68.5,3.3z M61,16.6h18
		c1.2,0,1.8,0.5,1.8,1.6v8.1c0,1.2-0.6,1.7-1.8,1.7H61c-1.1,0-1.7-0.6-1.7-1.7v-8.1C59.3,17.1,59.9,16.6,61,16.6z M61.4,21.3h7.4
		v-2.8h-7c-0.3,0-0.4,0.2-0.4,0.6V21.3z M68.8,26.2V23h-7.4v2.5c0,0.5,0.1,0.7,0.4,0.7H68.8z M71.1,4.2h9.2c1.3,0,1.9,0.6,1.9,1.7
		c0,2.7-0.2,4.8-0.5,6.3c-0.2,1-0.6,1.7-1.1,2c-0.6,0.4-1.4,0.5-2.5,0.5c-0.6,0-1.4-0.1-2.5-0.4c-0.5-0.2-0.8-0.5-0.8-1
		c0-0.7,0.3-1.1,1-1.1c1.2,0.3,1.9,0.4,2.3,0.4c0.6,0,1-0.1,1.2-0.3c0.3-0.3,0.4-0.7,0.5-1.2c0.2-0.8,0.3-2.3,0.3-4.5
		c0-0.4-0.2-0.6-0.7-0.6h-4c0,0.6-0.1,1.3-0.2,2.1c-0.2,1.1-0.4,2.1-0.8,3c-0.5,1.1-1.1,2-1.9,2.7c-0.8,0.8-1.7,1.4-2.8,1.9
		c-0.2,0.1-0.3,0.1-0.4,0.1c-0.8,0-1.2-0.4-1.2-1.1c0-0.3,0.1-0.6,0.4-0.8c1.1-0.5,1.9-1.1,2.5-1.8c0.6-0.6,1.1-1.3,1.4-2.2
		c0.4-1,0.7-2.3,0.8-3.9h-2.5c-0.6,0-0.9-0.3-0.9-1C70.2,4.5,70.5,4.2,71.1,4.2z M70.8,18.4v2.8h8V19c0-0.4-0.2-0.6-0.5-0.6H70.8z
		 M78.2,26.2c0.4,0,0.5-0.2,0.5-0.7V23h-8v3.2H78.2z"/>
	<path d="M109.7,7.9c0.7,0,1,0.3,1,1c0,0.7-0.3,1-1,1H86.2c-0.7,0-1-0.3-1-1c0-0.7,0.3-1,1-1H109.7z M89.1,20.6h17.5
		c1.3,0,2,0.6,2,1.8v4.1c0,1.3-0.7,1.9-2,1.9H89.1c-1.2,0-1.8-0.6-1.8-1.9v-4.1C87.3,21.2,87.9,20.6,89.1,20.6z M107.5,16.6
		c0.6,0,0.9,0.3,0.9,0.9c0,0.7-0.3,1-0.9,1H88.3c-0.6,0-0.9-0.3-0.9-1c0-0.6,0.3-0.9,0.9-0.9H107.5z M107.6,12.3
		c0.6,0,0.9,0.3,0.9,0.9c0,0.6-0.3,1-0.9,1H88.4c-0.6,0-0.9-0.3-0.9-1c0-0.6,0.3-0.9,0.9-0.9H107.6z M106.9,3.9
		c0.6,0,0.8,0.3,0.8,0.9c0,0.7-0.3,1-0.8,1h-18c-0.6,0-0.9-0.3-0.9-1c0-0.6,0.3-0.9,0.9-0.9H106.9z M105.8,26.5
		c0.5,0,0.7-0.3,0.7-0.9v-2.4c0-0.5-0.2-0.7-0.7-0.7H90c-0.4,0-0.6,0.2-0.6,0.7v2.4c0,0.6,0.2,0.9,0.6,0.9H105.8z"/>
</g>
</svg>
