<?xml version="1.0" encoding="utf-8"?>
<!-- Generator: Adobe Illustrator 17.1.0, SVG Export Plug-In . SVG Version: 6.00 Build 0)  -->
<!DOCTYPE svg PUBLIC "-//W3C//DTD SVG 1.1//EN" "http://www.w3.org/Graphics/SVG/1.1/DTD/svg11.dtd">
<svg version="1.1" id="圖層_1" xmlns="http://www.w3.org/2000/svg" xmlns:xlink="http://www.w3.org/1999/xlink" x="0px" y="0px"
	 viewBox="0 0 330 130" enable-background="new 0 0 330 130" xml:space="preserve">
<g>
	<path d="M2.5,31.3c1.5-2.1,2.5-3.8,3.1-5.2l2.5,1.4c-0.7,1.6-1.7,3.4-3.2,5.4L2.5,31.3z M15.6,25.1c0,0.3-0.1,0.4-0.4,0.4H4.1
		c-0.2,0-0.4-0.1-0.4-0.4V3.7c0-0.3,0.1-0.4,0.4-0.4h11.1c0.3,0,0.4,0.1,0.4,0.4V25.1z M6.4,9.8h6.5V6l-0.1-0.1H6.5L6.4,6V9.8z
		 M6.4,16.4h6.5v-3.9H6.4V16.4z M12.9,19.1H6.4v3.7l0.1,0.1h6.2c0.1,0,0.1,0,0.1-0.1V19.1z M14.3,32.7c-1-2-2-3.7-2.9-4.8l2.4-1.4
		c1.1,1.4,2,3.1,3,5L14.3,32.7z M16.7,25.2c4.3-4.5,7.4-9.6,9.3-15.3h-8.6V7.1h9.7V2.4H30v4.7h3v2.8h-3v19.3c0,2.5-2,3.6-4.7,3.6
		c-1.5,0-3.2-0.3-5.3-0.8v-2.9l3.3,0.8l2.1,0.2c0.2,0,1.7-0.2,1.7-1.6v-14c-2.3,5.1-5,9.2-8,12.2L16.7,25.2z"/>
	<path d="M39,31.5v1.3h-2.7V3.8c0-0.6,0.3-0.9,0.9-0.9h27c0.6,0,0.9,0.3,0.9,0.9v29h-2.7v-1.3H39z M47.2,29.1
		c-1.1-1.3-2-2.2-2.8-2.9l1.4-1.4h-5.5v-2.3h15.4v-1.4L41,21.7l-0.3-2.4l8.7-0.2v-1.5h-8.1c-0.2,0-0.3-0.1-0.3-0.3V9.9
		c0-0.2,0.1-0.3,0.3-0.3h8.1V8.4h-9v-2h9V5.3H39.4c-0.3,0-0.4,0.1-0.4,0.4v23.5H47.2z M49.5,12.5v-1.1h-5.8
		c-0.1,0.1-0.1,0.2-0.1,1.1H49.5z M49.5,15.6v-1.2h-5.9v1.1l0.1,0.1H49.5z M46.5,24.8c0.8,0.7,1.6,1.6,2.6,2.7l-1.7,1.6h6.9L52,28.6
		V26c0.9,0.3,2.2,0.6,2.8,0.6c0.2,0,0.4-0.1,0.6-0.3c0.3-0.2,0.3-0.5,0.3-1.5H46.5z M58.2,24.8v1.3c0,1.6-0.9,2.5-2.2,3h6.4V5.6
		c0-0.2-0.1-0.4-0.4-0.4H52v1.2h8.9v2H52v1.1h8c0.2,0,0.3,0.1,0.3,0.3v7.4c0,0.3-0.1,0.3-0.7,0.3c0.8,0.8,1.6,1.9,2.4,3.1l-1.8,1.4
		l-0.8-1.1L58.2,21v1.5h3.5v2.3H58.2z M52,11.5v1.1h5.9v-1l-0.1-0.1H52z M52,14.4v1.2h5.8l0.1-0.1v-1.1H52z M57.1,18.2l0.8-0.7H52
		v1.4l5.6-0.2L57.1,18.2z"/>
	<path d="M68.5,31.4c2.9-3.4,4.8-7.3,5.8-11.6l2.7,0.7c-1.5,5.4-3.4,9.6-5.8,12.3L68.5,31.4z M74.4,17.1c-2.2-1.6-4.1-2.8-5.6-3.6
		l1.5-2.4c1.7,0.8,3.6,2,5.7,3.6L74.4,17.1z M75.2,9.1c-2.4-1.9-4.3-3.3-5.9-4.1l1.6-2.4c1.8,1,3.8,2.4,6.1,4.2L75.2,9.1z
		 M95.5,30.4l-19,1.7l-0.8-2.9l3.5-0.3c2-3.4,4-7.1,5.7-11h-7.1v-2.8h8.4V9.2h-7.9V6.4h7.9V2.2H89v4.2h8.5v2.8H89v5.9h9.7V18H87.9
		c-1.3,3-3,6.6-5.3,10.7l11.7-1c-1.1-2.1-2.1-3.9-3-5.3l2.5-1.4c1.8,2.7,3.6,6.2,5.3,10.5l-2.6,1.3L95.5,30.4z"/>
	<path d="M125.4,28.9c-4.2-4.3-7.1-9.1-8.7-14.3c-2.1,7.8-5.7,13.3-12.9,18.1l-2.2-2.1c8.7-5,13.3-13.8,13.6-26.4V2.4h2.9v3.1h0
		c0.1,7.2,2,15.9,13.7,25.5l-2.5,1.8L125.4,28.9z"/>
	<path fill="#ED1C24" d="M3.3,75.6c4.3,0,8.2-0.5,11.6-1.5c-1.5-1.1-2.9-2.4-4.3-3.9c-2.4,1.4-4.1,2.3-5.1,2.7l-1.6-2.4l1-0.4
		c3.7-1.4,6.3-3.3,7.8-5.9c-0.4-0.5-0.7-1.1-0.7-1.6v-5H6c-0.2,0-0.3,0.1-0.3,0.2v3.7H3.2v-6c0-0.3,0.2-0.5,0.5-0.5h5.8
		c-0.7-1-1.3-1.7-1.8-2.3l1.7-1.3l-3.8-0.1l-0.2-2.7c2.2,0.1,4.3,0.1,6.3,0.1c7.8,0,14-0.4,18.5-1.2l0.3,2.7c-2,0.4-5.3,0.7-9.8,0.9
		l-2.7,0.1c0.5,0.8,1.1,1.7,1.7,2.9l-1.4,0.8h5.1c1.2-1.2,2.4-2.5,3.6-4.1l1.9,1.8l-1.8,2.1l-0.2,0.2H31l2.3,1.2
		c0,1.5-0.4,3.3-1,5.3L29.8,61c0.4-1.4,0.5-2.3,0.5-2.7c0-0.6-0.2-0.6-0.4-0.6H14.5v3.6c0,0.8,0.6,1.4,1.4,1.5h5.9
		c0.2,0,0.5-0.1,0.8-0.3l0.2-0.3l0.3-2.1l2.5,0.7c-0.3,2.2-0.6,3.5-0.8,3.6c-0.6,0.7-1.3,1-1.8,1h-7.8c-0.5,0.9-0.9,1.6-1.1,1.8
		h13.4l1.7,1.4c0.1,0.1,0.1,0.1,0.1,0.2c0,0,0,0.1-0.1,0.2c-1.5,1.9-4.3,3.9-8.3,5.8c2.5,0.7,5.2,1,8.2,1c1.2,0,2.4-0.1,3.7-0.2
		l-0.4,2.8c-1,0.1-1.9,0.1-2.9,0.1c-4.3,0-8.2-0.9-11.7-2.5c-4.1,1.5-8.8,2.3-14,2.5L3.3,75.6z M11,60.7c-1.5,2.5-3.2,4.4-5,5.7
		c-0.5-0.9-1-1.7-1.6-2.1c1.6-1.2,3.1-2.9,4.2-5L11,60.7z M10.9,55.1H17c-0.6-1.1-1.1-1.9-1.6-2.6l1.7-1.1l-7.2,0.1
		c0.7,0.7,1.4,1.7,2.1,2.8L10.9,55.1z M13.5,69.7c1,1.1,2.2,2.4,4.2,3.5c3.1-1.4,5.4-2.5,6.6-3.3c0-0.2-0.2-0.2-0.4-0.2H13.5z
		 M19.2,62.1c-0.6-0.7-1.4-1.5-2.5-2.3l1.8-1.8l2.5,2.4L19.2,62.1z M29.5,66.2c-1.1-2.1-2.4-4.2-3.9-5.9l2.1-1.4
		c1.7,2.3,3.1,4.4,4,6.1L29.5,66.2z"/>
	<path d="M35.5,74.1c1.6-8.8,2.3-15.8,2.2-21.2l2.8,0.2c0.1,5.9-0.7,13.1-2.3,21.3L35.5,74.1z M43.5,50h2.9v23c0,1,0,1.9,1.8,1.9
		h7.1c2.4,0,2.5-1.8,2.5-4c0-1,0-2.3-0.1-3.9l2.9,0.5c0,1.3,0.1,2.4,0.1,3.4c0,4-0.3,4.9-0.9,5.7c-0.9,1.1-1.4,1.3-3.5,1.3H47
		c-2.5,0-3.6-1.8-3.5-4.4V50z M52.6,67.7c-0.8-8.2-2-14.6-3.5-19.3l2.8-0.6c1.7,5.2,2.8,11.7,3.5,19.4L52.6,67.7z M63.3,73.9
		c-1-9.1-2.3-16.3-4-21.6l2.7-0.6c1.9,5.9,3.3,13.1,4.1,21.8L63.3,73.9z"/>
	<path d="M75.9,52h-2.2c-1,1.7-2,3.2-3.1,4.3l-2.3-1.5c2-2.1,3.5-4.4,4.4-7l2.5,0.9l-0.3,0.8h8.1V52h-4.5c0.3,0.9,0.6,1.8,0.7,2.9
		l-2.5,0.4L75.9,52z M68.6,74.8c4.6-1.1,8.6-3,12-5.5h-8.1l-0.1,0.9l-2.8-0.5l0.8-7.5c0-0.5,0.3-0.7,0.7-0.7h11.4v-2.7H71.1v-2.7
		h25.1c0.1,0,0.8,0.1,0.9,0.9v7.7h-2.8v-0.5h-8.9v2.5h12.1c0.5,0,0.7,0.3,0.7,0.8c0,6.5-0.4,8.1-1.7,8.8C95.5,77,94.2,77,93.7,77
		c-1.1,0-2.6-0.1-4.6-0.5L89,73.6c2,0.5,3.5,0.7,4.6,0.7c1.5,0,1.8-0.1,1.8-4.1v-0.8c0-0.1-0.2-0.2-0.5-0.2h-9.6v9.1h-2.8V71
		c-4.5,3.3-8.7,5.4-12.7,6.4L68.6,74.8z M82.6,66.6v-2.5h-9.1c-0.2-0.1-0.4,0-0.4,0.2l-0.2,2.3H82.6z M89.6,52h-2.7
		c-0.7,1.5-1.6,2.7-2.5,3.6L82,54.2c1.8-1.9,3.1-4.1,3.8-6.5l2.5,0.8l-0.4,1h10.5V52h-6.2c0.2,0.2,0.6,1.1,1,2.6l-2.4,0.7L89.6,52z
		 M85.4,58.8v2.7h8.9v-2.4c0-0.2-0.1-0.4-0.4-0.4H85.4z"/>
	<path d="M102,73.3h29.7v3.1H102V73.3z M103.7,49.7H130v3.1h-26.3V49.7z"/>
	<path d="M143.5,76.6v1.5h-2.8V66.6c-1.5,1.2-2.9,2.2-4.2,2.9l-2.1-2.2c3-1.8,5.7-3.8,8-5.9H135v-2.7h9.6l1.2-2H137v-2.7h10l0.6-1.7
		h-12v-2.7h12.5l0.3-2.1l2.9,0.4l-0.3,1.7H164v2.7h-13.6l-0.5,1.7h12.7v2.7h-8.4l1.2,2h9.4v2.7h-7.5c2.1,2.3,4.7,4.5,7.9,6.2
		l-2.1,2.2c-1.5-1-2.9-2-4.2-3.1v11.4h-2.8v-1.5H143.5z M143.5,69.1h12.4v-1.9c0-0.3-0.1-0.4-0.4-0.4h-11.6c-0.3,0-0.4,0.2-0.4,0.4
		V69.1z M155.9,71.8h-12.4V74h12.4V71.8z M143.5,64.1H156c-0.6-0.7-1.4-1.5-2.1-2.6h-8L143.5,64.1z M152.1,58.8l-1.1-2h-2.1l-1.1,2
		H152.1z"/>
	<path d="M167.7,75.8c4.9-1.6,9.2-3.9,12.9-6.8c-3.4-3.4-5.9-8.3-7.2-14.5h-5.5v-2.9h13.6V48h2.9v3.6h13.4v2.9h-5
		c-1.5,6-4.2,10.9-7.9,14.6c3.9,3,8.3,5.3,13.4,6.7l-1.9,2.6c-5.3-1.8-9.8-4.2-13.6-7.4l-3.3,2.4c-2.2,1.5-5.5,3.2-9.9,5L167.7,75.8
		z M176.3,54.5c0.6,2.7,1.3,5,2.3,6.9c1.1,2.3,2.5,4.3,4.2,5.9l0.7-0.8c3-3.2,5.1-7.2,6.3-12H176.3z"/>
	<path d="M208.5,69.8l-1.9-2.7h1.4l2.4-2.3l0.1-0.3l-0.2-0.1H207c-1.5,1.2-3.2,2.3-4.9,3.4l-1.7-2.1c3.3-1.8,6.2-4,8.6-6.3h-8.3
		v-2.5h6.1v-3.4h-5v-2.6h5v-3h2.7v3h5v1.6l2-3.6l2.2,1.2c-1.2,2.2-2.6,4.5-4.2,6.8h2.6v2.5h-4.7l-1,1.1l-1.7,1.7h4l1.8,1.7l-5.1,4.4
		l0.6,1.1c2.5-0.7,4.5-1.3,5.9-1.7l0.8,2.6c-1.2,0.4-3.1,1-5.6,1.7c0.4,1.2,0.7,2.2,0.7,3c0,1.7-1.5,3.8-4.6,3.8
		c-1.2,0-2.7-0.3-4.3-1l0.1-2.9c1.8,1,3.2,1.5,4.1,1.5c0.7,0,2-0.6,2-2.2c0-0.5-0.1-1-0.3-1.6l-8,1.6l-0.8-2.6L208.5,69.8z
		 M212.9,54.8l0.9-1.4h-4.4v3.4h1.9L212.9,54.8z M214.2,76.1c3.4-1.7,6.1-3.9,8.1-6.7c-1.1-2.1-1.8-4.8-2.3-7.9
		c-0.4,1.1-0.9,2-1.4,3l-2.7-0.7c2.6-5,3.9-10.3,3.9-15.8l2.7,0l-0.2,3.1h8.8v2.7h-2v1.9c0,4.1-0.9,8.2-2.7,12.1l-1.1,1.9
		c1.3,2.1,3.4,4.5,6.1,7.1l-2.5,1.5c-2.2-2.4-3.9-4.5-5.1-6.4c-1.9,2.3-4.4,4.5-7.5,6.3L214.2,76.1z M222.1,53.8
		c-0.1,0.9-0.1,1.8-0.1,2.6c0,1.9,0.2,3.8,0.5,5.4c0.3,1.8,0.8,3.6,1.4,5.2c1.7-3.2,2.5-6.9,2.6-11.3v-1.9H222.1z"/>
	<path fill="#ED1C24" d="M262.4,72.8c-3.6-1.8-6.6-4.1-9.1-7h-9.3c-3.1,3.4-6,5.7-8.8,6.8l-1.7-2.3c2.6-1.2,4.9-2.7,6.8-4.5h-6.5
		v-2.6h5.6v-11h-4.8v-2.5h4.8v-1.8h2.8v1.8h13.2v-1.8h2.8v1.8h5v2.5h-5v11h5.8v2.6h-7.3c1.7,1.7,4.3,3.3,7.5,4.7L262.4,72.8z
		 M247.3,75.1v-3h-6.9v-2.5h6.9v-2.4h2.8v2.4h6.8v2.5h-6.8v3h12.7v2.5h-28.1v-2.5H247.3z M242.1,54.3h13.2v-2.1h-13.2V54.3z
		 M242.1,58.9h13.2v-2.2h-13.2V58.9z M242.1,63.2h13.2v-2.1h-13.2V63.2z"/>
	<path d="M295.5,58.8c-5.1-2.1-9.6-4.8-13.6-8.1c-2.6,2.6-7.3,5.3-13.9,8.1l-1.6-2.7c7.5-2.5,12.5-5.4,14.7-8.5l2.7,0.6l-0.4,0.6
		c3.9,3.2,8.4,5.7,13.6,7.4L295.5,58.8z M280.5,74.7v-8.2h-12.8v-2.8h12.8v-3.9h-7.6V57h18v2.8h-7.6v3.9H296v2.8h-12.8v8.2h13v2.8
		h-28.9v-2.8H280.5z M273.4,74.4c-1.3-2.6-2.4-4.6-3.5-6l2.4-1.5c1.2,1.6,2.4,3.6,3.6,6.2L273.4,74.4z M287.4,72.7
		c1.4-1.8,2.7-3.8,3.8-5.8l2.3,1.6c-1.4,2.3-2.8,4.4-3.9,5.9L287.4,72.7z"/>
	<path fill="#ED1C24" d="M329.1,55.7c-2.4-0.5-5.3-1.3-8.6-2.4V55h-11.2v-1.7c-2.5,0.8-5.4,1.6-8.8,2.3l-1-2.7
		c7.3-1,12.3-2.7,15-5.1l2.3,1l-0.2,0.2c4.2,2.1,8.7,3.5,13.5,4L329.1,55.7z M327.5,64.4c0,0.2-0.1,0.4-0.4,0.4h-24.6
		c-0.2,0-0.4-0.1-0.4-0.4v-7.8c0-0.2,0.1-0.3,0.4-0.3h24.6c0.2,0,0.4,0.1,0.4,0.3V64.4z M306.9,76.9v1.2h-2.7V66.9
		c0-0.3,0.1-0.4,0.4-0.4h20.5c0.4,0,0.6,0.2,0.6,0.5v11.2h-2.7v-1.2H306.9z M309.4,58.9c0.6,0.9,1.3,2.1,1.8,3.5h2.4v-3.6h-8.8
		c-0.1,0-0.1,0-0.1,0.1v3.4l0.1,0.1h3.6l-1.3-2.2L309.4,58.9z M306.9,70.6h16.2v-1.5c0-0.2-0.1-0.4-0.4-0.4h-15.4
		c-0.3,0-0.4,0.1-0.4,0.4V70.6z M323.1,72.9h-16.2v1.8h16.2V72.9z M318.8,52.6l-4.1-2c-0.7,0.5-2,1.2-3.8,2H318.8z M322.8,60.4
		l-1.2,2h3.2l0.1-0.1v-3.4l-0.1-0.1h-8.6v3.6h2.2c1-1.3,1.8-2.5,2.3-3.4L322.8,60.4z"/>
</g>
<g>
	<path d="M4.3,107c0-4.1,0-4.9-0.1-5.7c-0.1-0.9-0.3-1.3-1.1-1.5c-0.2-0.1-0.7-0.1-1-0.1c-0.3,0-0.4-0.1-0.4-0.2
		c0-0.2,0.2-0.2,0.6-0.2c1.4,0,3.1,0.1,3.6,0.1c0.9,0,2.9-0.1,3.7-0.1c1.7,0,3.4,0.2,4.9,1.2c0.7,0.5,1.8,1.9,1.8,3.7
		c0,2-0.8,3.8-3.5,6c2.4,3,4.2,5.4,5.7,7.1c1.5,1.6,2.6,1.8,3,1.8c0.3,0.1,0.5,0.1,0.7,0.1c0.2,0,0.3,0.1,0.3,0.2
		c0,0.2-0.2,0.3-0.5,0.3h-2.5c-1.5,0-2.1-0.1-2.8-0.5c-1.1-0.6-2.1-1.9-3.6-4c-1.1-1.5-2.3-3.3-2.6-3.7c-0.1-0.2-0.3-0.2-0.5-0.2
		l-2.3-0.1c-0.1,0-0.2,0.1-0.2,0.2v0.4c0,2.5,0,4.6,0.1,5.8c0.1,0.8,0.2,1.4,1,1.5c0.4,0.1,1,0.1,1.3,0.1c0.2,0,0.3,0.1,0.3,0.2
		c0,0.2-0.2,0.3-0.5,0.3c-1.5,0-3.5-0.1-3.9-0.1c-0.5,0-2.2,0.1-3.2,0.1c-0.3,0-0.5-0.1-0.5-0.3c0-0.1,0.1-0.2,0.4-0.2
		c0.4,0,0.7-0.1,1-0.1c0.5-0.1,0.7-0.7,0.8-1.5c0.1-1.1,0.1-3.3,0.1-5.8V107z M7.4,109.1c0,0.3,0.1,0.4,0.2,0.5
		c0.6,0.2,1.3,0.3,2,0.3c1.1,0,1.4-0.1,1.9-0.5c0.8-0.6,1.6-1.8,1.6-4c0-3.8-2.5-4.9-4-4.9c-0.7,0-1.1,0-1.4,0.1
		c-0.2,0.1-0.2,0.2-0.2,0.4V109.1z"/>
	<path d="M24.3,108.9c0-3.5,0-4.1,0-4.9c-0.1-0.8-0.3-1-1-1.2c-0.2-0.1-0.6-0.1-0.9-0.1c-0.2,0-0.4-0.1-0.4-0.2s0.2-0.2,0.5-0.2
		c1.2,0,2.7,0.1,3.4,0.1c0.7,0,5.9,0,6.3,0c0.4,0,0.8-0.1,1-0.1c0.1,0,0.3-0.1,0.4-0.1c0.1,0,0.2,0.1,0.2,0.2c0,0.2-0.1,0.4-0.2,1.5
		c0,0.2-0.1,1.2-0.1,1.5c0,0.1-0.1,0.4-0.3,0.4c-0.2,0-0.2-0.1-0.2-0.3c0-0.2,0-0.6-0.2-0.8c-0.2-0.4-0.4-0.7-1.5-0.8
		c-0.4-0.1-3.2-0.1-3.6-0.1c-0.1,0-0.2,0.1-0.2,0.2v5.7c0,0.1,0,0.2,0.2,0.2c0.5,0,3.5,0,4.1-0.1c0.6-0.1,0.9-0.1,1.1-0.4
		c0.2-0.2,0.3-0.3,0.4-0.3c0.1,0,0.2,0.1,0.2,0.2s-0.1,0.5-0.2,1.7c-0.1,0.5-0.1,1.4-0.1,1.5c0,0.2,0,0.5-0.2,0.5
		c-0.2,0-0.2-0.1-0.2-0.2c0-0.2,0-0.5-0.1-0.8c-0.1-0.5-0.4-0.8-1.3-0.9c-0.4-0.1-3.1-0.1-3.6-0.1c-0.1,0-0.1,0.1-0.1,0.2v1.8
		c0,0.8,0,2.7,0,3.4c0.1,1.6,0.8,1.9,3.1,1.9c0.6,0,1.6,0,2.2-0.3c0.6-0.3,0.8-0.8,1-1.7c0.1-0.2,0.1-0.4,0.3-0.4
		c0.2,0,0.2,0.3,0.2,0.5c0,0.5-0.2,2.1-0.3,2.5c-0.2,0.6-0.4,0.6-1.2,0.6c-1.7,0-3.1,0-4.3-0.1c-1.1,0-2-0.1-2.7-0.1
		c-0.3,0-0.8,0-1.3,0c-0.6,0-1.1,0.1-1.6,0.1c-0.3,0-0.4-0.1-0.4-0.2c0-0.1,0.1-0.2,0.4-0.2c0.3,0,0.6,0,0.8-0.1
		c0.5-0.1,0.6-0.5,0.7-1.2c0.1-1,0.1-2.8,0.1-4.9V108.9z"/>
	<path d="M40.9,116.4c0.1,1.8,0.3,2.3,0.8,2.5c0.4,0.1,0.8,0.2,1.2,0.2c0.3,0,0.4,0.1,0.4,0.2c0,0.2-0.2,0.2-0.5,0.2
		c-1.5,0-2.6-0.1-3-0.1c-0.2,0-1.3,0.1-2.5,0.1c-0.3,0-0.5,0-0.5-0.2c0-0.1,0.2-0.2,0.4-0.2c0.3,0,0.7,0,1.1-0.1
		c0.6-0.2,0.7-0.8,0.7-2.8l0.2-13.6c0-0.5,0.2-0.8,0.4-0.8c0.3,0,0.6,0.4,1,0.8c0.3,0.3,3.8,3.9,7.2,7.3c1.6,1.6,4.7,4.8,5,5.2h0.1
		l-0.2-10.2c0-1.4-0.2-1.8-0.8-2c-0.3-0.1-0.9-0.1-1.2-0.1c-0.3,0-0.4-0.1-0.4-0.2c0-0.2,0.2-0.2,0.6-0.2c1.2,0,2.5,0.1,3,0.1
		c0.3,0,1.1-0.1,2.3-0.1c0.3,0,0.5,0,0.5,0.2c0,0.1-0.1,0.2-0.4,0.2c-0.2,0-0.4,0-0.7,0.1c-0.6,0.2-0.8,0.6-0.8,1.9l-0.3,14.5
		c0,0.5-0.2,0.7-0.4,0.7c-0.4,0-0.7-0.2-1-0.5c-1.5-1.4-4.4-4.2-6.8-6.6c-2.5-2.5-5-5.3-5.4-5.7h-0.1L40.9,116.4z"/>
	<path d="M62.2,108.9c0-3.5,0-4.1,0-4.9c-0.1-0.8-0.3-1-1-1.2c-0.2-0.1-0.6-0.1-0.9-0.1c-0.2,0-0.4-0.1-0.4-0.2s0.2-0.2,0.5-0.2
		c1.2,0,2.7,0.1,3.4,0.1c0.7,0,5.9,0,6.3,0c0.4,0,0.8-0.1,1-0.1c0.1,0,0.3-0.1,0.4-0.1c0.1,0,0.2,0.1,0.2,0.2c0,0.2-0.1,0.4-0.2,1.5
		c0,0.2-0.1,1.2-0.1,1.5c0,0.1-0.1,0.4-0.3,0.4c-0.2,0-0.2-0.1-0.2-0.3c0-0.2,0-0.6-0.2-0.8c-0.2-0.4-0.4-0.7-1.5-0.8
		c-0.4-0.1-3.2-0.1-3.6-0.1c-0.1,0-0.2,0.1-0.2,0.2v5.7c0,0.1,0,0.2,0.2,0.2c0.5,0,3.5,0,4.1-0.1c0.6-0.1,0.9-0.1,1.1-0.4
		c0.2-0.2,0.3-0.3,0.4-0.3c0.1,0,0.2,0.1,0.2,0.2s-0.1,0.5-0.2,1.7c-0.1,0.5-0.1,1.4-0.1,1.5c0,0.2,0,0.5-0.2,0.5
		c-0.2,0-0.2-0.1-0.2-0.2c0-0.2,0-0.5-0.1-0.8c-0.1-0.5-0.4-0.8-1.3-0.9c-0.4-0.1-3.1-0.1-3.6-0.1c-0.1,0-0.1,0.1-0.1,0.2v1.8
		c0,0.8,0,2.7,0,3.4c0.1,1.6,0.8,1.9,3.1,1.9c0.6,0,1.6,0,2.2-0.3c0.6-0.3,0.8-0.8,1-1.7c0.1-0.2,0.1-0.4,0.3-0.4
		c0.2,0,0.2,0.3,0.2,0.5c0,0.5-0.2,2.1-0.3,2.5c-0.2,0.6-0.4,0.6-1.2,0.6c-1.7,0-3.1,0-4.3-0.1c-1.1,0-2-0.1-2.7-0.1
		c-0.3,0-0.8,0-1.3,0c-0.6,0-1.1,0.1-1.6,0.1c-0.3,0-0.4-0.1-0.4-0.2c0-0.1,0.1-0.2,0.4-0.2c0.3,0,0.6,0,0.8-0.1
		c0.5-0.1,0.6-0.5,0.7-1.2c0.1-1,0.1-2.8,0.1-4.9V108.9z"/>
	<path d="M75.8,104.5c-0.3-0.8-0.5-1.4-0.8-1.6c-0.2-0.2-0.7-0.2-0.9-0.2c-0.2,0-0.4-0.1-0.4-0.2s0.2-0.2,0.5-0.2
		c1.2,0,2.5,0.1,2.7,0.1s1.3-0.1,2.7-0.1c0.3,0,0.5,0.1,0.5,0.2s-0.2,0.2-0.4,0.2c-0.2,0-0.4,0-0.6,0.1c-0.2,0.1-0.2,0.2-0.2,0.5
		c0,0.3,0.2,1.1,0.5,2.1c0.4,1.5,2.5,8.4,2.9,9.5h0.1l4.4-11.7c0.2-0.6,0.5-0.8,0.7-0.8c0.3,0,0.5,0.4,0.8,1.1l4.6,11.3H93
		c0.4-1.3,2.2-7.4,3-10c0.2-0.5,0.2-1,0.2-1.3c0-0.4-0.2-0.6-1.1-0.6c-0.2,0-0.4-0.1-0.4-0.2c0-0.2,0.2-0.2,0.6-0.2
		c1.2,0,2.3,0.1,2.5,0.1c0.2,0,1.2-0.1,1.9-0.1c0.3,0,0.4,0.1,0.4,0.2c0,0.2-0.1,0.3-0.3,0.3c-0.2,0-0.6,0-0.8,0.1
		c-0.6,0.2-0.8,1.1-1.3,2.4c-1.1,2.9-3.5,10.2-4.6,13.6c-0.3,0.8-0.4,1.1-0.7,1.1c-0.3,0-0.5-0.3-0.8-1.1l-4.7-11.3h-0.1
		c-0.4,1-3.5,9.1-4.5,11.2c-0.4,0.9-0.6,1.2-0.9,1.2c-0.3,0-0.4-0.2-0.6-0.8L75.8,104.5z"/>
	<path d="M103.8,113.8c-0.1,0-0.2,0-0.2,0.2l-1.2,3.1c-0.2,0.6-0.3,1.1-0.3,1.4c0,0.4,0.2,0.6,0.9,0.6h0.3c0.3,0,0.3,0.1,0.3,0.2
		c0,0.2-0.1,0.2-0.4,0.2c-0.8,0-1.8-0.1-2.6-0.1c-0.2,0-1.5,0.1-2.7,0.1c-0.3,0-0.4-0.1-0.4-0.2c0-0.1,0.1-0.2,0.3-0.2
		c0.2,0,0.5,0,0.7,0c1.1-0.2,1.5-0.9,1.9-2l6.1-14.4c0.3-0.6,0.4-0.9,0.7-0.9c0.3,0,0.4,0.2,0.7,0.7c0.6,1.3,4.4,10.7,5.9,14.1
		c0.9,2.1,1.6,2.4,2,2.5c0.3,0.1,0.6,0.1,0.9,0.1c0.2,0,0.3,0.1,0.3,0.2c0,0.2-0.1,0.2-1,0.2c-0.8,0-2.5,0-4.5-0.1
		c-0.4,0-0.7,0-0.7-0.2c0-0.1,0.1-0.2,0.3-0.2c0.2,0,0.3-0.2,0.2-0.5l-1.8-4.6c-0.1-0.1-0.1-0.2-0.2-0.2H103.8z M108.7,112.5
		c0.1,0,0.1-0.1,0.1-0.1l-2.2-5.8c0-0.1-0.1-0.2-0.1-0.2c-0.1,0-0.1,0.1-0.1,0.2l-2.2,5.8c-0.1,0.1,0,0.2,0.1,0.2H108.7z"/>
	<path d="M123.1,112.9c0,2.9,0,4.4,0.5,4.8c0.4,0.4,1.3,0.5,3.1,0.5c1.2,0,2.1,0,2.7-0.6c0.3-0.3,0.5-0.9,0.6-1.4
		c0-0.2,0.1-0.4,0.3-0.4c0.2,0,0.2,0.2,0.2,0.5c0,0.3-0.2,2-0.3,2.6c-0.2,0.5-0.3,0.6-1.5,0.6c-1.7,0-3,0-4.2-0.1
		c-1.2,0-2.1-0.1-3.1-0.1c-0.3,0-0.8,0-1.3,0c-0.6,0-1.1,0.1-1.6,0.1c-0.3,0-0.4-0.1-0.4-0.2c0-0.1,0.1-0.2,0.4-0.2
		c0.3,0,0.6,0,0.8-0.1c0.5-0.1,0.6-0.5,0.7-1.2c0.1-1,0.1-2.8,0.1-4.9v-4c0-3.5,0-4.1,0-4.9c-0.1-0.8-0.3-1-1-1.2
		c-0.2-0.1-0.5-0.1-0.8-0.1c-0.3,0-0.4-0.1-0.4-0.2s0.2-0.2,0.5-0.2c1.1,0,2.6,0.1,3.2,0.1c0.6,0,2.5-0.1,3.4-0.1
		c0.3,0,0.5,0.1,0.5,0.2s-0.1,0.2-0.4,0.2c-0.3,0-0.6,0-0.9,0.1c-0.6,0.1-0.8,0.4-0.9,1.2c-0.1,0.7-0.1,1.4-0.1,4.9V112.9z"/>
	<path d="M147.4,111.7c0,2.6,0,4.6,0.1,5.8c0.1,0.8,0.2,1.4,1,1.5c0.4,0.1,1,0.1,1.3,0.1c0.3,0,0.4,0.1,0.4,0.2
		c0,0.2-0.2,0.3-0.6,0.3c-1.7,0-3.3-0.1-4-0.1c-0.7,0-2.4,0.1-3.4,0.1c-0.4,0-0.6-0.1-0.6-0.3c0-0.1,0.1-0.2,0.4-0.2
		c0.4,0,0.7-0.1,1-0.1c0.5-0.1,0.7-0.7,0.8-1.5c0.1-1.1,0.1-3.2,0.1-5.8V107c0-4.1,0-4.9-0.1-5.7c-0.1-0.9-0.3-1.3-1.1-1.5
		c-0.2-0.1-0.7-0.1-1-0.1c-0.3,0-0.4-0.1-0.4-0.2c0-0.2,0.2-0.3,0.6-0.3c0.7,0,1.5,0,2.1,0c0.7,0,1.3,0.1,1.7,0.1c1,0,6.4,0,7,0
		c0.5,0,0.8,0,1.1-0.1c0.2-0.1,0.3-0.2,0.4-0.2c0.1,0,0.2,0.1,0.2,0.2c0,0.2-0.1,0.5-0.2,1.2c0,0.3-0.1,1.9-0.1,2.2
		c0,0.2-0.1,0.4-0.3,0.4c-0.2,0-0.2-0.1-0.3-0.4c0-0.2,0-0.6-0.2-1c-0.2-0.4-0.7-0.8-1.7-0.8l-4.1-0.1c-0.2,0-0.2,0.1-0.2,0.4v6.7
		c0,0.2,0,0.2,0.2,0.2l3.4,0c0.4,0,0.8,0,1.2,0c0.5,0,0.9-0.1,1.1-0.5c0.1-0.2,0.2-0.3,0.3-0.3c0.1,0,0.2,0.1,0.2,0.2
		c0,0.2-0.1,0.8-0.2,1.7c-0.1,0.5-0.1,1.8-0.1,2c0,0.2,0,0.5-0.3,0.5c-0.2,0-0.2-0.2-0.2-0.4c0-0.2-0.1-0.5-0.2-0.8
		c-0.1-0.4-0.5-0.9-1.3-1c-0.7-0.1-3.5-0.1-3.9-0.1c-0.1,0-0.2,0.1-0.2,0.2V111.7z"/>
	<path d="M158,110.9c0-3.9,2.7-9,9.7-9c5.9,0,9.5,3.3,9.5,8.6s-3.8,9.4-9.7,9.4C160.7,119.9,158,115,158,110.9z M173.8,111.3
		c0-5.1-3-8.2-6.7-8.2c-2.6,0-5.6,1.4-5.6,7.1c0,4.7,2.6,8.4,7,8.4C170.1,118.6,173.8,117.8,173.8,111.3z"/>
	<path d="M181.9,108.9c0-3.5,0-4.1,0-4.9c-0.1-0.8-0.3-1-1-1.2c-0.2-0.1-0.6-0.1-0.9-0.1c-0.3,0-0.4-0.1-0.4-0.2s0.2-0.2,0.5-0.2
		c1.2,0,2.8,0.1,3.5,0.1c0.6,0,2.1-0.1,3-0.1c0.3,0,0.5,0.1,0.5,0.2s-0.1,0.2-0.4,0.2c-0.3,0-0.4,0-0.7,0.1
		c-0.6,0.1-0.8,0.4-0.8,1.2c-0.1,0.7-0.1,1.4-0.1,4.9v3.2c0,3.3,0.6,4.6,1.8,5.6c1,0.8,2.1,0.9,2.9,0.9c1,0,2.2-0.3,3.1-1.2
		c1.3-1.2,1.3-3.2,1.3-5.6v-2.9c0-3.5,0-4.1-0.1-4.9c-0.1-0.8-0.2-1-1-1.2c-0.2-0.1-0.6-0.1-0.8-0.1c-0.3,0-0.4-0.1-0.4-0.2
		s0.2-0.2,0.5-0.2c1.2,0,2.7,0.1,2.8,0.1c0.3,0,1.8-0.1,2.7-0.1c0.3,0,0.5,0.1,0.5,0.2s-0.1,0.2-0.4,0.2c-0.3,0-0.4,0-0.7,0.1
		c-0.6,0.1-0.8,0.4-0.8,1.2c0,0.7-0.1,1.4-0.1,4.9v2.5c0,2.6-0.3,5.3-2.2,6.9c-1.6,1.4-3.4,1.6-4.9,1.6c-1.2,0-3.6-0.1-5.3-1.6
		c-1.2-1.1-2.1-2.8-2.1-6.1V108.9z"/>
	<path d="M204.4,116.4c0.1,1.8,0.3,2.3,0.8,2.5c0.4,0.1,0.8,0.2,1.2,0.2c0.3,0,0.4,0.1,0.4,0.2c0,0.2-0.2,0.2-0.5,0.2
		c-1.5,0-2.6-0.1-3-0.1c-0.2,0-1.3,0.1-2.5,0.1c-0.3,0-0.5,0-0.5-0.2c0-0.1,0.2-0.2,0.4-0.2c0.3,0,0.7,0,1.1-0.1
		c0.6-0.2,0.7-0.8,0.7-2.8l0.2-13.6c0-0.5,0.2-0.8,0.4-0.8c0.3,0,0.6,0.4,1,0.8c0.3,0.3,3.8,3.9,7.2,7.3c1.6,1.6,4.7,4.8,5,5.2h0.1
		l-0.2-10.2c0-1.4-0.2-1.8-0.8-2c-0.3-0.1-0.9-0.1-1.2-0.1c-0.3,0-0.4-0.1-0.4-0.2c0-0.2,0.2-0.2,0.6-0.2c1.2,0,2.5,0.1,3,0.1
		c0.3,0,1.1-0.1,2.3-0.1c0.3,0,0.5,0,0.5,0.2c0,0.1-0.1,0.2-0.4,0.2c-0.2,0-0.4,0-0.7,0.1c-0.6,0.2-0.8,0.6-0.8,1.9l-0.3,14.5
		c0,0.5-0.2,0.7-0.4,0.7c-0.4,0-0.7-0.2-1-0.5c-1.5-1.4-4.4-4.2-6.8-6.6c-2.5-2.5-5-5.3-5.4-5.7h-0.1L204.4,116.4z"/>
	<path d="M225.7,108.9c0-3.5,0-4.1,0-4.9c-0.1-0.8-0.3-1-1-1.2c-0.2-0.1-0.6-0.1-0.9-0.1c-0.2,0-0.4-0.1-0.4-0.2s0.2-0.2,0.5-0.2
		c1.2,0,2.7,0.1,3.4,0.1c0.7,0,2.4-0.1,3.8-0.1c2.9,0,6.8,0,9.4,2.6c1.2,1.2,2.2,3.1,2.2,5.8c0,2.9-1.2,5.1-2.5,6.4
		c-1.1,1.1-3.5,2.7-7.8,2.7c-0.8,0-1.8-0.1-2.8-0.1c-0.9-0.1-1.8-0.1-2.4-0.1c-0.3,0-0.8,0-1.3,0c-0.6,0-1.1,0.1-1.6,0.1
		c-0.3,0-0.4-0.1-0.4-0.2c0-0.1,0.1-0.2,0.4-0.2c0.3,0,0.6,0,0.8-0.1c0.5-0.1,0.6-0.5,0.7-1.2c0.1-1,0.1-2.8,0.1-4.9V108.9z
		 M228.8,111.4c0,2.4,0,4.2,0.1,4.6c0,0.6,0.1,1.4,0.3,1.6c0.3,0.4,1.2,0.9,3,0.9c2.1,0,3.7-0.4,5.1-1.6c1.5-1.3,2-3.3,2-5.7
		c0-2.9-1.1-4.8-2.2-5.7c-2.1-1.9-4.7-2.2-6.5-2.2c-0.5,0-1.2,0.1-1.4,0.2c-0.2,0.1-0.3,0.2-0.3,0.5c0,0.8,0,2.7,0,4.5V111.4z"/>
	<path d="M249.2,113.8c-0.1,0-0.2,0-0.2,0.2l-1.2,3.1c-0.2,0.6-0.3,1.1-0.3,1.4c0,0.4,0.2,0.6,0.9,0.6h0.3c0.3,0,0.3,0.1,0.3,0.2
		c0,0.2-0.1,0.2-0.4,0.2c-0.8,0-1.8-0.1-2.6-0.1c-0.2,0-1.5,0.1-2.7,0.1c-0.3,0-0.4-0.1-0.4-0.2c0-0.1,0.1-0.2,0.3-0.2
		c0.2,0,0.5,0,0.7,0c1.1-0.2,1.5-0.9,1.9-2l6.1-14.4c0.3-0.6,0.4-0.9,0.7-0.9c0.3,0,0.4,0.2,0.7,0.7c0.6,1.3,4.4,10.7,5.9,14.1
		c0.9,2.1,1.6,2.4,2,2.5c0.3,0.1,0.6,0.1,0.9,0.1c0.2,0,0.3,0.1,0.3,0.2c0,0.2-0.1,0.2-1,0.2c-0.8,0-2.5,0-4.5-0.1
		c-0.4,0-0.7,0-0.7-0.2c0-0.1,0.1-0.2,0.3-0.2c0.2,0,0.3-0.2,0.2-0.5l-1.8-4.6c-0.1-0.1-0.1-0.2-0.2-0.2H249.2z M254.1,112.5
		c0.1,0,0.1-0.1,0.1-0.1l-2.2-5.8c0-0.1-0.1-0.2-0.1-0.2c-0.1,0-0.1,0.1-0.1,0.2l-2.2,5.8c-0.1,0.1,0,0.2,0.1,0.2H254.1z"/>
	<path d="M266.7,103.6l-3.5,0.1c-1.3,0-1.9,0.2-2.2,0.7c-0.2,0.3-0.3,0.6-0.4,0.8c-0.1,0.2-0.1,0.3-0.3,0.3s-0.2-0.1-0.2-0.4
		c0-0.4,0.4-2.6,0.5-2.8c0.1-0.3,0.1-0.4,0.3-0.4c0.2,0,0.4,0.2,1,0.3c0.7,0.1,1.6,0.1,2.3,0.1h9.4c0.7,0,1.2-0.1,1.6-0.1
		c0.4-0.1,0.6-0.1,0.6-0.1c0.2,0,0.2,0.1,0.2,0.5c0,0.5-0.1,2.2-0.1,2.8c0,0.2-0.1,0.4-0.2,0.4c-0.2,0-0.2-0.1-0.3-0.5l0-0.2
		c-0.1-0.6-0.7-1.3-2.7-1.3l-2.9-0.1v9.3c0,2.1,0,3.9,0.1,4.9c0.1,0.6,0.2,1.1,0.9,1.2c0.3,0.1,0.8,0.1,1.2,0.1
		c0.3,0,0.4,0.1,0.4,0.2c0,0.2-0.2,0.2-0.4,0.2c-1.5,0-3.1-0.1-3.8-0.1c-0.5,0-2.1,0.1-3,0.1c-0.3,0-0.4-0.1-0.4-0.2
		c0-0.1,0.1-0.2,0.4-0.2c0.3,0,0.6,0,0.8-0.1c0.5-0.1,0.6-0.5,0.7-1.2c0.1-1,0.1-2.8,0.1-4.9V103.6z"/>
	<path d="M280.9,108.9c0-3.5,0-4.1,0-4.9c-0.1-0.8-0.3-1.1-0.8-1.2c-0.3-0.1-0.6-0.1-0.8-0.1c-0.2,0-0.4-0.1-0.4-0.3
		c0-0.1,0.2-0.2,0.6-0.2c0.9,0,2.5,0.1,3.1,0.1c0.6,0,2.1-0.1,3-0.1c0.3,0,0.5,0.1,0.5,0.2c0,0.2-0.1,0.3-0.4,0.3
		c-0.2,0-0.4,0-0.7,0.1c-0.6,0.1-0.8,0.4-0.9,1.2c-0.1,0.7-0.1,1.4-0.1,4.9v4c0,2.2,0,4,0.1,5c0.1,0.6,0.2,1,0.9,1.1
		c0.3,0.1,0.8,0.1,1.2,0.1c0.3,0,0.4,0.1,0.4,0.2c0,0.2-0.2,0.2-0.4,0.2c-1.5,0-3.1-0.1-3.8-0.1c-0.5,0-2.1,0.1-3,0.1
		c-0.3,0-0.4-0.1-0.4-0.2c0-0.1,0.1-0.2,0.4-0.2c0.3,0,0.6,0,0.8-0.1c0.5-0.1,0.6-0.4,0.7-1.1c0.1-0.9,0.1-2.8,0.1-5V108.9z"/>
	<path d="M289.4,110.9c0-3.9,2.7-9,9.7-9c5.9,0,9.5,3.3,9.5,8.6s-3.8,9.4-9.7,9.4C292.1,119.9,289.4,115,289.4,110.9z M305.2,111.3
		c0-5.1-3-8.2-6.7-8.2c-2.6,0-5.6,1.4-5.6,7.1c0,4.7,2.6,8.4,7,8.4C301.5,118.6,305.2,117.8,305.2,111.3z"/>
	<path d="M314.9,116.4c0.1,1.8,0.3,2.3,0.8,2.5c0.4,0.1,0.8,0.2,1.2,0.2c0.3,0,0.4,0.1,0.4,0.2c0,0.2-0.2,0.2-0.5,0.2
		c-1.5,0-2.6-0.1-3-0.1c-0.2,0-1.3,0.1-2.5,0.1c-0.3,0-0.5,0-0.5-0.2c0-0.1,0.2-0.2,0.4-0.2c0.3,0,0.7,0,1.1-0.1
		c0.6-0.2,0.7-0.8,0.7-2.8l0.2-13.6c0-0.5,0.2-0.8,0.4-0.8c0.3,0,0.6,0.4,1,0.8c0.3,0.3,3.8,3.9,7.2,7.3c1.6,1.6,4.7,4.8,5,5.2h0.1
		l-0.2-10.2c0-1.4-0.2-1.8-0.8-2c-0.3-0.1-0.9-0.1-1.2-0.1c-0.3,0-0.4-0.1-0.4-0.2c0-0.2,0.2-0.2,0.6-0.2c1.2,0,2.5,0.1,3,0.1
		c0.3,0,1.1-0.1,2.3-0.1c0.3,0,0.5,0,0.5,0.2c0,0.1-0.1,0.2-0.4,0.2c-0.2,0-0.4,0-0.7,0.1c-0.6,0.2-0.8,0.6-0.8,1.9l-0.3,14.5
		c0,0.5-0.2,0.7-0.4,0.7c-0.4,0-0.7-0.2-1-0.5c-1.5-1.4-4.4-4.2-6.8-6.6c-2.5-2.5-5-5.3-5.4-5.7h-0.1L314.9,116.4z"/>
</g>
</svg>
