<?xml version="1.0" encoding="utf-8"?>
<!-- Generator: Adobe Illustrator 17.1.0, SVG Export Plug-In . SVG Version: 6.00 Build 0)  -->
<!DOCTYPE svg PUBLIC "-//W3C//DTD SVG 1.1//EN" "http://www.w3.org/Graphics/SVG/1.1/DTD/svg11.dtd">
<svg version="1.1" id="圖層_1" xmlns="http://www.w3.org/2000/svg" xmlns:xlink="http://www.w3.org/1999/xlink" x="0px" y="0px"
	 viewBox="0 0 40 23" enable-background="new 0 0 40 23" xml:space="preserve">
<g>
	<path fill="#FFFFFF" d="M2.2,10.5h2.1c0.7,0,1.1,0.3,1.1,1v4.1c0,0.6,0.3,1.1,1,1.5c0.8,0.5,1.8,0.7,3.2,0.7h9
		c0.5,0,0.7,0.3,0.7,0.8s-0.2,0.7-0.7,0.7h-8.4c-1,0-2-0.1-2.8-0.3c-0.8-0.2-1.5-0.5-2.1-1L5,17.9c-0.1,0-0.2,0.1-0.3,0.2
		c-0.6,0.5-1.3,1-2.1,1.3c-0.4,0.2-0.7,0.3-0.8,0.3C1.3,19.7,1,19.4,1,19c0-0.4,0.2-0.6,0.6-0.7c0.9-0.3,1.5-0.6,1.9-0.9
		s0.6-0.8,0.6-1.6v-3.4c0-0.2-0.1-0.3-0.3-0.3H2.2c-0.5,0-0.7-0.2-0.7-0.7S1.7,10.5,2.2,10.5z M2,5.8c0.1,0,0.3,0.1,0.5,0.2
		c0.4,0.2,0.8,0.5,1.1,0.7C4.1,7,4.6,7.4,5,7.8c0.2,0,0.3,0.1,0.3,0.2c0,0.5-0.2,0.7-0.6,0.7c-0.3,0-0.5,0-0.7-0.2
		C3.4,8.1,3,7.8,2.6,7.6C2.3,7.4,2,7.2,1.6,7C1.4,6.8,1.3,6.6,1.3,6.5C1.3,6,1.6,5.8,2,5.8z M2.6,1.9c0.1,0,0.3,0.1,0.5,0.2
		c0.4,0.2,0.7,0.4,1.1,0.7c0.5,0.3,1,0.6,1.4,1.1c0.2,0,0.2,0.1,0.2,0.2c0,0.5-0.2,0.7-0.6,0.7C5,4.8,4.7,4.7,4.5,4.6
		C4,4.2,3.6,3.9,3.2,3.7c-0.3-0.2-0.7-0.4-1-0.6C2,2.9,1.9,2.7,1.9,2.6C1.9,2.1,2.2,1.9,2.6,1.9z M11.4,6.7h-4C7,6.7,6.8,6.5,6.8,6
		c0-0.4,0.2-0.6,0.6-0.6H13c0.4-0.4,0.7-0.8,1-1.1c0.6-0.8,1.1-1.6,1.6-2.4c0.1-0.2,0.3-0.3,0.6-0.3c0.2,0,0.4,0.1,0.5,0.2
		c0.1,0.1,0.2,0.3,0.2,0.5s-0.1,0.4-0.2,0.6c-0.4,0.6-0.9,1.3-1.4,1.8c-0.2,0.3-0.5,0.5-0.7,0.7h2.7C17.8,5.4,18,5.6,18,6
		c0,0.5-0.2,0.7-0.6,0.7h-4.6v2.1c0,0.2,0,0.4,0,0.6h5c0.4,0,0.6,0.2,0.6,0.6c0,0.5-0.2,0.7-0.6,0.7h-4.5c0.3,0.6,0.6,1.2,1,1.6
		c0.4,0.5,0.9,1,1.5,1.5s1.4,1,2.3,1.5c0.2,0.2,0.4,0.3,0.4,0.5c0,0.5-0.3,0.8-0.8,0.9c-0.2,0-0.5-0.1-0.8-0.2
		c-1.1-0.6-2.1-1.3-2.8-2.1c-0.5-0.5-1-1.1-1.3-1.7c-0.2-0.3-0.3-0.6-0.4-0.9c-0.3,0.9-0.8,1.8-1.6,2.6c-0.7,0.8-1.7,1.5-3,2.2
		C7.5,16.9,7.3,17,7.3,17c-0.5,0-0.7-0.3-0.7-0.8c0-0.3,0.1-0.5,0.4-0.6c1.3-0.7,2.2-1.4,2.8-2.1c0.6-0.7,1-1.4,1.3-2.2
		c0.1-0.2,0.1-0.4,0.1-0.5H6.9c-0.4,0-0.6-0.2-0.6-0.7c0-0.4,0.2-0.6,0.6-0.6h4.5c0-0.2,0-0.4,0-0.6V6.7z M8.7,1.5
		c0.1,0,0.3,0.1,0.5,0.2C9.8,2.3,10.4,3,11,3.8c0,0.2,0.1,0.3,0.1,0.5c0,0.5-0.3,0.7-0.8,0.7C10.2,5,10,4.9,9.9,4.8
		C9.3,4.1,8.7,3.4,8,2.7C7.9,2.5,7.9,2.4,7.9,2.3C7.9,1.8,8.1,1.5,8.7,1.5z"/>
	<path fill="#FFFFFF" d="M23,2.6c0.5,0,0.7,0.2,0.7,0.7v4.3c0,0.5,0.3,0.8,0.8,0.8h4.9V2.2c0-0.5,0.2-0.7,0.7-0.7s0.8,0.2,0.8,0.7
		v6.2h4.7c0.5,0,0.8-0.3,0.8-0.8V3.3c0-0.5,0.2-0.7,0.7-0.7s0.7,0.2,0.7,0.7v4.9c0,1.1-0.5,1.6-1.6,1.6h-5.3v7.5h5.4
		c0.5,0,0.8-0.3,0.8-0.8v-4.4c0-0.5,0.2-0.7,0.7-0.7s0.8,0.2,0.8,0.7v5.1c0,1.1-0.5,1.6-1.6,1.6H23.1c-1,0-1.5-0.5-1.5-1.6v-5.1
		c0-0.5,0.2-0.7,0.7-0.7s0.8,0.2,0.8,0.7v4.4c0,0.5,0.2,0.8,0.7,0.8h5.5V9.8h-5.5c-1,0-1.6-0.5-1.6-1.6V3.3
		C22.3,2.8,22.5,2.6,23,2.6z"/>
</g>
</svg>
