<?xml version="1.0" encoding="utf-8"?>
<!-- Generator: Adobe Illustrator 17.1.0, SVG Export Plug-In . SVG Version: 6.00 Build 0)  -->
<!DOCTYPE svg PUBLIC "-//W3C//DTD SVG 1.1//EN" "http://www.w3.org/Graphics/SVG/1.1/DTD/svg11.dtd">
<svg version="1.1" id="圖層_1" xmlns="http://www.w3.org/2000/svg" xmlns:xlink="http://www.w3.org/1999/xlink" x="0px" y="0px"
	 viewBox="0 0 740 732" enable-background="new 0 0 740 732" xml:space="preserve">
<line fill="#1B1464" stroke="#1B1464" stroke-width="10" stroke-miterlimit="10" x1="704" y1="423" x2="704" y2="455"/>
<line fill="#1B1464" stroke="#1B1464" stroke-width="10" stroke-miterlimit="10" x1="512" y1="423" x2="512" y2="455"/>
<line fill="#1B1464" stroke="#1B1464" stroke-width="10" stroke-miterlimit="10" x1="226" y1="420" x2="226" y2="452"/>
<line fill="#1B1464" stroke="#1B1464" stroke-width="10" stroke-miterlimit="10" x1="31" y1="420" x2="31" y2="452"/>
<path fill="#1B1464" d="M166,719c0,6.6-4.9,12-11,12h-40.4c-6.1,0-10.5-5.4-10.5-12V465c0-6.6,4.5-12,10.5-12H155
	c6.1,0,11,5.4,11,12V719z"/>
<line fill="#8C6239" stroke="#1B1464" stroke-width="10" stroke-miterlimit="10" x1="608" y1="457" x2="608" y2="83"/>
<line fill="#8C6239" stroke="#1B1464" stroke-width="10" stroke-miterlimit="10" x1="372" y1="457" x2="372" y2="83"/>
<line fill="#8C6239" stroke="#1B1464" stroke-width="10" stroke-miterlimit="10" x1="130" y1="457" x2="130" y2="85"/>
<path fill="#1B1464" d="M472,73c0,6.6-6,12-13.5,12h-172C279,85,273,79.6,273,73V17c0-6.6,6-12,13.5-12h172C466,5,472,10.4,472,17
	V73z"/>
<path fill="#1B1464" d="M237,73c0,6.6-6,12-13.5,12h-172C44,85,38,79.6,38,73V17c0-6.6,6-12,13.5-12h172C231,5,237,10.4,237,17V73z"
	/>
<path fill="#FF7BAC" d="M231,68c0,6.6-6,12-13.5,12h-172C38,80,32,74.6,32,68V12c0-6.6,6-12,13.5-12h172C225,0,231,5.4,231,12V68z"
	/>
<g>
	<path d="M69.2,33.7c0.9-1.3,1.6-2.4,2-3.3l1.6,0.9c-0.4,1-1.1,2.2-2,3.4L69.2,33.7z M77.5,29.8c0,0.2-0.1,0.3-0.3,0.3h-7
		c-0.1,0-0.2-0.1-0.2-0.3V16.2c0-0.2,0.1-0.3,0.2-0.3h7c0.2,0,0.3,0.1,0.3,0.3V29.8z M71.7,20.1h4.1v-2.4l-0.1-0.1h-4l-0.1,0.1V20.1
		z M71.7,24.3h4.1v-2.5h-4.1V24.3z M75.8,26h-4.1v2.3l0.1,0.1h4c0.1,0,0.1,0,0.1-0.1V26z M76.7,34.6c-0.6-1.3-1.3-2.3-1.8-3.1
		l1.5-0.9c0.7,0.9,1.3,2,1.9,3.2L76.7,34.6z M78.3,29.9c2.7-2.9,4.7-6.1,5.9-9.7h-5.5v-1.8h6.2v-3h1.8v3h1.9v1.8h-1.9v12.3
		c0,1.6-1.3,2.3-3,2.3c-0.9,0-2-0.2-3.4-0.5v-1.8l2.1,0.5l1.4,0.1c0.1,0,1.1-0.1,1.1-1V23c-1.4,3.2-3.1,5.9-5.1,7.8L78.3,29.9z"/>
	<path d="M92.5,33.9v0.8h-1.7V16.2c0-0.4,0.2-0.6,0.5-0.6h17.2c0.4,0,0.6,0.2,0.6,0.6v18.5h-1.7v-0.8H92.5z M97.7,32.3
		c-0.7-0.8-1.3-1.4-1.8-1.8l0.9-0.9h-3.5v-1.4h9.8v-0.9l-9.3,0.4l-0.2-1.6l5.6-0.1V25H94c-0.1,0-0.2-0.1-0.2-0.2v-4.7
		c0-0.1,0-0.2,0.2-0.2h5.1v-0.7h-5.7v-1.3h5.7v-0.7h-6.4c-0.2,0-0.3,0.1-0.2,0.2v14.9H97.7z M99.1,21.8v-0.7h-3.7c0,0.1,0,0.1,0,0.7
		H99.1z M99.1,23.8V23h-3.8v0.7l0,0.1H99.1z M97.2,29.6c0.5,0.4,1,1,1.6,1.7l-1.1,1h4.4l-1.4-0.3v-1.7c0.6,0.2,1.4,0.4,1.8,0.4
		c0.1,0,0.2-0.1,0.4-0.2c0.2-0.1,0.2-0.3,0.2-0.9H97.2z M104.7,29.6v0.8c0,1-0.5,1.6-1.4,1.9h4.1V17.4c0-0.1-0.1-0.2-0.3-0.2h-6.4
		v0.7h5.6v1.3h-5.6v0.7h5.1c0.1,0,0.2,0.1,0.2,0.2v4.7c0,0.2-0.1,0.2-0.4,0.2c0.5,0.5,1,1.2,1.5,2l-1.2,0.9l-0.5-0.7l-0.8,0.1v0.9
		h2.2v1.4H104.7z M100.7,21.1v0.7h3.7v-0.6l-0.1-0.1H100.7z M100.7,23v0.8h3.7l0.1-0.1V23H100.7z M104,25.4l0.5-0.4h-3.7v0.9
		l3.5-0.1L104,25.4z"/>
	<path d="M111.2,33.8c1.8-2.2,3.1-4.6,3.7-7.4l1.7,0.4c-0.9,3.5-2.2,6.1-3.7,7.9L111.2,33.8z M115,24.7c-1.4-1-2.6-1.8-3.5-2.3
		l0.9-1.5c1.1,0.5,2.3,1.3,3.6,2.3L115,24.7z M115.5,19.6c-1.5-1.2-2.8-2.1-3.8-2.6l1-1.5c1.2,0.6,2.4,1.5,3.9,2.7L115.5,19.6z
		 M128.4,33.2l-12.1,1.1l-0.5-1.8l2.2-0.2c1.3-2.2,2.5-4.5,3.6-7h-4.5v-1.8h5.4v-3.8h-5v-1.8h5v-2.7h1.8v2.7h5.4v1.8h-5.4v3.8h6.2
		v1.8h-6.8c-0.8,1.9-1.9,4.2-3.4,6.8l7.4-0.6c-0.7-1.4-1.3-2.5-1.9-3.4l1.6-0.9c1.2,1.7,2.3,3.9,3.4,6.7l-1.6,0.8L128.4,33.2z"/>
	<path d="M147.5,32.2c-2.7-2.8-4.5-5.8-5.5-9.1c-1.4,5-3.7,8.5-8.2,11.5l-1.4-1.3c5.6-3.1,8.5-8.8,8.7-16.8v-1.2h1.8v2h0
		c0,4.6,1.3,10.1,8.7,16.3l-1.6,1.1L147.5,32.2z"/>
	<path d="M153.7,32.9c2.7,0,5.2-0.3,7.4-0.9c-0.9-0.7-1.9-1.5-2.7-2.5c-1.5,0.9-2.6,1.5-3.3,1.7l-1-1.6l0.6-0.2c2.3-0.9,4-2.1,5-3.7
		c-0.3-0.3-0.4-0.7-0.4-1v-3.2h-3.8c-0.1,0-0.2,0-0.2,0.1V24h-1.6v-3.8c0-0.2,0.1-0.3,0.3-0.3h3.7c-0.4-0.6-0.8-1.1-1.2-1.4l1-0.8
		l-2.4,0l-0.1-1.7c1.4,0,2.7,0,4,0c5,0,8.9-0.3,11.8-0.7l0.2,1.7c-1.3,0.3-3.4,0.4-6.3,0.6l-1.7,0.1c0.3,0.5,0.7,1.1,1.1,1.8
		l-0.9,0.5h3.2c0.7-0.7,1.5-1.6,2.3-2.6l1.2,1.2l-1.1,1.3l-0.1,0.1h2.7l1.5,0.8c0,0.9-0.2,2.1-0.7,3.4l-1.6-0.4
		c0.2-0.9,0.3-1.4,0.3-1.7c0-0.4-0.1-0.4-0.2-0.4h-9.8v2.3c0,0.5,0.4,0.9,0.9,0.9h3.7c0.1,0,0.3-0.1,0.5-0.2l0.1-0.2l0.2-1.4
		l1.6,0.4c-0.2,1.4-0.4,2.2-0.5,2.3c-0.4,0.4-0.8,0.7-1.2,0.7h-5c-0.3,0.6-0.5,1-0.7,1.2h8.5l1.1,0.9c0.1,0,0.1,0.1,0.1,0.1
		c0,0,0,0.1-0.1,0.1c-0.9,1.2-2.7,2.5-5.2,3.7c1.6,0.4,3.3,0.7,5.2,0.7c0.8,0,1.5,0,2.4-0.1l-0.2,1.8c-0.6,0.1-1.2,0.1-1.9,0.1
		c-2.7,0-5.2-0.5-7.5-1.6c-2.6,0.9-5.6,1.5-8.9,1.6L153.7,32.9z M158.6,23.5c-0.9,1.6-2,2.8-3.2,3.6c-0.3-0.6-0.6-1.1-1-1.4
		c1-0.7,2-1.8,2.7-3.2L158.6,23.5z M158.6,19.9h3.9c-0.4-0.7-0.7-1.2-1-1.6l1.1-0.7l-4.6,0.1c0.4,0.5,0.9,1.1,1.3,1.8L158.6,19.9z
		 M160.2,29.1c0.6,0.7,1.4,1.6,2.7,2.2c2-0.9,3.4-1.6,4.2-2.1c0-0.1-0.1-0.1-0.3-0.1H160.2z M163.9,24.3c-0.4-0.4-0.9-0.9-1.6-1.4
		l1.2-1.1l1.6,1.6L163.9,24.3z M170.4,26.9c-0.7-1.4-1.5-2.6-2.5-3.8l1.4-0.9c1.1,1.5,2,2.8,2.5,3.9L170.4,26.9z"/>
	<path d="M174.2,32c1-5.6,1.5-10.1,1.4-13.5l1.8,0.1c0.1,3.8-0.4,8.3-1.4,13.5L174.2,32z M179.3,16.7h1.9v14.7c0,0.7,0,1.2,1.2,1.2
		h4.5c1.6,0,1.6-1.1,1.6-2.5c0-0.6,0-1.4,0-2.5l1.8,0.3c0,0.8,0,1.6,0,2.2c0,2.5-0.2,3.1-0.6,3.6c-0.6,0.7-0.9,0.8-2.2,0.8h-5.9
		c-1.6,0-2.3-1.1-2.2-2.8V16.7z M185.1,27.9c-0.5-5.2-1.3-9.3-2.2-12.3l1.8-0.4c1,3.3,1.8,7.5,2.2,12.4L185.1,27.9z M191.9,31.8
		c-0.6-5.8-1.4-10.4-2.5-13.8l1.7-0.4c1.2,3.7,2.1,8.3,2.6,13.8L191.9,31.8z"/>
	<path d="M52.9,48.1h-1.4c-0.6,1.1-1.3,2-2,2.7l-1.4-1c1.3-1.3,2.2-2.8,2.8-4.5l1.6,0.6l-0.2,0.5h5.2v1.6h-2.8
		c0.2,0.6,0.4,1.2,0.5,1.8l-1.6,0.3L52.9,48.1z M48.3,62.6c2.9-0.7,5.5-1.9,7.7-3.5h-5.1l0,0.5L49,59.4l0.5-4.8
		c0-0.3,0.2-0.4,0.5-0.5h7.2v-1.7h-7.3v-1.7h16c0.1,0,0.5,0,0.6,0.6v4.9h-1.8v-0.3H59v1.6h7.7c0.3,0,0.5,0.2,0.5,0.5
		c0,4.1-0.3,5.1-1,5.6C65.4,64,64.6,64,64.3,64c-0.7,0-1.7-0.1-2.9-0.3l0-1.8c1.3,0.3,2.2,0.5,2.9,0.5c0.9,0,1.2,0,1.2-2.6v-0.5
		c0-0.1-0.1-0.1-0.3-0.1H59v5.8h-1.8v-4.7c-2.9,2.1-5.6,3.5-8.1,4.1L48.3,62.6z M57.2,57.4v-1.6h-5.8c-0.1,0-0.2,0-0.3,0.1L51,57.4
		H57.2z M61.7,48.1H60c-0.5,0.9-1,1.7-1.6,2.3l-1.5-0.9c1.2-1.2,2-2.6,2.4-4.1l1.6,0.5l-0.2,0.6h6.7v1.6h-4c0.1,0.1,0.4,0.7,0.7,1.7
		l-1.6,0.4L61.7,48.1z M59,52.4v1.7h5.7v-1.5c0-0.1-0.1-0.2-0.3-0.2H59z"/>
	<path d="M69.5,61.6h18.9v2H69.5V61.6z M70.6,46.6h16.8v2H70.6V46.6z"/>
	<path d="M96,63.8v1h-1.8v-7.3c-0.9,0.8-1.8,1.4-2.6,1.9l-1.3-1.4c1.9-1.1,3.7-2.4,5.1-3.8h-4.7v-1.7h6.1l0.8-1.3h-5.6v-1.7h6.4
		l0.4-1.1h-7.6v-1.7h8l0.2-1.3l1.8,0.3l-0.2,1.1h8.2v1.7h-8.7l-0.3,1.1h8.1v1.7h-5.4l0.7,1.3h6v1.7h-4.8c1.3,1.5,3,2.8,5,3.9
		l-1.3,1.4c-1-0.6-1.8-1.3-2.7-2v7.3h-1.8v-1H96z M96,59h7.9v-1.2c0-0.2-0.1-0.3-0.3-0.3h-7.4c-0.2,0-0.3,0.1-0.3,0.3V59z
		 M103.9,60.7H96v1.4h7.9V60.7z M96,55.8h7.9c-0.4-0.4-0.9-1-1.3-1.7h-5.1L96,55.8z M101.4,52.4l-0.7-1.3h-1.3l-0.7,1.3H101.4z"/>
	<path d="M111.3,63.3c3.1-1,5.9-2.5,8.2-4.3c-2.2-2.2-3.7-5.3-4.6-9.2h-3.5v-1.9h8.6v-2.3h1.8v2.3h8.5v1.9h-3.2
		c-1,3.8-2.7,6.9-5,9.3c2.5,1.9,5.3,3.4,8.5,4.3l-1.2,1.6c-3.4-1.1-6.3-2.7-8.6-4.7l-2.1,1.5c-1.4,1-3.5,2-6.3,3.2L111.3,63.3z
		 M116.8,49.7c0.4,1.7,0.8,3.2,1.4,4.4c0.7,1.4,1.6,2.7,2.6,3.8l0.5-0.5c1.9-2,3.3-4.6,4-7.7H116.8z"/>
	<path d="M137.3,59.4l-1.2-1.7h0.9l1.5-1.5l0-0.2l-0.1-0.1h-2c-1,0.8-2,1.5-3.1,2.1l-1.1-1.3c2.1-1.2,3.9-2.5,5.5-4h-5.3v-1.6h3.9
		V49H133v-1.6h3.2v-1.9h1.7v1.9h3.2v1l1.3-2.3l1.4,0.8c-0.8,1.4-1.7,2.9-2.7,4.3h1.6v1.6h-3l-0.6,0.7l-1.1,1.1h2.5l1.1,1l-3.2,2.8
		l0.4,0.7c1.6-0.4,2.9-0.8,3.8-1.1l0.5,1.6c-0.8,0.3-2,0.6-3.6,1c0.3,0.8,0.4,1.4,0.4,1.9c0,1-0.9,2.4-2.9,2.4
		c-0.8,0-1.7-0.2-2.8-0.6l0.1-1.9c1.2,0.6,2,0.9,2.6,0.9c0.4,0,1.3-0.4,1.3-1.4c0-0.3-0.1-0.7-0.2-1l-5.1,1l-0.5-1.7L137.3,59.4z
		 M140.2,49.9l0.5-0.9h-2.8v2.1h1.2L140.2,49.9z M140.9,63.5c2.1-1,3.9-2.5,5.2-4.2c-0.7-1.3-1.2-3-1.5-5c-0.3,0.7-0.5,1.3-0.9,1.9
		l-1.7-0.5c1.6-3.2,2.5-6.6,2.5-10l1.7,0l-0.1,2h5.6v1.7h-1.3v1.2c0,2.6-0.6,5.2-1.7,7.7l-0.7,1.2c0.8,1.3,2.1,2.8,3.9,4.5l-1.6,0.9
		c-1.4-1.5-2.5-2.9-3.2-4.1c-1.2,1.5-2.8,2.8-4.8,4L140.9,63.5z M145.9,49.3c0,0.6-0.1,1.2-0.1,1.7c0,1.2,0.1,2.4,0.3,3.4
		c0.2,1.2,0.5,2.3,0.9,3.3c1-2,1.6-4.4,1.7-7.2v-1.2H145.9z"/>
	<path d="M171.6,61.3c-2.3-1.1-4.2-2.6-5.8-4.4h-5.9c-2,2.1-3.8,3.6-5.6,4.3l-1.1-1.5c1.7-0.8,3.1-1.7,4.3-2.9h-4.1v-1.6h3.6v-7
		h-3.1v-1.6h3.1v-1.2h1.8v1.2h8.4v-1.2h1.8v1.2h3.2v1.6h-3.2v7h3.7v1.7H168c1.1,1.1,2.7,2.1,4.8,3L171.6,61.3z M162,62.8v-1.9h-4.4
		v-1.6h4.4v-1.5h1.8v1.5h4.3v1.6h-4.3v1.9h8.1v1.6H154v-1.6H162z M158.7,49.6h8.4v-1.3h-8.4V49.6z M158.7,52.5h8.4V51h-8.4V52.5z
		 M158.7,55.2h8.4v-1.3h-8.4V55.2z"/>
	<path d="M192.7,52.5c-3.3-1.3-6.1-3.1-8.6-5.1c-1.7,1.7-4.6,3.4-8.8,5.2l-1-1.7c4.8-1.6,7.9-3.4,9.4-5.4l1.7,0.4l-0.3,0.4
		c2.5,2.1,5.4,3.6,8.7,4.7L192.7,52.5z M183.1,62.5v-5.2h-8.2v-1.8h8.2v-2.5h-4.8v-1.8h11.4v1.8h-4.9v2.5h8.1v1.8h-8.1v5.2h8.3v1.8
		h-18.4v-1.8H183.1z M178.6,62.4c-0.8-1.7-1.6-2.9-2.2-3.8l1.5-0.9c0.8,1,1.5,2.3,2.3,3.9L178.6,62.4z M187.5,61.3
		c0.9-1.2,1.7-2.4,2.4-3.7l1.4,1c-0.9,1.5-1.8,2.8-2.5,3.8L187.5,61.3z"/>
	<path d="M214.1,50.4c-1.6-0.3-3.4-0.8-5.5-1.5V50h-7.1v-1.1c-1.6,0.5-3.4,1-5.6,1.5l-0.6-1.7c4.6-0.6,7.9-1.7,9.5-3.3l1.5,0.6
		l-0.1,0.1c2.7,1.3,5.5,2.2,8.6,2.6L214.1,50.4z M213,56c0,0.1-0.1,0.2-0.2,0.2h-15.7c-0.1,0-0.2-0.1-0.2-0.2v-4.9
		c0-0.1,0.1-0.2,0.2-0.2h15.7c0.1,0,0.2,0.1,0.2,0.2V56z M199.9,64v0.8h-1.7v-7.2c0-0.2,0.1-0.3,0.3-0.3h13.1c0.2,0,0.4,0.1,0.4,0.3
		v7.1h-1.7V64H199.9z M201.5,52.5c0.4,0.6,0.8,1.3,1.2,2.2h1.5v-2.3h-5.6c-0.1,0-0.1,0-0.1,0.1v2.2l0.1,0.1h2.3l-0.8-1.4L201.5,52.5
		z M199.9,59.9h10.3V59c0-0.1-0.1-0.2-0.3-0.2h-9.8c-0.2,0-0.3,0.1-0.2,0.2V59.9z M210.2,61.4h-10.3v1.1h10.3V61.4z M207.5,48.5
		l-2.6-1.3c-0.5,0.3-1.3,0.8-2.4,1.3H207.5z M210.1,53.5l-0.8,1.3h2l0.1-0.1v-2.2l-0.1-0.1h-5.5v2.3h1.4c0.7-0.8,1.2-1.6,1.4-2.2
		L210.1,53.5z"/>
</g>
<path fill="#FF7BAC" d="M465,68c0,6.6-6,12-13.5,12h-172C272,80,266,74.6,266,68V12c0-6.6,6-12,13.5-12h172C459,0,465,5.4,465,12V68
	z"/>
<g>
	<path d="M293,32.8c4.4-0.2,7.1-1.2,8.2-2.9h-7.7v-1.7h8.2l0-0.5v-1.3H293v-1.7h8.6v-1.7h-7.1v-1.7h7.1v-1.6h-8V18h4.9
		c-0.4-0.7-0.9-1.3-1.2-1.7l1.4-1.1c0.5,0.5,1.1,1.3,1.6,2.2l-0.8,0.5h5.2c0.6-1.2,1.1-2.2,1.3-2.7l1.6,0.8l-0.9,1.9h4.7v1.7h-8v1.6
		h7v1.7h-7v1.7h8.5v1.7h-8.5v1.3l0,0.5h8.1v1.7h-7.3c1.7,2,4.4,3.1,8,3.1l-0.5,1.8h-0.2c-3.8-0.2-6.8-1.6-8.8-4.1l-0.6,0.8
		c-1.4,1.6-4.3,2.6-8.6,3.2L293,32.8z"/>
	<path d="M316.2,33.7v0.9h-1.8V16.5c0-0.4,0.2-0.6,0.6-0.6h16.9c0.4,0,0.6,0.2,0.6,0.6v18.2h-1.8v-0.9H316.2z M328.6,17.5l0.5,1.4h1
		v1.6h-3.9c0.3,2.2,0.6,3.9,0.9,5c0.5-1.2,1-2.6,1.3-4.1l1.6,0.4c-0.9,3.4-1.9,5.2-2.3,5.8l0.5,1.5c0.2,0.4,0.3,0.7,0.4,0.7
		c0.3,0,0.3-0.9,0.3-1.4c0-0.4,0-0.8,0-1.2l1.6,0.4c0,1.7-0.3,2.9-0.6,3.6c-0.2,0.3-0.4,0.7-1,0.7c-1.2,0-1.8-1.6-2.2-2.7
		c-0.7,1-1.5,1.9-2.2,2.7l-1.4-1l1.2-1.2c-2.1,0.5-4.3,0.8-6.8,0.9l-0.4-1.7c3.1-0.2,5.5-0.6,7.2-1l0.3,1.4l1.5-2
		c-0.5-1.8-1-4.1-1.4-6.9h-7.4v-1.6h7.2l-0.1-1.4h-7.8c-0.2,0-0.3,0.1-0.3,0.3v14.4h14.5V17.7c0-0.2-0.1-0.3-0.3-0.3H328.6z
		 M323.9,27.2c0,0.1-0.1,0.2-0.2,0.2h-6.3c-0.1,0-0.2-0.1-0.2-0.2v-5.1c0-0.1,0.1-0.2,0.2-0.2h6.3c0.1,0,0.2,0.1,0.2,0.2V27.2z
		 M322.2,23.3h-3.3c-0.1,0-0.1,0-0.1,0.1v2.5l0.1,0.1h3.3l0.1-0.1L322.2,23.3L322.2,23.3z M327.4,18.9l-0.5-1.4h-1l0.1,1.4H327.4z"
		/>
	<path d="M335.2,32.9c2.7,0,5.2-0.3,7.4-0.9c-0.9-0.7-1.9-1.5-2.7-2.5c-1.5,0.9-2.6,1.5-3.3,1.7l-1-1.6l0.6-0.2c2.3-0.9,4-2.1,5-3.7
		c-0.3-0.3-0.4-0.7-0.4-1v-3.2h-3.8c-0.1,0-0.2,0-0.2,0.1V24h-1.6v-3.8c0-0.2,0.1-0.3,0.3-0.3h3.7c-0.4-0.6-0.8-1.1-1.2-1.4l1-0.8
		l-2.4,0l-0.1-1.7c1.4,0,2.7,0,4,0c5,0,8.9-0.3,11.8-0.7l0.2,1.7c-1.3,0.3-3.4,0.4-6.3,0.6l-1.7,0.1c0.3,0.5,0.7,1.1,1.1,1.8
		l-0.9,0.5h3.2c0.7-0.7,1.5-1.6,2.3-2.6l1.2,1.2l-1.1,1.3l-0.1,0.1h2.7l1.5,0.8c0,0.9-0.2,2.1-0.7,3.4l-1.6-0.4
		c0.2-0.9,0.3-1.4,0.3-1.7c0-0.4-0.1-0.4-0.2-0.4h-9.8v2.3c0,0.5,0.4,0.9,0.9,0.9h3.7c0.1,0,0.3-0.1,0.5-0.2l0.1-0.2l0.2-1.4
		l1.6,0.4c-0.2,1.4-0.4,2.2-0.5,2.3c-0.4,0.4-0.8,0.7-1.2,0.7h-5c-0.3,0.6-0.5,1-0.7,1.2h8.5l1.1,0.9c0.1,0,0.1,0.1,0.1,0.1
		c0,0,0,0.1-0.1,0.1c-0.9,1.2-2.7,2.5-5.2,3.7c1.6,0.4,3.3,0.7,5.2,0.7c0.8,0,1.5,0,2.4-0.1l-0.2,1.8c-0.6,0.1-1.2,0.1-1.9,0.1
		c-2.7,0-5.2-0.5-7.5-1.6c-2.6,0.9-5.6,1.5-8.9,1.6L335.2,32.9z M340.1,23.5c-0.9,1.6-2,2.8-3.2,3.6c-0.3-0.6-0.6-1.1-1-1.4
		c1-0.7,2-1.8,2.7-3.2L340.1,23.5z M340.1,19.9h3.9c-0.4-0.7-0.7-1.2-1-1.6l1.1-0.7l-4.6,0.1c0.4,0.5,0.9,1.1,1.3,1.8L340.1,19.9z
		 M341.7,29.1c0.6,0.7,1.4,1.6,2.7,2.2c2-0.9,3.4-1.6,4.2-2.1c0-0.1-0.1-0.1-0.3-0.1H341.7z M345.4,24.3c-0.4-0.4-0.9-0.9-1.6-1.4
		l1.2-1.1l1.6,1.6L345.4,24.3z M351.9,26.9c-0.7-1.4-1.5-2.6-2.5-3.8l1.4-0.9c1.1,1.5,2,2.8,2.5,3.9L351.9,26.9z"/>
	<path d="M355.7,32c1-5.6,1.5-10.1,1.4-13.5l1.8,0.1c0.1,3.8-0.4,8.3-1.4,13.5L355.7,32z M360.8,16.7h1.9v14.7c0,0.7,0,1.2,1.2,1.2
		h4.5c1.6,0,1.6-1.1,1.6-2.5c0-0.6,0-1.4,0-2.5l1.8,0.3c0,0.8,0,1.6,0,2.2c0,2.5-0.2,3.1-0.6,3.6c-0.6,0.7-0.9,0.8-2.2,0.8H363
		c-1.6,0-2.3-1.1-2.2-2.8V16.7z M366.6,27.9c-0.5-5.2-1.3-9.3-2.2-12.3l1.8-0.4c1,3.3,1.8,7.5,2.2,12.4L366.6,27.9z M373.4,31.8
		c-0.6-5.8-1.4-10.4-2.5-13.8l1.7-0.4c1.2,3.7,2.1,8.3,2.6,13.8L373.4,31.8z"/>
	<path d="M381.4,17.9H380c-0.6,1.1-1.3,2-2,2.7l-1.4-1c1.3-1.3,2.2-2.8,2.8-4.5l1.6,0.6l-0.2,0.5h5.2v1.6h-2.8
		c0.2,0.6,0.4,1.2,0.5,1.8L382,20L381.4,17.9z M376.8,32.4c2.9-0.7,5.5-1.9,7.7-3.5h-5.1l0,0.5l-1.8-0.3l0.5-4.8
		c0-0.3,0.2-0.4,0.5-0.5h7.2v-1.7h-7.3v-1.7h16c0.1,0,0.5,0,0.6,0.6V26h-1.8v-0.3h-5.7v1.6h7.7c0.3,0,0.5,0.2,0.5,0.5
		c0,4.1-0.3,5.1-1,5.6c-0.7,0.5-1.5,0.5-1.8,0.5c-0.7,0-1.7-0.1-2.9-0.3l0-1.8c1.3,0.3,2.2,0.5,2.9,0.5c0.9,0,1.2,0,1.2-2.6v-0.5
		c0-0.1-0.1-0.1-0.3-0.1h-6.1v5.8h-1.8V30c-2.9,2.1-5.6,3.5-8.1,4.1L376.8,32.4z M385.7,27.2v-1.6h-5.8c-0.1,0-0.2,0-0.3,0.1
		l-0.1,1.5H385.7z M390.2,17.9h-1.7c-0.5,0.9-1,1.7-1.6,2.3l-1.5-0.9c1.2-1.2,2-2.6,2.4-4.1l1.6,0.5l-0.2,0.6h6.7v1.6h-4
		c0.1,0.1,0.4,0.7,0.7,1.7L391,20L390.2,17.9z M387.5,22.2V24h5.7v-1.5c0-0.1-0.1-0.2-0.3-0.2H387.5z"/>
	<path d="M398,31.4h18.9v2H398V31.4z M399.1,16.4h16.8v2h-16.8V16.4z"/>
	<path d="M424.5,33.6v1h-1.8v-7.3c-0.9,0.8-1.8,1.4-2.6,1.9l-1.3-1.4c1.9-1.1,3.7-2.4,5.1-3.8H419v-1.7h6.1l0.8-1.3h-5.6v-1.7h6.4
		l0.4-1.1h-7.6v-1.7h8l0.2-1.3l1.8,0.3l-0.2,1.1h8.2v1.7h-8.7l-0.3,1.1h8.1V21h-5.4l0.7,1.3h6v1.7h-4.8c1.3,1.5,3,2.8,5,3.9
		l-1.3,1.4c-1-0.6-1.8-1.3-2.7-2v7.3h-1.8v-1H424.5z M424.5,28.8h7.9v-1.2c0-0.2-0.1-0.3-0.3-0.3h-7.4c-0.2,0-0.3,0.1-0.3,0.3V28.8z
		 M432.4,30.5h-7.9v1.4h7.9V30.5z M424.5,25.6h7.9c-0.4-0.4-0.9-1-1.3-1.7H426L424.5,25.6z M429.9,22.2l-0.7-1.3h-1.3l-0.7,1.3
		H429.9z"/>
	<path d="M313.8,63.3c3.1-1,5.9-2.5,8.2-4.3c-2.2-2.2-3.7-5.3-4.6-9.2h-3.5v-1.9h8.6v-2.3h1.8v2.3h8.5v1.9h-3.2
		c-1,3.8-2.7,6.9-5,9.3c2.5,1.9,5.3,3.4,8.5,4.3l-1.2,1.6c-3.4-1.1-6.3-2.7-8.6-4.7l-2.1,1.5c-1.4,1-3.5,2-6.3,3.2L313.8,63.3z
		 M319.3,49.7c0.4,1.7,0.8,3.2,1.4,4.4c0.7,1.4,1.6,2.7,2.6,3.8l0.5-0.5c1.9-2,3.3-4.6,4-7.7H319.3z"/>
	<path d="M339.8,59.4l-1.2-1.7h0.9l1.5-1.5l0-0.2l-0.1-0.1h-2c-1,0.8-2,1.5-3.1,2.1l-1.1-1.3c2.1-1.2,3.9-2.5,5.5-4h-5.3v-1.6h3.9
		V49h-3.2v-1.6h3.2v-1.9h1.7v1.9h3.2v1l1.3-2.3l1.4,0.8c-0.8,1.4-1.7,2.9-2.7,4.3h1.6v1.6h-3l-0.6,0.7l-1.1,1.1h2.5l1.1,1l-3.2,2.8
		l0.4,0.7c1.6-0.4,2.9-0.8,3.8-1.1l0.5,1.6c-0.8,0.3-2,0.6-3.6,1c0.3,0.8,0.4,1.4,0.4,1.9c0,1-0.9,2.4-2.9,2.4
		c-0.8,0-1.7-0.2-2.8-0.6l0.1-1.9c1.2,0.6,2,0.9,2.6,0.9c0.4,0,1.3-0.4,1.3-1.4c0-0.3-0.1-0.7-0.2-1l-5.1,1l-0.5-1.7L339.8,59.4z
		 M342.7,49.9l0.5-0.9h-2.8v2.1h1.2L342.7,49.9z M343.4,63.5c2.1-1,3.9-2.5,5.2-4.2c-0.7-1.3-1.2-3-1.5-5c-0.3,0.7-0.5,1.3-0.9,1.9
		l-1.7-0.5c1.6-3.2,2.5-6.6,2.5-10l1.7,0l-0.1,2h5.6v1.7h-1.3v1.2c0,2.6-0.6,5.2-1.7,7.7l-0.7,1.2c0.8,1.3,2.1,2.8,3.9,4.5l-1.6,0.9
		c-1.4-1.5-2.5-2.9-3.2-4.1c-1.2,1.5-2.8,2.8-4.8,4L343.4,63.5z M348.4,49.3c0,0.6-0.1,1.2-0.1,1.7c0,1.2,0.1,2.4,0.3,3.4
		c0.2,1.2,0.5,2.3,0.9,3.3c1-2,1.6-4.4,1.7-7.2v-1.2H348.4z"/>
	<path d="M374.1,61.3c-2.3-1.1-4.2-2.6-5.8-4.4h-5.9c-2,2.1-3.8,3.6-5.6,4.3l-1.1-1.5c1.7-0.8,3.1-1.7,4.3-2.9h-4.1v-1.6h3.6v-7
		h-3.1v-1.6h3.1v-1.2h1.8v1.2h8.4v-1.2h1.8v1.2h3.2v1.6h-3.2v7h3.7v1.7h-4.6c1.1,1.1,2.7,2.1,4.8,3L374.1,61.3z M364.5,62.8v-1.9
		h-4.4v-1.6h4.4v-1.5h1.8v1.5h4.3v1.6h-4.3v1.9h8.1v1.6h-17.9v-1.6H364.5z M361.2,49.6h8.4v-1.3h-8.4V49.6z M361.2,52.5h8.4V51h-8.4
		V52.5z M361.2,55.2h8.4v-1.3h-8.4V55.2z"/>
	<path d="M395.2,52.5c-3.3-1.3-6.1-3.1-8.6-5.1c-1.7,1.7-4.6,3.4-8.8,5.2l-1-1.7c4.8-1.6,7.9-3.4,9.4-5.4l1.7,0.4l-0.3,0.4
		c2.5,2.1,5.4,3.6,8.7,4.7L395.2,52.5z M385.6,62.5v-5.2h-8.2v-1.8h8.2v-2.5h-4.8v-1.8h11.4v1.8h-4.9v2.5h8.1v1.8h-8.1v5.2h8.3v1.8
		h-18.4v-1.8H385.6z M381.1,62.4c-0.8-1.7-1.6-2.9-2.2-3.8l1.5-0.9c0.8,1,1.5,2.3,2.3,3.9L381.1,62.4z M390,61.3
		c0.9-1.2,1.7-2.4,2.4-3.7l1.4,1c-0.9,1.5-1.8,2.8-2.5,3.8L390,61.3z"/>
	<path d="M416.6,50.4c-1.6-0.3-3.4-0.8-5.5-1.5V50h-7.1v-1.1c-1.6,0.5-3.4,1-5.6,1.5l-0.6-1.7c4.6-0.6,7.9-1.7,9.5-3.3l1.5,0.6
		l-0.1,0.1c2.7,1.3,5.5,2.2,8.6,2.6L416.6,50.4z M415.5,56c0,0.1-0.1,0.2-0.2,0.2h-15.7c-0.1,0-0.2-0.1-0.2-0.2v-4.9
		c0-0.1,0.1-0.2,0.2-0.2h15.7c0.1,0,0.2,0.1,0.2,0.2V56z M402.4,64v0.8h-1.7v-7.2c0-0.2,0.1-0.3,0.3-0.3h13.1c0.2,0,0.4,0.1,0.4,0.3
		v7.1h-1.7V64H402.4z M404,52.5c0.4,0.6,0.8,1.3,1.2,2.2h1.5v-2.3h-5.6c-0.1,0-0.1,0-0.1,0.1v2.2l0.1,0.1h2.3l-0.8-1.4L404,52.5z
		 M402.4,59.9h10.3V59c0-0.1-0.1-0.2-0.3-0.2h-9.8c-0.2,0-0.3,0.1-0.2,0.2V59.9z M412.7,61.4h-10.3v1.1h10.3V61.4z M410,48.5
		l-2.6-1.3c-0.5,0.3-1.3,0.8-2.4,1.3H410z M412.6,53.5l-0.8,1.3h2l0.1-0.1v-2.2l-0.1-0.1h-5.5v2.3h1.4c0.7-0.8,1.2-1.6,1.4-2.2
		L412.6,53.5z"/>
</g>
<path fill="#1B1464" d="M709,73c0,6.6-6,12-13.5,12h-172C516,85,510,79.6,510,73V17c0-6.6,6-12,13.5-12h172C703,5,709,10.4,709,17
	V73z"/>
<path fill="#FF7BAC" d="M701,68c0,6.6-6,12-13.5,12h-172C508,80,502,74.6,502,68V12c0-6.6,6-12,13.5-12h172C695,0,701,5.4,701,12V68
	z"/>
<g>
	<path d="M528.6,33.6c1.5-2.2,2.4-4.6,2.7-7.2l1.7,0.3c-0.5,3.1-1.4,5.7-2.7,7.7L528.6,33.6z M531.9,24.8c-1.2-1.2-2.3-2-3.1-2.5
		l1.1-1.4c1,0.6,2.1,1.4,3.3,2.6L531.9,24.8z M532.2,19.5c-1.2-1.1-2.2-1.9-3-2.4l1.1-1.4c0.9,0.6,2,1.4,3,2.5L532.2,19.5z
		 M535.9,25.3v-4.6h-2.5v-1.7h2.5v-3.6h1.7v3.6h1.9v1.7h-1.9v3.7l1.4-0.9l1,1.5c-0.7,0.4-1.4,0.8-2.2,1.2l-0.2,0.1v6.2
		c0,0.4-0.1,2-2.1,2c-0.6,0-1.4-0.1-2.4-0.4l0-1.8l1.3,0.4c0.2,0,0.4,0.1,0.6,0.1c0.8,0,0.8-0.4,0.8-0.7v-5l-1.8,0.7l-0.9-1.6
		L535.9,25.3z M544.5,22h-2.2v3.3c0,3.2-0.8,6.2-2.3,9l-1.6-1c1.6-2.7,2.1-4.6,2.2-7.9v-8.7c0-0.3,0.1-0.5,0.4-0.6
		c2.2-0.2,4.2-0.5,6.1-0.9l0.7,1.7c-1.4,0.3-3.2,0.6-5.2,0.8c-0.2,0-0.3,0.1-0.3,0.3v2.3h5.9V22h-1.9v12.6h-1.7V22z"/>
	<path d="M553.7,25.2c-1.5-1.3-2.9-2.2-3.9-2.8l1-1.5c1.2,0.6,2.6,1.6,4,2.8L553.7,25.2z M549.9,33.3c2-1.9,3.5-4.2,4.4-6.8L556,27
		c-1.2,3.2-2.8,5.6-4.5,7.3L549.9,33.3z M554.4,19.9c-1.5-1.3-2.8-2.3-3.8-2.9l1-1.5c1.2,0.7,2.5,1.7,3.9,3L554.4,19.9z M563.2,17.9
		v14.2h5.9v1.8h-13.9v-1.8h6.2V17.9h-5v-1.8h12.2v1.8H563.2z"/>
	<path d="M576.1,33.8v1h-1.8v-10l-2.9,0.4l-0.6-1.9c2.3-0.2,4.6-0.5,6.8-0.9c2.8-0.6,5.6-2,8.4-4l-1.5-1.8l1.4-1.1
		c1.4,1.5,2.9,3.5,4.3,6l-1.5,1l-1.7-2.6c-2.9,2.1-4.5,3.1-7.5,3.8l-0.2,0.1h8.7c0.3,0,0.4,0.1,0.4,0.4v10.7h-1.8v-1H576.1z
		 M571.2,20.7c2.1-1.3,3.7-3,4.9-5.1l1.5,0.9c-1.6,2.6-3.4,4.4-5.1,5.5L571.2,20.7z M576.1,26.6h10.5v-1c0-0.2-0.1-0.3-0.3-0.3h-10
		c-0.2,0-0.3,0.1-0.2,0.3V26.6z M576.1,29.5h10.5v-1.2h-10.5V29.5z M586.6,31.1h-10.5v1.1h10.5V31.1z M580.4,15.3h1.8v3.9
		c0,0.6-0.3,2.2-2.6,2.2c-0.7,0-1.5-0.1-2.4-0.4l-0.1-1.9c0.9,0.3,1.7,0.4,2.2,0.4c1,0,1.1-0.4,1.1-0.8V15.3z"/>
	<path d="M597.8,28.9v5.8h-1.7v-5.6c-1,1.6-2,2.9-3,3.8l-1.4-0.9c1.6-1.4,2.9-3,4-4.9h-3.7v-1.6h4.1V24h-4v-1.6h5.8
		c0.6-1.3,1-2.5,1.2-3.4l1.6,0.5c-0.2,0.8-0.5,1.8-1,2.9h2.1V24h-4v1.6h4v1.6H598c1.1,1,2.2,2,3.2,3.1l-1.2,1.2L597.8,28.9z
		 M596.2,16.7v-1.5h1.8v1.5h3.7v1.7h-9.4v-1.7H596.2z M594.5,22.2c-0.4-1.1-0.8-2-1.2-2.6l1.5-0.7c0.4,0.7,0.8,1.6,1.2,2.6
		L594.5,22.2z M607.2,22.9h-2.7v3.1c0,2.4-0.4,5-3.3,8.5l-1.4-1.2c2.2-2.6,3-4.5,3-7.3v-9.2c0-0.4,0.1-0.6,0.4-0.6
		c2.5,0,4.9-0.3,7.1-0.8l0.6,1.7c-2.1,0.4-4.1,0.6-6.2,0.7c-0.2,0-0.3,0.1-0.3,0.3v3h6.5v1.7h-2.1v11.8h-1.7V22.9z"/>
	<path d="M625.5,17.9h-5.8V19h-1.8v-1.1h-5v-1.6h5v-1.1h1.8v1.1h5.8v-1.1h1.8v1.1h4.7v1.6h-4.7v1.2h-1.8V17.9z M621.6,31.9h-8.4
		v-1.6h8.4v-1.7h-7.9V27h2.9V25h-3.7v-1.6h3.7v-2.1h-2.9v-1.6h17.4v1.6h-2.8v2.1h3.5V25h-3.5V27h2.7v1.6h-7.7v1.7h8.3v1.6h-8.3v2.8
		h-1.8V31.9z M621.6,23.3v-2.1h-3.1v2.1H621.6z M621.6,27V25h-3.1V27H621.6z M623.4,21.3v2.1h3.2v-2.1H623.4z M623.4,25V27h3.2V25
		H623.4z"/>
	<path d="M634.2,32.9c2.7,0,5.2-0.3,7.4-0.9c-0.9-0.7-1.9-1.5-2.7-2.5c-1.5,0.9-2.6,1.5-3.3,1.7l-1-1.6l0.6-0.2c2.3-0.9,4-2.1,5-3.7
		c-0.3-0.3-0.4-0.7-0.4-1v-3.2h-3.8c-0.1,0-0.2,0-0.2,0.1V24h-1.6v-3.8c0-0.2,0.1-0.3,0.3-0.3h3.7c-0.4-0.6-0.8-1.1-1.2-1.4l1.1-0.8
		l-2.4,0l-0.1-1.7c1.4,0,2.7,0,4,0c5,0,8.9-0.3,11.8-0.7l0.2,1.7c-1.3,0.3-3.4,0.4-6.3,0.6l-1.7,0.1c0.3,0.5,0.7,1.1,1.1,1.8
		l-0.9,0.5h3.2c0.7-0.7,1.5-1.6,2.3-2.6l1.2,1.2l-1.1,1.3l-0.1,0.1h2.7l1.5,0.8c0,0.9-0.2,2.1-0.7,3.4l-1.6-0.4
		c0.2-0.9,0.3-1.4,0.3-1.7c0-0.4-0.1-0.4-0.2-0.4h-9.8v2.3c0,0.5,0.4,0.9,0.9,0.9h3.7c0.1,0,0.3-0.1,0.5-0.2l0.1-0.2l0.2-1.4
		l1.6,0.4c-0.2,1.4-0.4,2.2-0.5,2.3c-0.4,0.4-0.8,0.7-1.2,0.7h-5c-0.3,0.6-0.5,1-0.7,1.2h8.5l1.1,0.9c0.1,0,0.1,0.1,0.1,0.1
		c0,0,0,0.1-0.1,0.1c-0.9,1.2-2.7,2.5-5.2,3.7c1.6,0.4,3.3,0.7,5.2,0.7c0.8,0,1.5,0,2.4-0.1l-0.2,1.8c-0.6,0.1-1.2,0.1-1.9,0.1
		c-2.7,0-5.2-0.5-7.5-1.6c-2.6,0.9-5.6,1.5-8.9,1.6L634.2,32.9z M639.1,23.5c-0.9,1.6-2,2.8-3.2,3.6c-0.3-0.6-0.6-1.1-1-1.4
		c1-0.7,2-1.8,2.7-3.2L639.1,23.5z M639.1,19.9h3.9c-0.4-0.7-0.7-1.2-1-1.6l1.1-0.7l-4.6,0.1c0.4,0.5,0.9,1.1,1.3,1.8L639.1,19.9z
		 M640.7,29.1c0.6,0.7,1.4,1.6,2.7,2.2c2-0.9,3.4-1.6,4.2-2.1c0-0.1-0.1-0.1-0.3-0.1H640.7z M644.4,24.3c-0.4-0.4-0.9-0.9-1.6-1.4
		l1.2-1.1l1.6,1.6L644.4,24.3z M650.9,26.9c-0.7-1.4-1.5-2.6-2.5-3.8l1.4-0.9c1.1,1.5,2,2.8,2.5,3.9L650.9,26.9z"/>
	<path d="M654.7,32c1-5.6,1.5-10.1,1.4-13.5l1.8,0.1c0.1,3.8-0.4,8.3-1.4,13.5L654.7,32z M659.8,16.7h1.9v14.7c0,0.7,0,1.2,1.2,1.2
		h4.5c1.6,0,1.6-1.1,1.6-2.5c0-0.6,0-1.4,0-2.5l1.8,0.3c0,0.8,0,1.6,0,2.2c0,2.5-0.2,3.1-0.6,3.6c-0.6,0.7-0.9,0.8-2.2,0.8H662
		c-1.6,0-2.3-1.1-2.2-2.8V16.7z M665.6,27.9c-0.5-5.2-1.3-9.3-2.2-12.3l1.8-0.4c1.1,3.3,1.8,7.5,2.2,12.4L665.6,27.9z M672.4,31.8
		c-0.6-5.8-1.4-10.4-2.5-13.8l1.7-0.4c1.2,3.7,2.1,8.3,2.6,13.8L672.4,31.8z"/>
	<path d="M554.8,59.4l-1.2-1.7h0.9l1.5-1.5l0-0.2l-0.1-0.1h-2c-1,0.8-2,1.5-3.1,2.1l-1.1-1.3c2.1-1.2,3.9-2.5,5.5-4h-5.3v-1.6h3.9
		V49h-3.2v-1.6h3.2v-1.9h1.7v1.9h3.2v1l1.3-2.3l1.4,0.8c-0.8,1.4-1.7,2.9-2.7,4.3h1.6v1.6h-3l-0.6,0.7l-1.1,1.1h2.5l1.1,1l-3.2,2.8
		l0.4,0.7c1.6-0.4,2.9-0.8,3.8-1.1l0.5,1.6c-0.8,0.3-2,0.6-3.6,1c0.3,0.8,0.4,1.4,0.4,1.9c0,1-0.9,2.4-2.9,2.4
		c-0.8,0-1.7-0.2-2.8-0.6l0.1-1.9c1.2,0.6,2,0.9,2.6,0.9c0.4,0,1.3-0.4,1.3-1.4c0-0.3-0.1-0.7-0.2-1l-5.1,1l-0.5-1.7L554.8,59.4z
		 M557.7,49.9l0.5-0.9h-2.8v2.1h1.2L557.7,49.9z M558.4,63.5c2.1-1,3.9-2.5,5.2-4.2c-0.7-1.3-1.2-3-1.5-5c-0.3,0.7-0.5,1.3-0.9,1.9
		l-1.7-0.5c1.6-3.2,2.5-6.6,2.5-10l1.7,0l-0.1,2h5.6v1.7h-1.3v1.2c0,2.6-0.6,5.2-1.7,7.7l-0.7,1.2c0.8,1.3,2.1,2.8,3.9,4.5l-1.6,0.9
		c-1.4-1.5-2.5-2.9-3.2-4.1c-1.2,1.5-2.8,2.8-4.8,4L558.4,63.5z M563.4,49.3c0,0.6-0.1,1.2-0.1,1.7c0,1.2,0.1,2.4,0.3,3.4
		c0.2,1.2,0.5,2.3,0.9,3.3c1-2,1.6-4.4,1.7-7.2v-1.2H563.4z"/>
	<path d="M589,53.9c-0.6-0.7-1.3-1.4-2.1-2.1l-15.6,0.6l-0.4-1.8l3.1-0.1c0.9-0.7,1.7-1.4,2.6-2.3H571v-1.7h8.5v-1.1h1.9v1.1h8.4
		v1.7h-4.2c1.8,1.4,3.3,3,4.7,4.5L589,53.9z M574.3,61.5v3.3h-1.8V53.9c0-0.4,0.2-0.6,0.6-0.6h14.3c0.4,0,0.6,0.2,0.6,0.6v8.7
		c0,1.7-1.2,2.3-3.1,2.3c-0.7,0-1.4-0.1-2.3-0.2l-0.2-2c1,0.2,1.7,0.3,2.3,0.3c1.4,0,1.4-0.7,1.4-1.5H574.3z M574.3,56.5h12v-1.3
		c0-0.1-0.1-0.1-0.2-0.1h-11.7c-0.1,0-0.1,0-0.1,0.1V56.5z M574.3,59.8h12v-1.6h-12V59.8z M583.7,48.9l0.6-0.7H579l-2.2,2.2l8.4-0.3
		L583.7,48.9z"/>
	<path d="M610.1,61.3c-2.3-1.1-4.2-2.6-5.8-4.4h-5.9c-2,2.1-3.8,3.6-5.6,4.3l-1.1-1.5c1.7-0.8,3.1-1.7,4.3-2.9h-4.1v-1.6h3.6v-7
		h-3.1v-1.6h3.1v-1.2h1.8v1.2h8.4v-1.2h1.8v1.2h3.2v1.6h-3.2v7h3.7v1.7h-4.6c1.1,1.1,2.7,2.1,4.8,3L610.1,61.3z M600.5,62.8v-1.9
		h-4.4v-1.6h4.4v-1.5h1.8v1.5h4.3v1.6h-4.3v1.9h8.1v1.6h-17.9v-1.6H600.5z M597.2,49.6h8.4v-1.3h-8.4V49.6z M597.2,52.5h8.4V51h-8.4
		V52.5z M597.2,55.2h8.4v-1.3h-8.4V55.2z"/>
	<path d="M631.2,52.5c-3.3-1.3-6.1-3.1-8.6-5.1c-1.7,1.7-4.6,3.4-8.8,5.2l-1-1.7c4.8-1.6,7.9-3.4,9.4-5.4l1.7,0.4l-0.3,0.4
		c2.5,2.1,5.4,3.6,8.7,4.7L631.2,52.5z M621.6,62.5v-5.2h-8.2v-1.8h8.2v-2.5h-4.8v-1.8h11.4v1.8h-4.9v2.5h8.1v1.8h-8.1v5.2h8.3v1.8
		h-18.4v-1.8H621.6z M617.1,62.4c-0.8-1.7-1.6-2.9-2.2-3.8l1.5-0.9c0.8,1,1.5,2.3,2.3,3.9L617.1,62.4z M626,61.3
		c0.9-1.2,1.7-2.4,2.4-3.7l1.4,1c-0.9,1.5-1.8,2.8-2.5,3.8L626,61.3z"/>
	<path d="M652.6,50.4c-1.6-0.3-3.4-0.8-5.5-1.5V50h-7.1v-1.1c-1.6,0.5-3.4,1-5.6,1.5l-0.6-1.7c4.6-0.6,7.9-1.7,9.5-3.3l1.5,0.6
		l-0.1,0.1c2.7,1.3,5.5,2.2,8.6,2.6L652.6,50.4z M651.5,56c0,0.1-0.1,0.2-0.2,0.2h-15.7c-0.1,0-0.2-0.1-0.2-0.2v-4.9
		c0-0.1,0.1-0.2,0.2-0.2h15.7c0.1,0,0.2,0.1,0.2,0.2V56z M638.4,64v0.8h-1.7v-7.2c0-0.2,0.1-0.3,0.3-0.3h13.1c0.2,0,0.4,0.1,0.4,0.3
		v7.1h-1.7V64H638.4z M640,52.5c0.4,0.6,0.8,1.3,1.2,2.2h1.5v-2.3h-5.6c-0.1,0-0.1,0-0.1,0.1v2.2l0.1,0.1h2.3l-0.8-1.4L640,52.5z
		 M638.4,59.9h10.3V59c0-0.1-0.1-0.2-0.3-0.2h-9.8c-0.2,0-0.3,0.1-0.2,0.2V59.9z M648.7,61.4h-10.3v1.1h10.3V61.4z M646,48.5
		l-2.6-1.3c-0.5,0.3-1.3,0.8-2.4,1.3H646z M648.6,53.5l-0.8,1.3h2l0.1-0.1v-2.2l-0.1-0.1h-5.5v2.3h1.4c0.7-0.8,1.2-1.6,1.4-2.2
		L648.6,53.5z"/>
</g>
<path fill="#1B1464" d="M201,165.2c0,5.2-4,9.8-9,9.8H76.7c-5,0-8.7-4.6-8.7-9.8v-43.9c0-5.2,3.7-9.3,8.7-9.3H192c5,0,9,4.1,9,9.3
	V165.2z"/>
<path fill="#0071BC" d="M194,161.3c0,5.2-4.7,9.7-9.7,9.7H69c-5,0-9-4.5-9-9.7v-43.9c0-5.2,4-9.4,9-9.4h115.3c5,0,9.7,4.2,9.7,9.4
	V161.3z"/>
<g>
	<path fill="#F2F2F2" d="M108.9,131.2h-6.2v0.7H101v-0.7h-4.5v-1.6h4.5v-0.9h1.7v0.9h6.2v-0.9h1.7v0.9h4.8v1.6h-4.8v0.6h-1.7V131.2z
		 M105.1,146.1v-0.8h-7v-1.4h7v-1h-6.8c-0.1,0-0.2-0.1-0.2-0.2v-5.3c0-0.1,0-0.2,0.2-0.2h6.8v-0.9h-8.4v-1.4h8.4v-0.8
		c-1.7,0.1-3.2,0.1-4.6,0.1c-0.7,0-1.3,0-1.9,0l-0.1-1.5c0.6,0,1.2,0,1.9,0c1.8,0,9.2-0.1,12.7-0.8l0.2,1.5
		c-1.2,0.2-3.1,0.4-5.8,0.6l-0.7,0.1v0.8h8.5v1.4h-8.5v0.9h6.7c0.1,0,0.2,0.1,0.2,0.2v5.3c0,0.1-0.1,0.2-0.2,0.2h-6.7v1h7.1v1.4
		h-7.1v0.8h8.2v1.6H96.8v-1.6H105.1z M105.1,139.3v-0.9h-5.3c-0.1,0-0.1,0-0.1,0.1v0.8H105.1z M105.1,141.4v-0.8h-5.3v0.7l0.1,0.1
		H105.1z M106.9,138.4v0.9h5.3v-0.8l-0.1-0.1H106.9z M106.9,140.6v0.8h5.2l0.1-0.1v-0.7H106.9z"/>
	<path fill="#F2F2F2" d="M126.1,139.1H119v-1.6h7.2v-1h-7c-0.1,0-0.2-0.1-0.2-0.3v-3.8c0-0.1,0.1-0.2,0.2-0.2h7v-1h-8.7v-1.6h8.7
		v-0.9h1.8v0.9h8.5v1.6h-8.5v1h6.9c0.1,0,0.2,0.1,0.2,0.2v3.8c0,0.2-0.1,0.3-0.2,0.3h-6.9v1h6.5c0.4,0,0.5,0.2,0.5,0.5v2.3h1.7v1.6
		h-1.7v2.2c0,0.4-0.2,0.5-0.5,0.5h-6.5v1.4c0,0.4,0,2.2-2.5,2.2c-0.8,0-1.8-0.2-3-0.5l0-1.9c1.2,0.4,2.1,0.5,2.7,0.5
		c0.9,0,1-0.3,1-0.8v-0.9H119v-1.6h7.1V142h-8.8v-1.6h8.8V139.1z M126.1,135v-1.2h-5.4c-0.1,0-0.1,0-0.1,0.1v1c0,0.1,0,0.1,0.1,0.1
		H126.1z M127.9,133.8v1.2h5.3l0.1-0.1v-1c0-0.1,0-0.1-0.1-0.1H127.9z M127.9,139.1v1.2h5.3v-1.1c0-0.1,0-0.1-0.1-0.1H127.9z
		 M127.9,142v1.2h5.1c0.1,0,0.1-0.1,0.1-0.2v-1H127.9z"/>
	<path fill="#F2F2F2" d="M157.1,133.7c-1.6-0.3-3.4-0.8-5.5-1.5v1.1h-7.1v-1.1c-1.6,0.5-3.4,1-5.6,1.5l-0.6-1.7
		c4.6-0.6,7.9-1.7,9.5-3.3l1.5,0.6l-0.1,0.1c2.7,1.3,5.5,2.2,8.6,2.6L157.1,133.7z M156,139.3c0,0.1-0.1,0.2-0.2,0.2h-15.7
		c-0.1,0-0.2-0.1-0.2-0.2v-4.9c0-0.1,0.1-0.2,0.2-0.2h15.7c0.1,0,0.2,0.1,0.2,0.2V139.3z M142.9,147.3v0.8h-1.7v-7.2
		c0-0.2,0.1-0.3,0.3-0.3h13.1c0.2,0,0.4,0.1,0.4,0.3v7.1h-1.7v-0.8H142.9z M144.5,135.8c0.4,0.6,0.8,1.3,1.2,2.2h1.5v-2.3h-5.6
		c-0.1,0-0.1,0-0.1,0.1v2.2l0.1,0.1h2.3l-0.8-1.4L144.5,135.8z M142.9,143.2h10.3v-0.9c0-0.1-0.1-0.2-0.3-0.2h-9.8
		c-0.2,0-0.3,0.1-0.2,0.2V143.2z M153.2,144.7h-10.3v1.1h10.3V144.7z M150.5,131.8l-2.6-1.3c-0.5,0.3-1.3,0.8-2.4,1.3H150.5z
		 M153.1,136.8l-0.8,1.3h2l0.1-0.1v-2.2l-0.1-0.1h-5.5v2.3h1.4c0.7-0.8,1.2-1.6,1.4-2.2L153.1,136.8z"/>
</g>
<path fill="#1B1464" d="M444,165.2c0,5.2-4,9.8-9,9.8H319.7c-5,0-8.7-4.6-8.7-9.8v-43.9c0-5.2,3.7-9.3,8.7-9.3H435c5,0,9,4.1,9,9.3
	V165.2z"/>
<path fill="#0071BC" d="M437,161.3c0,5.2-4.7,9.7-9.7,9.7H312c-5,0-9-4.5-9-9.7v-43.9c0-5.2,4-9.4,9-9.4h115.3c5,0,9.7,4.2,9.7,9.4
	V161.3z"/>
<g>
	<path fill="#F2F2F2" d="M351.9,131.2h-6.2v0.7H344v-0.7h-4.5v-1.6h4.5v-0.9h1.7v0.9h6.2v-0.9h1.7v0.9h4.8v1.6h-4.8v0.6h-1.7V131.2z
		 M348.1,146.1v-0.8h-7v-1.4h7v-1h-6.8c-0.1,0-0.2-0.1-0.2-0.2v-5.3c0-0.1,0-0.2,0.2-0.2h6.8v-0.9h-8.4v-1.4h8.4v-0.8
		c-1.7,0.1-3.2,0.1-4.6,0.1c-0.7,0-1.3,0-1.9,0l-0.1-1.5c0.6,0,1.2,0,1.9,0c1.8,0,9.2-0.1,12.7-0.8l0.2,1.5
		c-1.2,0.2-3.1,0.4-5.8,0.6l-0.7,0.1v0.8h8.5v1.4h-8.5v0.9h6.7c0.1,0,0.2,0.1,0.2,0.2v5.3c0,0.1-0.1,0.2-0.2,0.2h-6.7v1h7.1v1.4
		h-7.1v0.8h8.2v1.6h-18.3v-1.6H348.1z M348.1,139.3v-0.9h-5.3c-0.1,0-0.1,0-0.1,0.1v0.8H348.1z M348.1,141.4v-0.8h-5.3v0.7l0.1,0.1
		H348.1z M349.9,138.4v0.9h5.3v-0.8l-0.1-0.1H349.9z M349.9,140.6v0.8h5.2l0.1-0.1v-0.7H349.9z"/>
	<path fill="#F2F2F2" d="M369.1,139.1H362v-1.6h7.2v-1h-7c-0.1,0-0.2-0.1-0.2-0.3v-3.8c0-0.1,0.1-0.2,0.2-0.2h7v-1h-8.7v-1.6h8.7
		v-0.9h1.8v0.9h8.5v1.6h-8.5v1h6.9c0.1,0,0.2,0.1,0.2,0.2v3.8c0,0.2-0.1,0.3-0.2,0.3h-6.9v1h6.5c0.4,0,0.5,0.2,0.5,0.5v2.3h1.7v1.6
		h-1.7v2.2c0,0.4-0.2,0.5-0.5,0.5h-6.5v1.4c0,0.4,0,2.2-2.5,2.2c-0.8,0-1.8-0.2-3-0.5l0-1.9c1.2,0.4,2.1,0.5,2.7,0.5
		c0.9,0,1-0.3,1-0.8v-0.9H362v-1.6h7.1V142h-8.8v-1.6h8.8V139.1z M369.1,135v-1.2h-5.4c-0.1,0-0.1,0-0.1,0.1v1c0,0.1,0,0.1,0.1,0.1
		H369.1z M370.9,133.8v1.2h5.3l0.1-0.1v-1c0-0.1,0-0.1-0.1-0.1H370.9z M370.9,139.1v1.2h5.3v-1.1c0-0.1,0-0.1-0.1-0.1H370.9z
		 M370.9,142v1.2h5.1c0.1,0,0.1-0.1,0.1-0.2v-1H370.9z"/>
	<path fill="#F2F2F2" d="M400.1,133.7c-1.6-0.3-3.4-0.8-5.5-1.5v1.1h-7.1v-1.1c-1.6,0.5-3.4,1-5.6,1.5l-0.6-1.7
		c4.6-0.6,7.9-1.7,9.5-3.3l1.5,0.6l-0.1,0.1c2.7,1.3,5.5,2.2,8.6,2.6L400.1,133.7z M399,139.3c0,0.1-0.1,0.2-0.2,0.2h-15.7
		c-0.1,0-0.2-0.1-0.2-0.2v-4.9c0-0.1,0.1-0.2,0.2-0.2h15.7c0.1,0,0.2,0.1,0.2,0.2V139.3z M385.9,147.3v0.8h-1.7v-7.2
		c0-0.2,0.1-0.3,0.3-0.3h13.1c0.2,0,0.4,0.1,0.4,0.3v7.1h-1.7v-0.8H385.9z M387.5,135.8c0.4,0.6,0.8,1.3,1.2,2.2h1.5v-2.3h-5.6
		c-0.1,0-0.1,0-0.1,0.1v2.2l0.1,0.1h2.3l-0.8-1.4L387.5,135.8z M385.9,143.2h10.3v-0.9c0-0.1-0.1-0.2-0.3-0.2h-9.8
		c-0.2,0-0.3,0.1-0.2,0.2V143.2z M396.2,144.7h-10.3v1.1h10.3V144.7z M393.5,131.8l-2.6-1.3c-0.5,0.3-1.3,0.8-2.4,1.3H393.5z
		 M396.1,136.8l-0.8,1.3h2l0.1-0.1v-2.2l-0.1-0.1h-5.5v2.3h1.4c0.7-0.8,1.2-1.6,1.4-2.2L396.1,136.8z"/>
</g>
<path fill="#1B1464" d="M680,165.2c0,5.2-4,9.8-9,9.8H555.7c-5,0-8.7-4.6-8.7-9.8v-43.9c0-5.2,3.7-9.3,8.7-9.3H671c5,0,9,4.1,9,9.3
	V165.2z"/>
<path fill="#0071BC" d="M673,161.3c0,5.2-4.7,9.7-9.7,9.7H548c-5,0-9-4.5-9-9.7v-43.9c0-5.2,4-9.4,9-9.4h115.3c5,0,9.7,4.2,9.7,9.4
	V161.3z"/>
<g>
	<path fill="#F2F2F2" d="M577.8,144.1v-6.4h-2.2v-1.6h2.2V131h-2.3v-1.6h6.3v1.6h-2.2v5.2h2.1v1.6h-2.1v5.8c1-0.4,1.7-0.7,2.2-0.9
		l0.7,1.6c-0.9,0.5-4.8,1.9-6.6,2.3l-0.7-1.7L577.8,144.1z M587.3,145.9v-2.5h-4.8v-1.6h4.8v-2.1h-4.6c-0.1,0-0.2-0.1-0.2-0.3v-9.9
		c0-0.1,0.1-0.2,0.2-0.2h11c0.1,0,0.2,0.1,0.2,0.2v9.9c0,0.2-0.1,0.3-0.2,0.3h-4.7v2.1h5v1.6h-5v2.5h5.8v1.6h-13.2v-1.6H587.3z
		 M587.3,133.8V131h-3.1c-0.1,0-0.1,0-0.1,0.1v2.8H587.3z M587.3,138.1v-2.7h-3.1v2.6l0.1,0.1H587.3z M589.1,131v2.8h3.2V131
		l-0.1-0.1H589.1z M589.1,135.4v2.7h3.1l0.1-0.1v-2.6H589.1z"/>
	<path fill="#F2F2F2" d="M605.1,139.1H598v-1.6h7.2v-1h-7c-0.1,0-0.2-0.1-0.2-0.3v-3.8c0-0.1,0.1-0.2,0.2-0.2h7v-1h-8.7v-1.6h8.7
		v-0.9h1.8v0.9h8.5v1.6h-8.5v1h6.9c0.1,0,0.2,0.1,0.2,0.2v3.8c0,0.2-0.1,0.3-0.2,0.3h-6.9v1h6.5c0.4,0,0.5,0.2,0.5,0.5v2.3h1.7v1.6
		h-1.7v2.2c0,0.4-0.2,0.5-0.5,0.5h-6.5v1.4c0,0.4,0,2.2-2.5,2.2c-0.8,0-1.8-0.2-3-0.5l0-1.9c1.2,0.4,2.1,0.5,2.7,0.5
		c0.9,0,1-0.3,1-0.8v-0.9H598v-1.6h7.1V142h-8.8v-1.6h8.8V139.1z M605.1,135v-1.2h-5.4c-0.1,0-0.1,0-0.1,0.1v1c0,0.1,0,0.1,0.1,0.1
		H605.1z M606.9,133.8v1.2h5.3l0.1-0.1v-1c0-0.1,0-0.1-0.1-0.1H606.9z M606.9,139.1v1.2h5.3v-1.1c0-0.1,0-0.1-0.1-0.1H606.9z
		 M606.9,142v1.2h5.1c0.1,0,0.1-0.1,0.1-0.2v-1H606.9z"/>
	<path fill="#F2F2F2" d="M636.1,133.7c-1.6-0.3-3.4-0.8-5.5-1.5v1.1h-7.1v-1.1c-1.6,0.5-3.4,1-5.6,1.5l-0.6-1.7
		c4.6-0.6,7.9-1.7,9.5-3.3l1.5,0.6l-0.1,0.1c2.7,1.3,5.5,2.2,8.6,2.6L636.1,133.7z M635,139.3c0,0.1-0.1,0.2-0.2,0.2h-15.7
		c-0.1,0-0.2-0.1-0.2-0.2v-4.9c0-0.1,0.1-0.2,0.2-0.2h15.7c0.1,0,0.2,0.1,0.2,0.2V139.3z M621.9,147.3v0.8h-1.7v-7.2
		c0-0.2,0.1-0.3,0.3-0.3h13.1c0.2,0,0.4,0.1,0.4,0.3v7.1h-1.7v-0.8H621.9z M623.5,135.8c0.4,0.6,0.8,1.3,1.2,2.2h1.5v-2.3h-5.6
		c-0.1,0-0.1,0-0.1,0.1v2.2l0.1,0.1h2.3l-0.8-1.4L623.5,135.8z M621.9,143.2h10.3v-0.9c0-0.1-0.1-0.2-0.3-0.2h-9.8
		c-0.2,0-0.3,0.1-0.2,0.2V143.2z M632.2,144.7h-10.3v1.1h10.3V144.7z M629.5,131.8l-2.6-1.3c-0.5,0.3-1.3,0.8-2.4,1.3H629.5z
		 M632.1,136.8l-0.8,1.3h2l0.1-0.1v-2.2l-0.1-0.1h-5.5v2.3h1.4c0.7-0.8,1.2-1.6,1.4-2.2L632.1,136.8z"/>
</g>
<path fill="#1B1464" d="M201,283.7c0,7.1-4,13.3-9,13.3H76.7c-5,0-8.7-6.2-8.7-13.3v-59.6c0-7.1,3.7-13.1,8.7-13.1H192
	c5,0,9,6,9,13.1V283.7z"/>
<path fill="#0071BC" d="M194,278.4c0,7.1-4.7,13.6-9.7,13.6H69c-5,0-9-6.5-9-13.6v-59.6c0-7.1,4-12.8,9-12.8h115.3
	c5,0,9.7,5.7,9.7,12.8V278.4z"/>
<g>
	<path fill="#F2F2F2" d="M108.9,224.2h-6.2v0.7H101v-0.7h-4.5v-1.6h4.5v-0.9h1.7v0.9h6.2v-0.9h1.7v0.9h4.8v1.6h-4.8v0.6h-1.7V224.2z
		 M105.1,239.1v-0.8h-7v-1.4h7v-1h-6.8c-0.1,0-0.2-0.1-0.2-0.2v-5.3c0-0.1,0-0.2,0.2-0.2h6.8v-0.9h-8.4v-1.4h8.4v-0.8
		c-1.7,0.1-3.2,0.1-4.6,0.1c-0.7,0-1.3,0-1.9,0l-0.1-1.5c0.6,0,1.2,0,1.9,0c1.8,0,9.2-0.1,12.7-0.8l0.2,1.5
		c-1.2,0.2-3.1,0.4-5.8,0.6l-0.7,0.1v0.8h8.5v1.4h-8.5v0.9h6.7c0.1,0,0.2,0.1,0.2,0.2v5.3c0,0.1-0.1,0.2-0.2,0.2h-6.7v1h7.1v1.4
		h-7.1v0.8h8.2v1.6H96.8v-1.6H105.1z M105.1,232.3v-0.9h-5.3c-0.1,0-0.1,0-0.1,0.1v0.8H105.1z M105.1,234.4v-0.8h-5.3v0.7l0.1,0.1
		H105.1z M106.9,231.4v0.9h5.3v-0.8l-0.1-0.1H106.9z M106.9,233.6v0.8h5.2l0.1-0.1v-0.7H106.9z"/>
	<path fill="#F2F2F2" d="M126.1,232.1H119v-1.6h7.2v-1h-7c-0.1,0-0.2-0.1-0.2-0.3v-3.8c0-0.1,0.1-0.2,0.2-0.2h7v-1h-8.7v-1.6h8.7
		v-0.9h1.8v0.9h8.5v1.6h-8.5v1h6.9c0.1,0,0.2,0.1,0.2,0.2v3.8c0,0.2-0.1,0.3-0.2,0.3h-6.9v1h6.5c0.4,0,0.5,0.2,0.5,0.5v2.3h1.7v1.6
		h-1.7v2.2c0,0.4-0.2,0.5-0.5,0.5h-6.5v1.4c0,0.4,0,2.2-2.5,2.2c-0.8,0-1.8-0.2-3-0.5l0-1.9c1.2,0.4,2.1,0.5,2.7,0.5
		c0.9,0,1-0.3,1-0.8v-0.9H119v-1.6h7.1V235h-8.8v-1.6h8.8V232.1z M126.1,228v-1.2h-5.4c-0.1,0-0.1,0-0.1,0.1v1c0,0.1,0,0.1,0.1,0.1
		H126.1z M127.9,226.8v1.2h5.3l0.1-0.1v-1c0-0.1,0-0.1-0.1-0.1H127.9z M127.9,232.1v1.2h5.3v-1.1c0-0.1,0-0.1-0.1-0.1H127.9z
		 M127.9,235v1.2h5.1c0.1,0,0.1-0.1,0.1-0.2v-1H127.9z"/>
	<path fill="#F2F2F2" d="M147.7,232.8c0.8,1.3,1.7,2.4,2.7,3.4c1.7-1,3.1-2,4.2-2.9l1,1.5l-3.7,2.6c1.4,0.9,3.3,1.6,5.8,2.1
		l-0.9,1.8c-3-0.8-7.2-1.9-11.3-8.4h-2.8v6.1l1.2-0.3c1.6-0.3,2.9-0.7,3.9-1l0.7,1.7c-2.5,0.8-5.7,1.5-9.5,1.9l-0.5-1.8l2.6-0.3
		v-6.4h-2.4V231h2.7v-8.2c0-0.3,0.1-0.4,0.4-0.4h14.5v1.7h-12.9c-0.1,0-0.2,0.1-0.2,0.2v1h12.5v1.7H143v1.2h12.5v1.7H143v1.1h14.4
		v1.8H147.7z"/>
	<path fill="#F2F2F2" d="M105.1,268.8v-6.6h-7.1v-1.9h7.1v-5.6h-7.7v-1.9h17.3v1.9h-7.7v5.6h7.1v1.9h-7.1v6.6h8.6v1.9H96.4v-1.9
		H105.1z"/>
	<path fill="#F2F2F2" d="M118.3,268.7V258h1.7v10.1l1.6-0.5v-13.1h-3.9v-1.8h9.5v1.8h-3.8v5h2.5v1.8h-2.5v5.7l3.3-1.1l0.6,1.8
		l-9.5,3.1l-0.7-1.7L118.3,268.7z M130.7,265.8c-1-1.9-1.6-3.9-1.8-6.1c-0.8,1.7-1.3,2.9-1.6,3.3l-1.7-0.7l0.9-1.5
		c1.2-2.4,1.8-5.2,1.8-8.7h1.8l-0.1,2.2h6.5v1.8h-1.2c-0.1,3.8-1,7.1-2.7,9.8c1.2,1.8,2.6,3.4,4.1,4.7l-1.6,1
		c-1.4-1.4-2.6-2.8-3.6-4.2c-1,1.3-2.6,2.7-4.9,4.2l-1.4-1.3c2.2-1.5,3.7-2.7,4.6-3.5L130.7,265.8z M130.3,256
		c0,3.8,0.5,6.5,1.4,8.1c0.7-1.1,1.2-2.4,1.5-4c0.2-1.1,0.4-2.5,0.4-4.1H130.3z"/>
	<path fill="#F2F2F2" d="M138.4,260h19.2v2h-19.2V260z"/>
</g>
<path fill="#1B1464" d="M444,283.7c0,7.1-4,13.3-9,13.3H319.7c-5,0-8.7-6.2-8.7-13.3v-59.6c0-7.1,3.7-13.1,8.7-13.1H435
	c5,0,9,6,9,13.1V283.7z"/>
<path fill="#0071BC" d="M437,278.4c0,7.1-4.7,13.6-9.7,13.6H312c-5,0-9-6.5-9-13.6v-59.6c0-7.1,4-12.8,9-12.8h115.3
	c5,0,9.7,5.7,9.7,12.8V278.4z"/>
<g>
	<path fill="#F2F2F2" d="M351.9,225.2h-6.2v0.7H344v-0.7h-4.5v-1.6h4.5v-0.9h1.7v0.9h6.2v-0.9h1.7v0.9h4.8v1.6h-4.8v0.6h-1.7V225.2z
		 M348.1,240.1v-0.8h-7v-1.4h7v-1h-6.8c-0.1,0-0.2-0.1-0.2-0.2v-5.3c0-0.1,0-0.2,0.2-0.2h6.8v-0.9h-8.4v-1.4h8.4v-0.8
		c-1.7,0.1-3.2,0.1-4.6,0.1c-0.7,0-1.3,0-1.9,0l-0.1-1.5c0.6,0,1.2,0,1.9,0c1.8,0,9.2-0.1,12.7-0.8l0.2,1.5
		c-1.2,0.2-3.1,0.4-5.8,0.6l-0.7,0.1v0.8h8.5v1.4h-8.5v0.9h6.7c0.1,0,0.2,0.1,0.2,0.2v5.3c0,0.1-0.1,0.2-0.2,0.2h-6.7v1h7.1v1.4
		h-7.1v0.8h8.2v1.6h-18.3v-1.6H348.1z M348.1,233.3v-0.9h-5.3c-0.1,0-0.1,0-0.1,0.1v0.8H348.1z M348.1,235.4v-0.8h-5.3v0.7l0.1,0.1
		H348.1z M349.9,232.4v0.9h5.3v-0.8l-0.1-0.1H349.9z M349.9,234.6v0.8h5.2l0.1-0.1v-0.7H349.9z"/>
	<path fill="#F2F2F2" d="M369.1,233.1H362v-1.6h7.2v-1h-7c-0.1,0-0.2-0.1-0.2-0.3v-3.8c0-0.1,0.1-0.2,0.2-0.2h7v-1h-8.7v-1.6h8.7
		v-0.9h1.8v0.9h8.5v1.6h-8.5v1h6.9c0.1,0,0.2,0.1,0.2,0.2v3.8c0,0.2-0.1,0.3-0.2,0.3h-6.9v1h6.5c0.4,0,0.5,0.2,0.5,0.5v2.3h1.7v1.6
		h-1.7v2.2c0,0.4-0.2,0.5-0.5,0.5h-6.5v1.4c0,0.4,0,2.2-2.5,2.2c-0.8,0-1.8-0.2-3-0.5l0-1.9c1.2,0.4,2.1,0.5,2.7,0.5
		c0.9,0,1-0.3,1-0.8v-0.9H362v-1.6h7.1V236h-8.8v-1.6h8.8V233.1z M369.1,229v-1.2h-5.4c-0.1,0-0.1,0-0.1,0.1v1c0,0.1,0,0.1,0.1,0.1
		H369.1z M370.9,227.8v1.2h5.3l0.1-0.1v-1c0-0.1,0-0.1-0.1-0.1H370.9z M370.9,233.1v1.2h5.3v-1.1c0-0.1,0-0.1-0.1-0.1H370.9z
		 M370.9,236v1.2h5.1c0.1,0,0.1-0.1,0.1-0.2v-1H370.9z"/>
	<path fill="#F2F2F2" d="M390.7,233.8c0.8,1.3,1.7,2.4,2.7,3.4c1.7-1,3.1-2,4.2-2.9l1,1.5l-3.7,2.6c1.4,0.9,3.3,1.6,5.8,2.1
		l-0.9,1.8c-3-0.8-7.2-1.9-11.3-8.4h-2.8v6.1l1.2-0.3c1.6-0.3,2.9-0.7,3.9-1l0.7,1.7c-2.5,0.8-5.7,1.5-9.5,1.9l-0.5-1.8l2.6-0.3
		v-6.4h-2.4V232h2.7v-8.2c0-0.3,0.1-0.4,0.4-0.4h14.5v1.7h-12.9c-0.1,0-0.2,0.1-0.2,0.2v1h12.5v1.7H386v1.2h12.5v1.7H386v1.1h14.4
		v1.8H390.7z"/>
	<path fill="#F2F2F2" d="M342.9,266c-0.5,2.5-1.3,4.5-2.4,6c-0.5-0.5-1-0.8-1.4-1c1.1-1.6,1.8-3.4,2-5.5L342.9,266z M341.3,264.3
		c-0.3,0-0.3-0.1-0.3-0.8v-9.4c0-0.3,0.1-0.4,0.4-0.4h16v1.6h-7.2v1.5h6.5v1.5h-6.5v1.3h6.6v1.5h-6.6v1.4h7.6c0.3,0,0.4,0.1,0.4,0.3
		v0.8c0,3.1-0.1,5.2-0.3,6.3c-0.3,2.3-2.3,2.3-3.2,2.3c-0.7,0-1.5-0.1-2.5-0.2l0-1.9c1.4,0.3,2.4,0.5,2.8,0.5c1.5,0,1.5-2.1,1.5-4.3
		c0-0.6,0-1.2,0-2c0-0.1-0.1-0.2-0.2-0.2H341.3z M348.3,256.9v-1.5h-5.4c-0.1,0-0.2,0.1-0.2,0.2v1.3H348.3z M348.3,259.8v-1.3h-5.6
		v1.3H348.3z M342.8,262.7h5.6v-1.4h-5.6V262.7z M345.1,271.5c-0.1-1.8-0.3-3.7-0.7-5.6l1.6-0.2c0.4,2.5,0.7,4.4,0.7,5.7
		L345.1,271.5z M349.2,270.7c-0.3-1.7-0.7-3.3-1.3-4.8l1.6-0.4c0.6,1.7,1.1,3.4,1.4,4.9L349.2,270.7z M353.3,269.5
		c-0.5-1.4-1.1-2.8-1.7-3.9l1.5-0.6c0.7,1.4,1.3,2.7,1.7,4L353.3,269.5z"/>
	<path fill="#F2F2F2" d="M360.3,269.8c2.7-2.1,4.8-4.7,6.4-7.7h-5.9v-1.8h6.7l1.2-3.3l1.7,0.5l-1,2.8h9.7v1.8h-10.5
		c-1.7,3.4-4,6.4-6.8,9L360.3,269.8z M369.1,254.6V253h1.8v1.6h7.2l1.6,0.8c-0.1,1.1-0.5,2.5-1,4.1l-1.7-0.6
		c0.4-1.4,0.6-2.1,0.6-2.3c0-0.1-0.1-0.2-0.3-0.2H363c-0.1,0-0.1,0.1-0.1,0.2v2.7h-1.8v-4.3c0-0.2,0.1-0.3,0.3-0.3H369.1z
		 M377.4,270.9l-12.9,1.1l-0.5-1.8l2-0.1c1.7-2.1,3.2-4.5,4.7-7.1l1.5,0.9c-0.9,1.6-2.2,3.6-3.8,5.9l8.1-0.6l-0.4-0.7l-1.7-2.8
		l1.7-0.9c1.6,2.6,2.9,4.9,3.8,6.8l-1.7,0.8L377.4,270.9z"/>
	<path fill="#F2F2F2" d="M381.4,261.1h19.2v1.6h-19.2V261.1z M389.1,259.7l-6.9,0.8l-0.5-1.7l1.3-0.1c0.9-1,1.7-2.1,2.5-3.3l1.3,0.9
		l-1.5,2.2l2.9-0.3l-0.8-1.4l1.5-0.7c0.8,1.5,1.5,2.9,2,4l-1.5,0.6L389.1,259.7z M382.3,253.6h17.5v1.6h-17.5V253.6z M385,271.5v1
		h-1.8v-8.4c0-0.2,0.1-0.3,0.3-0.3h14.8c0.3,0,0.4,0.1,0.4,0.4v8.4h-1.8v-1H385z M385,266.8h11.9v-1.1c0-0.2-0.1-0.3-0.3-0.3h-11.4
		c-0.2,0-0.3,0.1-0.3,0.3V266.8z M396.9,268.5H385v1.3h11.9V268.5z M398.1,259.8l-6.6,0.6l-0.4-1.6l0.9-0.1c0.7-1,1.3-2.2,1.9-3.4
		l1.4,0.8c-0.3,0.7-0.8,1.6-1.4,2.5l3.3-0.3l-0.9-1.5l1.4-0.8c0.9,1.3,1.6,2.6,2.2,4l-1.4,0.7L398.1,259.8z"/>
</g>
<path fill="#1B1464" d="M682,283.7c0,7.1-4,13.3-9,13.3H557.7c-5,0-8.7-6.2-8.7-13.3v-59.6c0-7.1,3.7-13.1,8.7-13.1H673
	c5,0,9,6,9,13.1V283.7z"/>
<path fill="#0071BC" d="M675,278.4c0,7.1-4.7,13.6-9.7,13.6H550c-5,0-9-6.5-9-13.6v-59.6c0-7.1,4-12.8,9-12.8h115.3
	c5,0,9.7,5.7,9.7,12.8V278.4z"/>
<g>
	<path fill="#F2F2F2" d="M579.8,238.1v-6.4h-2.2v-1.6h2.2V225h-2.3v-1.6h6.3v1.6h-2.2v5.2h2.1v1.6h-2.1v5.8c1-0.4,1.7-0.7,2.2-0.9
		l0.7,1.6c-0.9,0.5-4.8,1.9-6.6,2.3l-0.7-1.7L579.8,238.1z M589.3,239.9v-2.5h-4.8v-1.6h4.8v-2.1h-4.6c-0.1,0-0.2-0.1-0.2-0.3v-9.9
		c0-0.1,0.1-0.2,0.2-0.2h11c0.1,0,0.2,0.1,0.2,0.2v9.9c0,0.2-0.1,0.3-0.2,0.3h-4.7v2.1h5v1.6h-5v2.5h5.8v1.6h-13.2v-1.6H589.3z
		 M589.3,227.8V225h-3.1c-0.1,0-0.1,0-0.1,0.1v2.8H589.3z M589.3,232.1v-2.7h-3.1v2.6l0.1,0.1H589.3z M591.1,225v2.8h3.2V225
		l-0.1-0.1H591.1z M591.1,229.4v2.7h3.1l0.1-0.1v-2.6H591.1z"/>
	<path fill="#F2F2F2" d="M607.1,233.1H600v-1.6h7.2v-1h-7c-0.1,0-0.2-0.1-0.2-0.3v-3.8c0-0.1,0.1-0.2,0.2-0.2h7v-1h-8.7v-1.6h8.7
		v-0.9h1.8v0.9h8.5v1.6h-8.5v1h6.9c0.1,0,0.2,0.1,0.2,0.2v3.8c0,0.2-0.1,0.3-0.2,0.3h-6.9v1h6.5c0.4,0,0.5,0.2,0.5,0.5v2.3h1.7v1.6
		h-1.7v2.2c0,0.4-0.2,0.5-0.5,0.5h-6.5v1.4c0,0.4,0,2.2-2.5,2.2c-0.8,0-1.8-0.2-3-0.5l0-1.9c1.2,0.4,2.1,0.5,2.7,0.5
		c0.9,0,1-0.3,1-0.8v-0.9H600v-1.6h7.1V236h-8.8v-1.6h8.8V233.1z M607.1,229v-1.2h-5.4c-0.1,0-0.1,0-0.1,0.1v1c0,0.1,0,0.1,0.1,0.1
		H607.1z M608.9,227.8v1.2h5.3l0.1-0.1v-1c0-0.1,0-0.1-0.1-0.1H608.9z M608.9,233.1v1.2h5.3v-1.1c0-0.1,0-0.1-0.1-0.1H608.9z
		 M608.9,236v1.2h5.1c0.1,0,0.1-0.1,0.1-0.2v-1H608.9z"/>
	<path fill="#F2F2F2" d="M628.7,233.8c0.8,1.3,1.7,2.4,2.7,3.4c1.7-1,3.1-2,4.2-2.9l1,1.5l-3.7,2.6c1.4,0.9,3.3,1.6,5.8,2.1
		l-0.9,1.8c-3-0.8-7.2-1.9-11.3-8.4h-2.8v6.1l1.2-0.3c1.6-0.3,2.9-0.7,3.9-1l0.7,1.7c-2.5,0.8-5.7,1.5-9.5,1.9l-0.5-1.8l2.6-0.3
		v-6.4h-2.4V232h2.7v-8.2c0-0.3,0.1-0.4,0.4-0.4h14.5v1.7h-12.9c-0.1,0-0.2,0.1-0.2,0.2v1h12.5v1.7H624v1.2h12.5v1.7H624v1.1h14.4
		v1.8H628.7z"/>
	<path fill="#F2F2F2" d="M579.7,264.3v0.3l-1.8-0.1v-6.1c0-0.3,0.1-0.3,0.4-0.4h4.2v-2.5c0-0.2-0.1-0.3-0.3-0.3h-4.3v-1.8h6
		c0.2,0,0.3,0.1,0.3,0.3v6.2h-1.8v-0.2H580l-0.2,0.1l-0.1,0.2v2.3h3.9c0.4,0,0.4,0.3,0.4,0.5c0,1.9,0.1,3.4,0.1,4.6
		c0,2.6,0,3.3-1,4.1c-0.4,0.3-1.3,0.6-1.9,0.6c-0.7,0-1.8-0.2-3.1-0.6l-0.1-1.9c1.3,0.4,2.3,0.5,3,0.5c1.5,0,1.5-0.4,1.5-2.9
		c0-0.7,0-1.7,0-2.8c0-0.2-0.1-0.2-0.3-0.2H579.7z M590.7,263.7c0.3,1,0.6,1.9,1,2.7c1.8-0.9,3.1-1.6,3.7-2l0.7,1.5
		c-0.6,0.4-1.8,1-3.5,1.9c0.9,1.2,2.3,2.3,4.2,3.3l-1.3,1.3l-1.9-1.4c-2.2-1.7-3.7-4.2-4.4-7.4h-1.6v6.4c1.2-0.3,2.2-0.5,2.8-0.8
		l0.5,1.7c-1.5,0.5-3.6,1-6.2,1.4l-0.5-1.7l1.6-0.2v-6.8h-1.3v-1.6h1.3v-8.3c0-0.3,0.1-0.4,0.4-0.4h9.1v1.6h-7.6
		c-0.1,0-0.2,0.1-0.2,0.2v1.2h7.4v1.5h-7.4v1.3h7.4v1.6h-7.4v1.3h8.7v1.6H590.7z"/>
	<path fill="#F2F2F2" d="M604.8,271.3v0.9H603v-6c-1,0.7-2.2,1.4-3.7,2.2l-1.2-1.5c2.6-1,4.6-2.4,6-4.2h-3.9v-1.8h5l0.7-1.9h-7.5
		v-1.8h7.8l0-1.1v-0.8h-5.9v-1.8h15.2c0.4,0,0.6,0.2,0.6,0.5v3.1h1.5v1.8h-1.5v3.1c0,0.4-0.2,0.6-0.6,0.6h-9.3
		c-0.1,0.2-0.9,1.3-1.5,2H616c0.3,0,0.4,0.1,0.4,0.4v7.2h-1.8v-0.9H604.8z M604.8,269.5h9.9v-2.9c0-0.2-0.1-0.3-0.3-0.3H605
		c-0.2,0-0.3,0.1-0.3,0.3V269.5z M607.6,259.4l-0.5,1.4h7c0.1,0,0.2-0.1,0.2-0.2V259h-6.6L607.6,259.4z M608.1,256.1l-0.1,1.1h6.3
		v-1.7c0-0.1-0.1-0.2-0.2-0.2h-6.1V256.1z"/>
	<path fill="#F2F2F2" d="M619.1,270.7c1.2-0.4,2-0.9,2.3-1.4c0.3-0.4,0.5-0.9,0.6-1.4v-3.7c0-0.2-0.1-0.3-0.2-0.3h-2v-1.8h3.6
		c0.3,0,0.4,0.1,0.4,0.5v5c0.1,0.4,0.3,0.9,0.7,1.3c0.7,1,2.1,1.5,4.3,1.5h1.7v-2.2h-5.3v-1.6h5.3v-1.3h-4.5v-1.6h4.5v-1.3h-5.1
		v-1.5h2.7l-0.9-2.2h-2.5v-1.6h5.8v-1.4h-4.9v-1.6h4.9v-1.2h1.7v1.2h5v1.6h-5v1.4h5.9v1.6h-2.9l-0.6,2.2h3v1.5h-5.4v1.3h4.7v1.6
		h-4.7v1.3h5.8v1.6h-5.8v2.1l6.1-0.3l-0.4,2l-9.8,0c-2.6-0.1-4.3-1-5.1-2.5c-0.4,0.8-1.7,2.2-3.2,2.7L619.1,270.7z M623,260.9
		c-1.3-0.9-2.5-1.6-3.4-2l0.9-1.6c1,0.4,2.2,1.1,3.5,2L623,260.9z M623.4,256.9c-1.3-0.9-2.4-1.6-3.3-2l0.9-1.6c1,0.4,2.2,1.1,3.4,2
		L623.4,256.9z M629.9,260.9h3l0.7-2.2h-4.5L629.9,260.9z"/>
</g>
<path fill="#1B1464" d="M229,392.2c0,6.2-6.2,10.8-13.5,10.8H48.9c-7.2,0-12.9-4.6-12.9-10.8v-52.3c0-6.2,5.6-10.9,12.9-10.9h166.7
	c7.2,0,13.5,4.7,13.5,10.9V392.2z"/>
<path fill="#F7931E" d="M224,387.5c0,6.2-6,11.5-13.2,11.5H44.1c-7.2,0-13.1-5.3-13.1-11.5v-52.3c0-6.2,5.9-11.2,13.1-11.2h166.7
	c7.2,0,13.2,5,13.2,11.2V387.5z"/>
<g>
	<path d="M102.3,358l-16.1,1.3l-0.5-1.8l2-0.1c1.5-1.8,2.8-3.8,4.1-6.1l1.5,0.9c-0.7,1.4-1.8,3-3.2,5l10.7-0.8
		c-0.2-0.3-1.1-1.2-2.6-2.7l1.4-1.2c2.4,2.4,4.3,4.5,5.6,6.2l-1.4,1.1L102.3,358z M89.7,369.6v0.9h-1.9v-8.8c0-0.4,0.2-0.7,0.7-0.7
		h13.9c0.4,0,0.7,0.2,0.7,0.7v8.8h-1.9v-0.9H89.7z M89.7,367.8h11.5v-4.7c0-0.2-0.1-0.3-0.3-0.3H90c-0.2,0-0.3,0.1-0.3,0.3V367.8z"
		/>
	<path d="M106.7,366.8c2.1-1.1,4.1-2.3,6-3.7v-5.8h-5.6v-1.9h5.6v-4.1h1.9v19.1h-1.9v-5.1c-1.4,1-3.1,2-5,2.9L106.7,366.8z
		 M118.9,357.7c2.3-1.6,4.1-3,5.4-4.2l1.2,1.4c-1.7,1.6-3.8,3.3-6.5,5.1v7.3c0,0.7,0,1.2,1.2,1.2h2.6c0.6,0,1-0.2,1.2-0.5
		c0.2-0.4,0.3-1.6,0.3-3.5l1.9,0.3c0,2.3-0.1,4.2-0.6,4.8c-0.6,0.7-1,0.8-2.2,0.8h-4c-1.6,0-2.3-1.1-2.2-2.8v-16.5h1.9V357.7z"/>
	<path d="M127.6,369.3c0.6-2.5,0.9-4.6,1-6.1l1.4,0.2c-0.1,1.7-0.4,3.8-1,6.2L127.6,369.3z M130.6,361.7L128,362
		c-0.1-0.5-0.2-1-0.4-1.6l1.3-0.2c0.5-0.6,1-1.3,1.6-2.1c-0.9-0.9-1.8-1.6-2.8-2.1l0.8-1.4l0.5,0.3c0.6-1.1,1.1-2.4,1.6-3.7l1.5,0.7
		c-0.4,1-1,2.3-1.8,3.9l1.1,0.9c0.6-1.1,1-2.2,1.3-3.2l1.6,0.4c-0.4,1.6-1.5,3.6-3.3,6l2.1-0.3l-0.3-1.2l1.4-0.3
		c0.3,1,0.6,2.3,0.7,3.9l-1.5,0.2l-0.1-0.9l-1,0.1v9.1h-1.6V361.7z M133.4,367.7c-0.1-1.4-0.3-2.9-0.7-4.4l1.4-0.2
		c0.3,1.4,0.6,2.9,0.7,4.5L133.4,367.7z M137.5,364.1c-0.2,2.3-0.8,4.2-1.6,5.7c-0.5-0.4-1-0.7-1.4-0.8c0.8-1.5,1.2-3.2,1.3-5.1
		L137.5,364.1z M146.3,362.3c0,0.1-0.1,0.2-0.2,0.2h-10.4c-0.1,0-0.2-0.1-0.2-0.2V353c0-0.1,0.1-0.2,0.2-0.2h3.5l0.9-1.6l1.4,0.8
		l-0.4,0.8h5c0.1,0,0.2,0.1,0.2,0.2V362.3z M144.6,354.2h-7.4c-0.1,0-0.1,0-0.1,0.1v6.7l0.1,0.1h7.4l0.1-0.1L144.6,354.2
		L144.6,354.2z M139.5,357.6c-0.4,0.3-0.8,0.7-1.4,1l-0.7-1.1l1-0.6l-0.9-0.5l0.7-1.2l1.2,0.7c0.3-0.4,0.6-0.9,0.8-1.4l1.3,0.1
		l-0.1,0.3h2.2l1,0.7c-0.5,1.2-1.1,2.1-1.7,2.8l1.6,1.3l-1,1.1l-1.7-1.4c-0.9,0.6-2,1.1-3.1,1.5l-0.7-1.3c0.8-0.2,1.7-0.5,2.8-1
		L139.5,357.6z M138,363.2h1.6v4.6c0,0.5,0.4,0.9,0.9,0.9h1.9c0.3,0,0.5-0.1,0.6-0.4l0.3-1.5l1.5,0.5c-0.2,1.4-0.4,2.2-0.6,2.4
		c-0.4,0.4-0.8,0.7-1.2,0.7h-3.5c-0.7,0-1.6-0.8-1.6-1.6V363.2z M141.3,367.3c-0.3-1.6-0.6-2.9-1-3.8l1.6-0.5c0.4,1,0.8,2.4,1,3.9
		L141.3,367.3z M140.4,356.6l1.4,1l0.8-0.9c0-0.1,0-0.1,0-0.2c0-0.1,0-0.1-0.1-0.1h-1.9L140.4,356.6z M145.6,369.4
		c-0.5-2.3-1.1-4.1-1.7-5.4l1.6-0.5c0.7,1.4,1.2,3.3,1.7,5.5L145.6,369.4z"/>
	<path d="M155.3,359.3c0.7-1.8,1.2-3.3,1.4-4.4l1.5,0.5c-0.2,1-0.6,2.2-1.2,3.8h2.6v1.6H149v-1.6H155.3z M153.4,352.8v-1.5h1.8v1.5
		h4v1.6h-9.8v-1.6H153.4z M151.2,369.6v0.9h-1.7v-7.7c0-0.2,0.1-0.3,0.3-0.3h8.8c0.3,0,0.4,0.1,0.4,0.3v7.6h-1.7v-0.9H151.2z
		 M151.5,358.8c-0.3-1.3-0.7-2.4-1-3.3l1.5-0.5c0.5,1.5,0.9,2.7,1.1,3.4L151.5,358.8z M151.2,368h6v-3.6c0-0.1-0.1-0.2-0.3-0.2h-5.5
		c-0.2,0-0.3,0.1-0.3,0.3V368z M162.3,353.5c-0.2,0-0.3,0.1-0.3,0.3v16.9h-1.8v-18.5c0-0.2,0.1-0.3,0.3-0.3h6l1.2,0.9l-1.9,6.2
		c0,0.1,0,0.1,0,0.2c0,0.1,0,0.2,0.1,0.3c1.6,2.2,2.3,3.7,2.3,5.7c0,1.8-0.8,3.7-2.9,3.7c-0.7,0-1.6-0.2-2.6-0.6l0.2-1.9
		c0.9,0.5,1.7,0.8,2.3,0.8c0.1,0,0.3,0,0.4,0c0.7-0.2,1-0.8,1-2.1c0-1.5-0.8-3-2.4-5.2c-0.1-0.2-0.2-0.3-0.2-0.4l1.7-5.4l0-0.3
		H162.3z"/>
</g>
<path fill="#1B1464" d="M473,392.2c0,6.2-6.2,10.8-13.5,10.8H292.9c-7.2,0-12.9-4.6-12.9-10.8v-52.3c0-6.2,5.6-10.9,12.9-10.9h166.7
	c7.2,0,13.5,4.7,13.5,10.9V392.2z"/>
<path fill="#F7931E" d="M468,387.5c0,6.2-6,11.5-13.2,11.5H288.1c-7.2,0-13.1-5.3-13.1-11.5v-52.3c0-6.2,5.9-11.2,13.1-11.2h166.7
	c7.2,0,13.2,5,13.2,11.2V387.5z"/>
<g>
	<path d="M330.7,367.7c0.4-2.3,0.8-4.5,0.9-6.6l1.6,0.3c-0.4,3.4-0.7,5.6-0.9,6.7L330.7,367.7z M333.9,359.7l-2.7,0.4
		c-0.1-0.5-0.3-1-0.5-1.7l1.3-0.2c0.6-0.6,1.2-1.3,1.8-2.2c-1-1-2.1-1.8-3.2-2.4l0.8-1.5l0.7,0.4c0.5-1,1.1-2.1,1.6-3.3l1.5,0.8
		c-0.4,0.9-1,2-1.8,3.4l1.3,1.2c0.7-1.3,1.3-2.5,1.6-3.7l1.6,0.5c-0.4,1.7-1.7,3.9-3.8,6.5l2.2-0.4l-0.4-1.2l1.5-0.5
		c0.7,2,1.2,3.4,1.3,4.3l-1.6,0.4l-0.3-1.3l-1.4,0.2v9.2h-1.7V359.7z M338,361l0.6,4.3l-1.6,0.2l-0.6-4.2L338,361z M340.1,366.3
		l0.7-6.9h-1.7v-1.8h1.9l0.6-5.9h-2.4v-1.8h9c0.3,0,0.8,0.4,0.8,0.8l-0.5,6.9h1.6v1.8h-1.7l-0.5,6.9h2.2v1.8h-12.2v-1.8H340.1z
		 M341.9,366.3h4.2l0.5-6.9h-3.9L341.9,366.3z M342.8,357.6h3.9l0.4-5.6c0-0.1,0-0.1,0-0.1c0-0.1-0.1-0.2-0.3-0.2h-3.4L342.8,357.6z
		"/>
	<path d="M351.7,367.3c0.6-2.6,1-4.8,1-6.4l1.7,0.2c0,1.8-0.4,4-1,6.5L351.7,367.3z M355.5,359.5l-3.3,0.4c-0.1-0.5-0.2-1-0.4-1.7
		l1.5-0.1c0.5-0.6,1.2-1.2,1.8-2c-1.1-1-2.2-1.9-3.3-2.5l0.8-1.5c0.1,0,0.4,0.2,1,0.6c0.6-1,1.1-2.2,1.7-3.4l1.5,0.8
		c-0.4,0.9-1,2.1-2,3.5l1.2,1c0.8-1.3,1.5-2.6,1.9-3.8l1.6,0.6c-0.5,1.6-1.9,3.8-4.1,6.4l2.8-0.4l-0.6-1.4l1.6-0.6
		c0.8,1.9,1.3,3.4,1.6,4.4l-1.6,0.4l-0.4-1.2l-1.7,0.2v9.4h-1.7V359.5z M359.7,361l1.1,5.5l-1.7,0.4l-1.1-5.4L359.7,361z
		 M362.4,352.6c-0.4,1-1,2.1-1.8,3l-1.5-1c1.6-2,1.9-3.1,2.2-5.4l1.8,0.1l-0.2,1.4h7.3c0.5,0.1,0.7,0.2,0.7,1c0,3.2,0,6.1-0.1,8.6
		c-0.1,4.1-0.9,6.7-2.4,7.6c-0.5,0.3-1.3,0.5-2.2,0.5c-1,0-2.2-0.2-3.6-0.5l-0.1-2.1c1.5,0.4,2.7,0.7,3.5,0.7c1.2,0,1.8-0.4,2.5-2
		c0.3-0.9,0.5-2.4,0.5-4.5c0.1-2.4,0.1-4.2,0.1-5.4c0-1.2,0-1.9-0.1-2c0-0.1-0.1-0.1-0.2-0.1H362.4z M364.6,363.1
		c-0.5-2.2-1.3-4.6-2.3-7.3l1.7-0.5c1.1,2.9,1.9,5.4,2.4,7.4L364.6,363.1z"/>
	<path d="M372.6,367.3c0.6-2.5,0.9-4.6,1-6.1l1.4,0.2c-0.1,1.7-0.4,3.8-1,6.2L372.6,367.3z M375.6,359.7L373,360
		c-0.1-0.5-0.2-1-0.4-1.6l1.3-0.2c0.5-0.6,1-1.3,1.6-2.1c-0.9-0.9-1.8-1.6-2.8-2.1l0.8-1.4l0.5,0.3c0.6-1.1,1.1-2.4,1.6-3.7l1.5,0.7
		c-0.4,1-1,2.3-1.8,3.9l1.1,0.9c0.6-1.1,1-2.2,1.3-3.2l1.6,0.4c-0.4,1.6-1.5,3.6-3.3,6l2.1-0.3l-0.3-1.2l1.4-0.3
		c0.3,1,0.6,2.3,0.7,3.9l-1.5,0.2l-0.1-0.9l-1,0.1v9.1h-1.6V359.7z M378.4,365.7c-0.1-1.4-0.3-2.9-0.7-4.4l1.4-0.2
		c0.3,1.4,0.6,2.9,0.7,4.5L378.4,365.7z M382.5,362.1c-0.2,2.3-0.8,4.2-1.6,5.7c-0.5-0.4-1-0.7-1.4-0.8c0.8-1.5,1.2-3.2,1.3-5.1
		L382.5,362.1z M391.3,360.3c0,0.1-0.1,0.2-0.2,0.2h-10.4c-0.1,0-0.2-0.1-0.2-0.2V351c0-0.1,0.1-0.2,0.2-0.2h3.5l0.9-1.6l1.4,0.8
		l-0.4,0.8h5c0.1,0,0.2,0.1,0.2,0.2V360.3z M389.6,352.2h-7.4c-0.1,0-0.1,0-0.1,0.1v6.7l0.1,0.1h7.4l0.1-0.1L389.6,352.2
		L389.6,352.2z M384.5,355.6c-0.4,0.3-0.8,0.7-1.4,1l-0.7-1.1l1-0.6l-0.9-0.5l0.7-1.2l1.2,0.7c0.3-0.4,0.6-0.9,0.8-1.4l1.3,0.1
		l-0.1,0.3h2.2l1,0.7c-0.5,1.2-1.1,2.1-1.7,2.8l1.6,1.3l-1,1.1l-1.7-1.4c-0.9,0.6-2,1.1-3.1,1.5l-0.7-1.3c0.8-0.2,1.7-0.5,2.8-1
		L384.5,355.6z M383,361.2h1.6v4.6c0,0.5,0.4,0.9,0.9,0.9h1.9c0.3,0,0.5-0.1,0.6-0.4l0.3-1.5l1.5,0.5c-0.2,1.4-0.4,2.2-0.6,2.4
		c-0.4,0.4-0.8,0.7-1.2,0.7h-3.5c-0.7,0-1.6-0.8-1.6-1.6V361.2z M386.3,365.3c-0.3-1.6-0.6-2.9-1-3.8l1.6-0.5c0.4,1,0.8,2.4,1,3.9
		L386.3,365.3z M385.4,354.6l1.4,1l0.8-0.9c0-0.1,0-0.1,0-0.2c0-0.1,0-0.1-0.1-0.1h-1.9L385.4,354.6z M390.6,367.4
		c-0.5-2.3-1.1-4.1-1.7-5.4l1.6-0.5c0.7,1.4,1.2,3.3,1.7,5.5L390.6,367.4z"/>
	<path d="M400.3,357.3c0.7-1.8,1.2-3.3,1.4-4.4l1.5,0.5c-0.2,1-0.6,2.2-1.2,3.8h2.6v1.6H394v-1.6H400.3z M398.4,350.8v-1.5h1.8v1.5
		h4v1.6h-9.8v-1.6H398.4z M396.2,367.6v0.9h-1.7v-7.7c0-0.2,0.1-0.3,0.3-0.3h8.8c0.3,0,0.4,0.1,0.4,0.3v7.6h-1.7v-0.9H396.2z
		 M396.5,356.8c-0.3-1.3-0.7-2.4-1.1-3.3l1.5-0.5c0.5,1.5,0.9,2.7,1.1,3.4L396.5,356.8z M396.2,366h6v-3.6c0-0.1-0.1-0.2-0.3-0.2
		h-5.5c-0.2,0-0.3,0.1-0.3,0.3V366z M407.3,351.5c-0.2,0-0.3,0.1-0.3,0.3v16.9h-1.8v-18.5c0-0.2,0.1-0.3,0.3-0.3h6l1.2,0.9l-1.9,6.2
		c0,0.1,0,0.1,0,0.2c0,0.1,0,0.2,0.1,0.3c1.6,2.2,2.3,3.7,2.3,5.7c0,1.8-0.8,3.7-2.9,3.7c-0.7,0-1.6-0.2-2.6-0.6l0.2-1.9
		c0.9,0.5,1.7,0.8,2.3,0.8c0.1,0,0.3,0,0.4,0c0.7-0.2,1-0.8,1-2.1c0-1.5-0.8-3-2.4-5.2c-0.1-0.2-0.2-0.3-0.2-0.4l1.7-5.4l0-0.3
		H407.3z"/>
</g>
<path fill="#1B1464" d="M710,392.2c0,6.2-6.2,10.8-13.5,10.8H529.9c-7.2,0-12.9-4.6-12.9-10.8v-52.3c0-6.2,5.6-10.9,12.9-10.9h166.7
	c7.2,0,13.5,4.7,13.5,10.9V392.2z"/>
<path fill="#F7931E" d="M705,387.5c0,6.2-6,11.5-13.2,11.5H525.1c-7.2,0-13.1-5.3-13.1-11.5v-52.3c0-6.2,5.9-11.2,13.1-11.2h166.7
	c7.2,0,13.2,5,13.2,11.2V387.5z"/>
<g>
	<path d="M536.1,369.6c1.5-2.2,2.4-4.6,2.7-7.2l1.7,0.3c-0.5,3.2-1.4,5.7-2.7,7.7L536.1,369.6z M539.4,360.8c-1.2-1.2-2.3-2-3.1-2.5
		l1.1-1.4c1,0.6,2.1,1.4,3.3,2.6L539.4,360.8z M539.7,355.5c-1.2-1.1-2.2-1.9-3-2.4l1.1-1.4c0.9,0.6,2,1.4,3,2.5L539.7,355.5z
		 M543.4,361.3v-4.6H541v-1.7h2.5v-3.6h1.7v3.6h1.9v1.7h-1.9v3.7l1.4-0.9l1,1.5c-0.7,0.4-1.4,0.8-2.2,1.2l-0.2,0.1v6.2
		c0,0.4-0.1,2-2.1,2c-0.6,0-1.4-0.1-2.4-0.4l0-1.8l1.3,0.4c0.2,0,0.4,0.1,0.6,0.1c0.8,0,0.8-0.4,0.8-0.7v-5l-1.8,0.7l-0.9-1.6
		L543.4,361.3z M552,358h-2.2v3.3c0,3.2-0.8,6.2-2.3,9l-1.6-1c1.6-2.7,2.1-4.6,2.2-7.9v-8.7c0-0.3,0.1-0.5,0.4-0.6
		c2.2-0.2,4.2-0.5,6.1-0.9l0.7,1.7c-1.4,0.3-3.2,0.6-5.2,0.8c-0.2,0-0.3,0.1-0.3,0.3v2.3h5.9v1.7h-1.9v12.6H552V358z"/>
	<path d="M561.2,361.2c-1.5-1.3-2.9-2.2-3.9-2.8l1-1.5c1.2,0.6,2.6,1.6,4,2.8L561.2,361.2z M557.4,369.3c2-1.9,3.5-4.2,4.4-6.8
		l1.7,0.6c-1.2,3.2-2.8,5.6-4.5,7.3L557.4,369.3z M561.9,355.9c-1.5-1.3-2.8-2.3-3.8-2.9l1-1.5c1.2,0.7,2.5,1.7,3.9,3L561.9,355.9z
		 M570.7,353.9v14.2h5.9v1.8h-13.9v-1.8h6.2v-14.2h-5v-1.8h12.2v1.8H570.7z"/>
	<path d="M583.6,369.8v1h-1.8v-10l-2.9,0.4l-0.6-1.9c2.3-0.2,4.6-0.5,6.8-0.9c2.8-0.6,5.6-2,8.4-4l-1.5-1.8l1.4-1.1
		c1.4,1.5,2.9,3.5,4.3,6l-1.5,1l-1.7-2.6c-2.9,2.1-4.5,3.1-7.5,3.8l-0.2,0.1h8.7c0.3,0,0.4,0.1,0.4,0.4v10.7h-1.8v-1H583.6z
		 M578.7,356.7c2.1-1.3,3.7-3,4.9-5.1l1.5,0.9c-1.6,2.6-3.4,4.4-5.1,5.5L578.7,356.7z M583.6,362.6h10.5v-1c0-0.2-0.1-0.3-0.3-0.3
		h-10c-0.2,0-0.3,0.1-0.2,0.3V362.6z M583.6,365.5h10.5v-1.2h-10.5V365.5z M594.1,367.1h-10.5v1.1h10.5V367.1z M587.9,351.3h1.8v3.9
		c0,0.6-0.3,2.2-2.6,2.2c-0.7,0-1.5-0.1-2.4-0.4l-0.1-1.9c0.9,0.3,1.7,0.4,2.2,0.4c1,0,1.1-0.4,1.1-0.8V351.3z"/>
	<path d="M608.1,364.2h-8.6v-1.8h8.6v-8.7h-7.9v-1.8h17.6v1.8h-7.9v8.7h8.5v1.8h-8.5v6.4h-1.8V364.2z M603.5,361.3
		c-1.1-2.4-2.1-4.2-3-5.4l1.6-0.9c1,1.4,2.1,3.3,3.1,5.5L603.5,361.3z M612.6,360.5c1.5-2.2,2.5-4.1,3.1-5.6l1.6,0.8
		c-0.7,1.7-1.7,3.6-3.1,5.7L612.6,360.5z"/>
	<path d="M623.2,360.5c-1.2-1-2.3-1.7-3.1-2.1l1-1.5c1,0.5,2,1.2,3.2,2.2L623.2,360.5z M620.2,369.6c1.4-2.3,2.2-4.8,2.5-7.5
		l1.7,0.2c-0.3,3.2-1.1,5.9-2.4,7.9L620.2,369.6z M623.4,355.7c-1.2-1.2-2.1-2-3-2.5l1.2-1.4c0.9,0.6,2,1.5,3.1,2.6L623.4,355.7z
		 M634.4,363.7c-0.1,2.2-0.6,4.6-1.4,6.9l-1.7-0.4l0.2-0.7h-1.6v-0.9h-3v0.9h-1.7V359c0-0.2,0.1-0.3,0.3-0.3h2v-3H625V354h2.5v-2.6
		h1.7v2.6h2.4v1.7h-2.4v3h2c0.3,0,0.4,0.1,0.4,0.4v10.2c0.8-2.5,1.2-4.8,1.2-6.8v-10.1c0-0.3,0.2-0.5,0.5-0.5h5.2
		c0.3,0,0.5,0.2,0.5,0.5v16.3c0,1.7-1,1.9-2.1,1.9c-0.4,0-0.9,0-1.5-0.1l-0.1-1.9c0.9,0.3,1.4,0.4,1.6,0.4c0.2,0,0.5-0.2,0.5-0.8
		v-4.3H634.4z M626.9,367h3v-6.3c0-0.2-0.1-0.3-0.3-0.3h-2.5c-0.2,0-0.3,0.1-0.3,0.3V367z M634.4,356.9h3v-3.3
		c0-0.1-0.1-0.2-0.2-0.2h-2.6c-0.1,0-0.2,0.1-0.2,0.2V356.9z M634.4,362.1h3v-3.5h-3V362.1z"/>
	<path d="M641.1,369.3c0.6-2.5,0.9-4.6,1-6.1l1.4,0.2c-0.1,1.7-0.4,3.8-1,6.2L641.1,369.3z M644.1,361.7l-2.6,0.3
		c-0.1-0.5-0.2-1-0.4-1.6l1.3-0.2c0.5-0.6,1-1.3,1.6-2.1c-0.9-0.9-1.8-1.6-2.8-2.1l0.8-1.4l0.5,0.3c0.6-1.1,1.1-2.4,1.6-3.7l1.5,0.7
		c-0.4,1-1,2.3-1.8,3.9l1.1,0.9c0.6-1.1,1-2.2,1.3-3.2l1.6,0.4c-0.4,1.6-1.5,3.6-3.3,6l2.1-0.3l-0.3-1.2l1.4-0.3
		c0.3,1,0.6,2.3,0.7,3.9l-1.5,0.2l-0.1-0.9l-1,0.1v9.1h-1.6V361.7z M646.9,367.7c-0.1-1.4-0.3-2.9-0.7-4.4l1.4-0.2
		c0.3,1.4,0.6,2.9,0.7,4.5L646.9,367.7z M651,364.1c-0.2,2.3-0.8,4.2-1.6,5.7c-0.5-0.4-1-0.7-1.4-0.8c0.8-1.5,1.2-3.2,1.3-5.1
		L651,364.1z M659.8,362.3c0,0.1-0.1,0.2-0.2,0.2h-10.4c-0.1,0-0.2-0.1-0.2-0.2V353c0-0.1,0.1-0.2,0.2-0.2h3.5l0.9-1.6l1.4,0.8
		l-0.4,0.8h5c0.1,0,0.2,0.1,0.2,0.2V362.3z M658.1,354.2h-7.4c-0.1,0-0.1,0-0.1,0.1v6.7l0.1,0.1h7.4l0.1-0.1L658.1,354.2
		L658.1,354.2z M653,357.6c-0.4,0.3-0.8,0.7-1.4,1l-0.7-1.1l1-0.6l-0.9-0.5l0.7-1.2l1.2,0.7c0.3-0.4,0.6-0.9,0.8-1.4l1.3,0.1
		l-0.1,0.3h2.2l1,0.7c-0.5,1.2-1.1,2.1-1.7,2.8l1.6,1.3l-1,1.1l-1.7-1.4c-0.9,0.6-2,1.1-3.1,1.5l-0.7-1.3c0.8-0.2,1.7-0.5,2.8-1
		L653,357.6z M651.5,363.2h1.6v4.6c0,0.5,0.4,0.9,0.9,0.9h1.9c0.3,0,0.5-0.1,0.6-0.4l0.3-1.5l1.5,0.5c-0.2,1.4-0.4,2.2-0.6,2.4
		c-0.4,0.4-0.8,0.7-1.2,0.7h-3.5c-0.7,0-1.6-0.8-1.6-1.6V363.2z M654.8,367.3c-0.3-1.6-0.6-2.9-1-3.8l1.6-0.5c0.4,1,0.8,2.4,1,3.9
		L654.8,367.3z M653.9,356.6l1.4,1l0.8-0.9c0-0.1,0-0.1,0-0.2c0-0.1,0-0.1-0.1-0.1h-1.9L653.9,356.6z M659.1,369.4
		c-0.5-2.3-1.1-4.1-1.7-5.4l1.6-0.5c0.7,1.4,1.2,3.3,1.7,5.5L659.1,369.4z"/>
	<path d="M668.8,359.3c0.7-1.8,1.2-3.3,1.4-4.4l1.5,0.5c-0.2,1-0.6,2.2-1.2,3.8h2.6v1.6h-10.6v-1.6H668.8z M666.9,352.8v-1.5h1.8
		v1.5h4v1.6h-9.8v-1.6H666.9z M664.7,369.6v0.9H663v-7.7c0-0.2,0.1-0.3,0.3-0.3h8.8c0.3,0,0.4,0.1,0.4,0.3v7.6h-1.7v-0.9H664.7z
		 M665,358.8c-0.3-1.3-0.7-2.4-1.1-3.3l1.5-0.5c0.5,1.5,0.9,2.7,1.1,3.4L665,358.8z M664.7,368h6v-3.6c0-0.1-0.1-0.2-0.3-0.2H665
		c-0.2,0-0.3,0.1-0.3,0.3V368z M675.8,353.5c-0.2,0-0.3,0.1-0.3,0.3v16.9h-1.8v-18.5c0-0.2,0.1-0.3,0.3-0.3h6l1.2,0.9l-1.9,6.2
		c0,0.1,0,0.1,0,0.2c0,0.1,0,0.2,0.1,0.3c1.6,2.2,2.3,3.7,2.3,5.7c0,1.8-0.8,3.7-2.9,3.7c-0.7,0-1.6-0.2-2.6-0.6l0.2-1.9
		c0.9,0.5,1.7,0.8,2.3,0.8c0.1,0,0.3,0,0.4,0c0.7-0.2,1-0.8,1-2.1c0-1.5-0.8-3-2.4-5.2c-0.1-0.2-0.2-0.3-0.2-0.4l1.7-5.4l0-0.3
		H675.8z"/>
</g>
<path fill="#F7931E" d="M160,716c0,6.6-4.5,12-10.5,12H109c-6.1,0-11-5.4-11-12V462c0-6.6,4.9-12,11-12h40.4c6.1,0,10.5,5.4,10.5,12
	V716z"/>
<g>
	<path d="M136.3,486.8l-16.1,1.3l-0.5-1.8l2-0.1c1.5-1.8,2.8-3.8,4.1-6.1l1.5,0.9c-0.7,1.4-1.8,3-3.2,5l10.7-0.8
		c-0.2-0.3-1.1-1.2-2.6-2.7l1.4-1.2c2.4,2.4,4.3,4.5,5.6,6.2l-1.4,1.1L136.3,486.8z M123.7,498.4v0.9h-1.9v-8.8
		c0-0.4,0.2-0.7,0.7-0.7h13.9c0.4,0,0.7,0.2,0.7,0.7v8.8h-1.9v-0.9H123.7z M123.7,496.6h11.5v-4.7c0-0.2-0.1-0.3-0.3-0.3h-11
		c-0.2,0-0.3,0.1-0.3,0.3V496.6z"/>
	<path d="M119.7,519.2c2.1-1.1,4.1-2.3,6-3.7v-5.8h-5.6v-1.9h5.6v-4.1h1.9v19.1h-1.9v-5.1c-1.4,1-3.1,2-5,2.9L119.7,519.2z
		 M131.9,510.2c2.3-1.6,4.1-3,5.4-4.2l1.2,1.4c-1.7,1.6-3.8,3.3-6.5,5.1v7.3c0,0.7,0,1.2,1.2,1.2h2.6c0.6,0,1-0.2,1.2-0.5
		c0.2-0.4,0.3-1.6,0.3-3.5l1.9,0.3c0,2.3-0.1,4.2-0.6,4.8c-0.6,0.7-1,0.8-2.2,0.8h-4c-1.6,0-2.3-1.1-2.2-2.8v-16.5h1.9V510.2z"/>
	<path d="M128.5,535.3h-5.6c-0.1,0-0.1,0-0.1,0.1v9.9h-1.9V534c0-0.3,0.1-0.4,0.5-0.4h7.2V531h-8.5v-1.8h8.5v-1.8h1.9v1.8h8.6v1.8
		h-8.6v2.6h7.3c0.3,0,0.5,0.1,0.5,0.4v9.3c0,1.4-1,2.3-3.1,2.3c-0.8,0-1.7-0.1-2.8-0.4l0-2.1c1.1,0.3,2,0.4,2.6,0.4
		c1.1,0,1.4-0.6,1.4-1v-7.1c0-0.1-0.1-0.1-0.2-0.1h-5.8v11.3h-1.9V535.3z"/>
	<path d="M134.7,565.1c-1.6-1.6-3.4-3.3-5.7-5.1c-1.1,2.2-2.7,3.9-4.8,5.2l-1.3-1.4c3.3-1.7,5.1-4.5,5.4-8.6h-5.7
		c-0.1,0-0.1,0-0.1,0.1v14.6h-1.9v-16c0-0.4,0.2-0.7,0.7-0.7h7.1v-2.2h1.9v2.2h7.4c0.5,0,0.7,0.2,0.7,0.7v14c0,2.3-2.2,2.4-3.1,2.4
		c-0.8,0-1.7-0.1-2.9-0.3l-0.1-2.1c1.3,0.4,2.3,0.5,2.9,0.5c0.5,0,1.4-0.4,1.4-1.1v-12c0-0.1-0.1-0.1-0.2-0.1h-6.1
		c-0.1,1.2-0.3,2.2-0.6,3.2c2.2,1.6,4.3,3.4,6.4,5.2L134.7,565.1z"/>
	<path d="M122.7,583.7c-1.2-1-2.3-1.7-3.1-2.1l1-1.5c1,0.5,2,1.2,3.2,2.2L122.7,583.7z M119.7,592.9c1.4-2.3,2.2-4.8,2.5-7.5
		l1.7,0.2c-0.3,3.2-1.1,5.9-2.4,7.9L119.7,592.9z M122.9,579c-1.2-1.2-2.1-2-3-2.5l1.2-1.4c0.9,0.6,2,1.5,3.1,2.6L122.9,579z
		 M133.9,587c-0.1,2.2-0.6,4.6-1.4,7l-1.7-0.4l0.2-0.7h-1.6V592h-3v0.9h-1.7v-10.6c0-0.2,0.1-0.3,0.3-0.3h2v-3h-2.5v-1.7h2.5v-2.6
		h1.7v2.6h2.4v1.7h-2.4v3h2c0.3,0,0.4,0.1,0.4,0.4v10.2c0.8-2.5,1.2-4.8,1.2-6.8v-10.1c0-0.3,0.2-0.5,0.5-0.5h5.2
		c0.3,0,0.5,0.2,0.5,0.5v16.3c0,1.7-1,1.9-2.1,1.9c-0.4,0-0.9,0-1.5-0.1l-0.1-1.9c0.9,0.3,1.4,0.4,1.6,0.4c0.2,0,0.5-0.2,0.5-0.8
		V587H133.9z M126.4,590.3h3V584c0-0.2-0.1-0.3-0.3-0.3h-2.5c-0.2,0-0.3,0.1-0.3,0.3V590.3z M133.9,580.2h3v-3.3
		c0-0.1-0.1-0.2-0.2-0.2h-2.6c-0.1,0-0.2,0.1-0.2,0.2V580.2z M133.9,585.4h3v-3.5h-3V585.4z"/>
	<path d="M128.1,611.9c-0.8-1-1.8-2.2-3-3.4v9.1h-1.8v-7.7l-2.5,2.3l-1.2-1.5c3.2-2.3,5.4-4.7,6.6-7.2c0,0,0-0.1,0-0.1
		c0-0.1-0.1-0.2-0.3-0.2h-5.6v-1.8h3v-3.1h1.8v3.1h2.4l1,0.8c-0.7,1.9-1.6,3.5-2.6,4.9c1.2,1.1,2.4,2.3,3.5,3.5L128.1,611.9z
		 M132.9,615.2v-11.1h-3.4v-1.8h3.4v-4h1.8v4h3.9v1.8h-3.9v11.1h4.5v1.8h-11v-1.8H132.9z"/>
	<path d="M120.8,624.2H120v-1.6h18.9v1.6h-16.3v14.2c0,0.3,0.2,0.4,0.5,0.4h15.6v1.7h-17c-0.5,0-0.8-0.3-0.8-0.9V624.2z
		 M130.4,637.8c0,0.2-0.1,0.3-0.2,0.3H124c-0.1,0-0.2-0.1-0.2-0.3v-6.2c0-0.1,0.1-0.2,0.2-0.2h6.2c0.2,0,0.2,0.1,0.2,0.2V637.8z
		 M136.7,630c0,0.2-0.1,0.3-0.2,0.3h-11.6c-0.1,0-0.2-0.1-0.2-0.3v-4.4c0-0.1,0.1-0.2,0.2-0.2h11.6c0.1,0,0.2,0.1,0.2,0.2V630z
		 M128.7,632.9h-3.2c-0.1,0-0.1,0-0.1,0.1v3.4l0.1,0.1h3.2l0.1-0.1L128.7,632.9L128.7,632.9z M134.9,626.9h-8.5
		c-0.1,0-0.1,0-0.1,0.1v1.7l0.1,0.1h8.5l0.1-0.1L134.9,626.9L134.9,626.9z M138.1,637.7c0,0.1-0.1,0.2-0.3,0.2h-6.1
		c-0.1,0-0.2-0.1-0.2-0.2v-6.1c0-0.1,0.1-0.2,0.2-0.2h6.1c0.2,0,0.3,0.1,0.3,0.2V637.7z M136.4,632.9h-3.2c-0.1,0-0.1,0-0.1,0.1v3.3
		l0.1,0.1h3.2l0.1-0.1L136.4,632.9L136.4,632.9z"/>
	<path d="M136.6,663.9c-3.7-2.9-6.1-5.9-7.1-9.2l-0.3,0.9c-1.5,3.8-4.3,6.8-8.3,9l-1.3-1.5c4.8-2.2,7.7-6,8.7-11.4h-8v-1.8h8.2
		l0.1-1v-3.1h1.9v3.1l0,1h8.2v1.8h-7.9c0.1,0.8,0.2,1.6,0.4,2.2c1.1,3.5,3.8,6.7,8.2,9.5l-1.6,1.4L136.6,663.9z"/>
	<path d="M136.1,676.1v-0.8H133v-1.5h3.1v-0.7H133v-1.4h3.1V671c0-0.1-0.1-0.2-0.2-0.2h-2.8v-1.5h4.2c0.3,0,0.4,0.1,0.4,0.4v6.4h0.1
		l1.5,0.7c-0.1,1.1-0.3,2.5-0.8,4l-1.6-0.5c0.4-1.3,0.5-2.1,0.5-2.4c0-0.2-0.1-0.3-0.2-0.3h-15.4c-0.1,0-0.2,0.1-0.2,0.2v2.7h-1.7
		v-4.2c0-0.2,0.1-0.3,0.3-0.3h1v-6.3c0-0.4,0.1-0.4,1-0.4c1.3,0,2.6-0.1,3.8-0.4l0.6,1.5c-1.1,0.3-2.4,0.4-3.7,0.4
		c-0.1,0-0.1,0.1-0.1,0.1v0.7h3v1.4h-3v0.8h3v1.5h-3v0.8h8.3l-1.3-1c-0.7,0.4-1.6,0.8-2.6,0.9l-0.6-1.4c0.6-0.1,1.2-0.3,1.8-0.5
		l-0.9-0.6l0.7-1l-0.9,0.3l-0.7-1.3c0.6-0.2,1.2-0.4,1.7-0.7l-1.1-0.6l0.7-1.2l1.8,1l1.3-1.1l1,1.1l-0.9,0.8l1,0.6l-0.8,1.2l0.8,1
		l-0.9,0.7l1.1,0.9l-0.8,1H136.1z M125.9,686c1,0.6,2,0.9,2.9,0.9c0.3,0,1.5-0.2,1.5-1.3c0-0.3-0.1-0.7-0.2-1.2h-9.1v-1.7h8.2
		c-0.3-0.5-0.7-0.9-1-1.3h1l2.9-1.3h-7.6v-1.6h9.5l1.3,1.8l-4.4,2l0.3,0.4h7.1v1.7h-6.3c0.2,0.6,0.2,0.7,0.2,1.2c0,2.5-2,3-3.2,3
		c-1.2,0-2.3-0.4-3.3-0.9L125.9,686z M128.4,672.4l1.4,0.9l1.3-0.9l-1.3-0.8L128.4,672.4z"/>
</g>
<path fill="#1B1464" d="M263,719c0,6.6-4.9,12-11,12h-40.4c-6.1,0-10.5-5.4-10.5-12V465c0-6.6,4.5-12,10.5-12H252
	c6.1,0,11,5.4,11,12V719z"/>
<path fill="#F7931E" d="M257,716c0,6.6-4.5,12-10.5,12H206c-6.1,0-11-5.4-11-12V462c0-6.6,4.9-12,11-12h40.4c6.1,0,10.5,5.4,10.5,12
	V716z"/>
<g>
	<path d="M219.9,527.4c-0.6,0.6-1.2,1.2-1.8,1.6l-1.5-1.2c2.2-1.6,3.9-3.8,5.2-6.3l1.7,0.8c-0.6,1.1-1.2,2.1-1.8,3v9.5h-1.8V527.4z
		 M229.1,519.1h-5.1v1.9h-1.8v-1.9h-5.3v-1.8h5.3v-1.8h1.8v1.8h5.1v-1.8h1.8v1.8h5.2v1.8h-5.2v2h-1.8V519.1z M227.7,526.2
		c2.2-1,4.1-2.4,5.8-4.1l1.3,1.3c-2.3,2.2-4.7,3.8-7.1,4.7v3.5c0,0.7,0,1.2,1.1,1.2h3.8c0.6,0,1-0.2,1.2-0.5
		c0.2-0.3,0.3-1.5,0.3-3.5l1.8,0.3c0,2.2-0.1,4.2-0.5,4.8c-0.6,0.7-0.8,0.8-2.1,0.8h-5.1c-1.2,0-2.2-0.7-2.1-2.7v-10.5h1.8V526.2z"
		/>
	<path d="M216.8,556.8c0.9-0.3,1.5-0.5,1.9-0.9c0.3-0.3,0.5-0.7,0.6-1.1v-2c0-0.1-0.1-0.2-0.2-0.2h-1.8v-1.7h3.3
		c0.3,0,0.4,0.1,0.4,0.5v3.4c0.1,0.3,0.3,0.7,0.7,1c0.9,0.9,2.6,1.3,5.1,1.2h1v-1.7h-6.2v-1.5h6.2v-1h-5.3c-0.1,0-0.2-0.1-0.2-0.3
		v-6.3c0-0.1,0.1-0.2,0.2-0.2h5.3v-1h-6.2v-1.4h6.2v-1.2h1.7v1.2h6.4v1.4h-6.4v1h5.2c0.2,0,0.3,0.1,0.3,0.2v6.3
		c0,0.2-0.1,0.3-0.3,0.3h-5.2v1h6.4v1.5h-6.4v1.6l6.4-0.2l-0.4,1.9h-8.5c-3.5,0-5.8-0.6-6.8-1.8c-0.5,0.7-2,1.6-3,1.7L216.8,556.8z
		 M229.9,541.7h-6.8v0.7h-1.7v-0.7h-4.7v-1.6h4.7v-0.9h1.7v0.9h6.8v-0.9h1.7v0.9h4.5v1.6h-4.5v0.7h-1.7V541.7z M219.6,549.9
		c-1-1.1-2-2-2.8-2.5l1.1-1.3c0.9,0.6,1.8,1.5,2.8,2.6L219.6,549.9z M220,546.2c-1.1-1-2-1.7-2.7-2.2l1-1.4c0.8,0.5,1.8,1.2,2.8,2.2
		L220,546.2z M227.9,548.7v-1.3h-3.7c-0.1,0-0.1,0-0.1,0.1v1.2H227.9z M227.9,551.3v-1.2h-3.8v1.1l0.1,0.1H227.9z M229.6,547.4v1.3
		h3.8v-1.2l-0.1-0.1H229.6z M229.6,550.1v1.2h3.7l0.1-0.1v-1.1H229.6z"/>
	<path d="M216.6,571.2c1.9-1.7,3.3-3.7,4.2-5.9l1.7,0.7c-1.3,2.9-2.8,5-4.4,6.4L216.6,571.2z M233.4,570.8c0,0.2,0,0.7,0,1.3
		c0,0.8,0,1.8-0.1,3.1c-0.1,2.6-0.4,4.2-0.8,5c-0.8,1.2-1.9,1.8-3.6,1.8c-1.1,0-2.4-0.2-3.9-0.7l0.1-2c1.6,0.5,2.8,0.8,3.8,0.8
		c1.8,0,2.3-1,2.5-3.6c0.1-1.3,0.1-2.4,0.1-3.1c0-0.7,0-1-0.1-1.1l-0.2-0.1h-5.1c-0.3,1.6-0.8,3-1.4,4.1c-1.3,2.1-3.5,4.1-6.8,5.9
		l-1.3-1.5c1.2-0.5,2.2-1.1,3.3-1.9c2.4-1.6,3.9-3.8,4.4-6.6h-4v-1.9h12.5l0.2,0c-0.9-1.2-1.9-3-2.9-5.3c0-0.1-0.1-0.2-0.3-0.2h-6.1
		V563h7c0.2,0,0.4,0.1,0.5,0.4c1.4,3.4,3.2,6,5.2,7.7l-1.7,1.1L233.4,570.8z"/>
	<path d="M225.6,596.7h-7.2v-1.6h7.2v-1h-7c-0.1,0-0.2-0.1-0.2-0.3v-3.8c0-0.1,0.1-0.2,0.2-0.2h7v-1.1h-8.7v-1.6h8.7v-0.9h1.8v0.9
		h8.5v1.6h-8.5v1.1h6.9c0.1,0,0.2,0.1,0.2,0.2v3.8c0,0.2-0.1,0.3-0.2,0.3h-6.9v1h6.5c0.4,0,0.5,0.2,0.5,0.5v2.3h1.7v1.6h-1.7v2.2
		c0,0.4-0.2,0.5-0.5,0.5h-6.5v1.4c0,0.4,0,2.2-2.5,2.2c-0.8,0-1.8-0.2-3-0.5l0-1.9c1.2,0.4,2.1,0.5,2.7,0.5c0.9,0,1-0.3,1-0.8v-0.9
		h-7.1v-1.6h7.1v-1.2h-8.8V598h8.8V596.7z M225.6,592.6v-1.2h-5.4c-0.1,0-0.1,0-0.1,0.1v1c0,0.1,0,0.1,0.1,0.1H225.6z M227.4,591.4
		v1.2h5.3l0.1-0.1v-1c0-0.1,0-0.1-0.1-0.1H227.4z M227.4,596.7v1.2h5.3v-1.1c0-0.1,0-0.1-0.1-0.1H227.4z M227.4,599.6v1.2h5.1
		c0.1,0,0.1-0.1,0.1-0.2v-1H227.4z"/>
	<path d="M216.6,624.2c1.5-1.5,2.6-3.2,3.4-5.2h-3.1v-1.7h4.1c-1.1-1-2.1-1.9-2.9-2.6l1.2-1.2l1.5,1.3c1.8-1.2,2.6-2.3,2.6-2.4
		c0-0.1-0.1-0.2-0.3-0.2h-5.7v-1.6h7.2l0.9,0.7c-0.6,1.5-1.7,3-3.5,4.6l0.8,0.8l-0.6,0.5h2.4l1.1,0.8c-0.3,1.7-0.9,3.3-1.8,4.7
		l-1.6-0.6c1.2-1.7,1.5-2.7,1.5-3c0-0.1,0-0.1,0-0.1l-0.2-0.1h-1.4v8.3c0,0.6-0.3,2-2.2,2c-0.7,0-1.5-0.1-2.5-0.4l0-1.8
		c1,0.3,1.7,0.4,2.2,0.4c0.7,0,0.8-0.2,0.8-0.7v-5.1c-0.8,1.4-1.6,2.5-2.3,3.3L216.6,624.2z M223.6,627.8c4.6-1.5,5-4.6,5.2-5.3
		h-3.1v-1.7h3.1v-1.1h1.8v1.1h4.5l0.3,0.1c0.2,0.3,0.2,0.3,0.3,0.5c0,3.9-0.2,6.2-0.6,6.8c-0.6,1-1.5,1.3-2.7,1.3
		c-0.7,0-1.6-0.1-2.6-0.4l-0.1-2c1,0.4,1.8,0.5,2.5,0.5c0.5,0,1-0.1,1.4-0.7l0.3-0.8c0.1-1.1,0.1-2,0.1-2.6c0-0.7,0-1-0.3-1h-3.2
		c-0.2,1.2-0.7,2.5-1.6,3.9c-1,1.2-2.5,2.2-4.3,3L223.6,627.8z M225.9,618.3c1.4-0.4,2.6-0.8,3.6-1.3c-0.7-0.8-1.4-1.8-2-3.1
		c-0.5,0.9-1.1,1.7-1.8,2.3l-1.3-1.1c1.8-1.8,2.2-3.1,2.7-5l1.7,0.3l-0.2,0.7h7.5v1.7h-1.4c-0.7,1.7-1.5,3.1-2.5,4.2
		c1.2,0.7,2.6,1.3,4.2,1.7l-1,1.5c-1.7-0.4-3.2-1.1-4.6-2.1c-1.2,0.7-2.5,1.3-4,1.7L225.9,618.3z M228.8,612.8
		c0.4,0.9,0.8,2.2,2,3.2c0.9-0.9,1.6-2,2.1-3.2H228.8z"/>
	<path d="M219.8,645.6c-0.2,2.4-0.7,4.7-1.5,7l-1.7-0.9c1-2.8,1.6-5.8,1.6-9.1v-7.5c0-0.4,0.1-0.6,0.4-0.6c2.3,0,4.6-0.3,6.9-0.8
		l0.7,1.8c-1.8,0.3-3.8,0.6-5.9,0.7c-0.2,0-0.3,0.1-0.3,0.3v1.7h5.4c0.4,0,0.6,0.2,0.6,0.6v6.2c0,0.4-0.2,0.6-0.6,0.6H219.8z
		 M224.1,640.2c0-0.1-0.1-0.2-0.2-0.2h-4v2.5l0,1.3h4c0.1,0,0.2-0.1,0.2-0.2V640.2z M232.2,641.2H229v2.8c0,2.5-0.5,5.2-4.5,8.9
		l-1.4-1.4c2.5-2.2,4-4.1,4.1-7.4V635c0-0.4,0.1-0.6,0.5-0.6c2.9,0,5.4-0.3,7.7-0.7l0.6,1.8c-2,0.3-4.3,0.5-6.7,0.6
		c-0.2,0-0.3,0.1-0.3,0.3v2.9h7.1v1.8H234V653h-1.8V641.2z"/>
</g>
<path fill="#1B1464" d="M68,718c0,6.6-4.9,12-11,12H16.5C10.5,730,6,724.6,6,718V464c0-6.6,4.5-12,10.5-12H57c6.1,0,11,5.4,11,12
	V718z"/>
<path fill="#F7931E" d="M62,715c0,6.6-4.5,12-10.5,12H11c-6.1,0-11-5.4-11-12V461c0-6.6,4.9-12,11-12h40.4c6.1,0,10.5,5.4,10.5,12
	V715z"/>
<g>
	<path d="M30.6,515.9v-1.5h1.8v1.5h8.5v1.7h-19v-1.7H30.6z M36.7,531.9c0,0.1,0,0.2-0.1,0.2c0.4,0.1,0.8,0.1,1.1,0.1
		c0.9,0,0.9-0.8,0.9-0.9V526c0-0.1,0-0.1-0.1-0.1H24.5c-0.1,0-0.1,0-0.1,0.1v7.8h-1.8v-9.1c0-0.3,0.1-0.4,0.4-0.4h16.9
		c0.3,0,0.4,0.1,0.4,0.4v7.3c0,0.5-0.1,2-2.4,2c-0.6,0-1.3-0.1-2.2-0.3l0-1.7h-9.3c-0.1,0-0.2-0.1-0.2-0.3v-4.5
		c0-0.1,0.1-0.2,0.2-0.2h9.9c0.2,0,0.3,0.1,0.3,0.2V531.9z M38.1,523.2c0,0.2-0.1,0.3-0.3,0.3H25c-0.1,0-0.2-0.1-0.2-0.3V519
		c0-0.1,0.1-0.2,0.2-0.2h12.9c0.2,0,0.3,0.1,0.3,0.2V523.2z M36.3,520.4C36.3,520.3,36.3,520.3,36.3,520.4l-9.7-0.1
		c-0.1,0-0.1,0-0.1,0.1v1.4c0,0.1,0,0.1,0.1,0.1h9.6l0.1-0.1V520.4z M35,528.7h-7c-0.1,0-0.1,0-0.1,0v1.8l0.1,0.1h7l0.1-0.1
		L35,528.7L35,528.7z"/>
	<path d="M21.7,550.9c1.5-2.7,2.5-5.6,3.1-8.8h-2.8v-1.7h3l0.1-2.1l1.7,0.1l-0.2,2h3.6v1.7h-3.8c-0.6,3.7-1.6,6.8-3,9.3L21.7,550.9z
		 M28.6,554.9l-6.3,1.4l-0.7-1.6l1.9-0.4c1.3-2.8,2.3-5.9,3.2-9.1l1.6,0.5c-0.5,2.2-1.4,4.9-2.8,8.3l2.8-0.6l-0.8-3.2l1.7-0.3
		c0.6,2.2,1,4.4,1.3,6.6l-1.7,0.2L28.6,554.9z M37.4,555.4h3.4v1.6h-9.2c-0.4,0-0.6-0.2-0.6-0.6v-11.8L30,546l-1.5-0.9
		c1.8-2,3.1-4.3,3.8-6.9l1.6,0.5c-0.4,1-0.7,2-1.1,2.8h2.8c0.7-1.3,1.1-2.4,1.4-3.2l1.6,0.7c-0.2,0.8-0.6,1.6-1,2.6h3.1l-0.1,1.6
		h-3.1v3h3.1v1.6h-3.1v3h3.1v1.6h-3.1V555.4z M35.7,546.1v-3h-2.6c-0.2,0-0.3,0.1-0.3,0.3v2.7H35.7z M35.7,550.8v-3h-2.9v3H35.7z
		 M35.7,555.4v-3h-2.9v2.7c0,0.2,0.1,0.3,0.3,0.3H35.7z"/>
	<path d="M21.6,570.2c1.9-1.7,3.3-3.7,4.2-5.9l1.7,0.7c-1.3,2.9-2.8,5-4.4,6.4L21.6,570.2z M38.4,569.8c0,0.2,0,0.7,0,1.3
		c0,0.8,0,1.8-0.1,3.1c-0.1,2.6-0.4,4.2-0.8,5c-0.8,1.2-1.9,1.8-3.6,1.8c-1.1,0-2.4-0.2-3.9-0.7l0.1-2c1.6,0.5,2.8,0.8,3.8,0.8
		c1.8,0,2.3-1,2.5-3.6c0.1-1.3,0.1-2.4,0.1-3.1c0-0.7,0-1-0.1-1.1l-0.2-0.1h-5.1c-0.3,1.6-0.8,3-1.4,4.1c-1.3,2.1-3.5,4.1-6.8,5.9
		l-1.3-1.5c1.2-0.5,2.2-1.1,3.3-1.9c2.4-1.6,3.9-3.8,4.4-6.6h-4v-1.9h12.5l0.2,0c-0.9-1.2-1.9-3-2.9-5.3c0-0.1-0.1-0.2-0.3-0.2h-6.1
		V562h7c0.2,0,0.4,0.1,0.5,0.4c1.4,3.4,3.2,6,5.2,7.7l-1.7,1.1L38.4,569.8z"/>
	<path d="M30.6,595.7h-7.2v-1.6h7.2v-1h-7c-0.1,0-0.2-0.1-0.2-0.3v-3.8c0-0.1,0.1-0.2,0.2-0.2h7v-1.1h-8.7v-1.6h8.7v-0.9h1.8v0.9
		h8.5v1.6h-8.5v1.1h6.9c0.1,0,0.2,0.1,0.2,0.2v3.8c0,0.2-0.1,0.3-0.2,0.3h-6.9v1h6.5c0.4,0,0.5,0.2,0.5,0.5v2.3h1.7v1.6h-1.7v2.2
		c0,0.4-0.2,0.5-0.5,0.5h-6.5v1.4c0,0.4,0,2.2-2.5,2.2c-0.8,0-1.8-0.2-3-0.5l0-1.9c1.2,0.4,2.1,0.5,2.7,0.5c0.9,0,1-0.3,1-0.8v-0.9
		h-7.1v-1.6h7.1v-1.2h-8.8V597h8.8V595.7z M30.6,591.6v-1.2h-5.4c-0.1,0-0.1,0-0.1,0.1v1c0,0.1,0,0.1,0.1,0.1H30.6z M32.4,590.4v1.2
		h5.3l0.1-0.1v-1c0-0.1,0-0.1-0.1-0.1H32.4z M32.4,595.7v1.2h5.3v-1.1c0-0.1,0-0.1-0.1-0.1H32.4z M32.4,598.6v1.2h5.1
		c0.1,0,0.1-0.1,0.1-0.2v-1H32.4z"/>
	<path d="M21.6,623.2c1.5-1.5,2.6-3.2,3.4-5.2h-3.1v-1.7h4.1c-1.1-1-2.1-1.9-2.9-2.6l1.2-1.2l1.5,1.3c1.8-1.2,2.6-2.3,2.6-2.4
		c0-0.1-0.1-0.2-0.3-0.2h-5.7v-1.6h7.2l0.9,0.7c-0.6,1.5-1.7,3-3.5,4.6l0.8,0.8l-0.6,0.5h2.4l1.1,0.8c-0.3,1.7-0.9,3.3-1.8,4.7
		l-1.6-0.6c1.2-1.7,1.5-2.7,1.5-3c0-0.1,0-0.1,0-0.1l-0.2-0.1h-1.4v8.3c0,0.6-0.3,2-2.2,2c-0.7,0-1.5-0.1-2.5-0.4l0-1.8
		c1,0.3,1.7,0.4,2.2,0.4c0.7,0,0.8-0.2,0.8-0.7v-5.1c-0.8,1.4-1.6,2.5-2.3,3.3L21.6,623.2z M28.6,626.8c4.6-1.5,5-4.6,5.2-5.3h-3.1
		v-1.7h3.1v-1.1h1.8v1.1h4.5l0.3,0.1c0.2,0.3,0.2,0.3,0.3,0.5c0,3.9-0.2,6.2-0.6,6.8c-0.6,1-1.5,1.3-2.7,1.3c-0.7,0-1.6-0.1-2.6-0.4
		l-0.1-2c1,0.4,1.8,0.5,2.5,0.5c0.5,0,1-0.1,1.4-0.7l0.3-0.8c0.1-1.1,0.1-2,0.1-2.6c0-0.7,0-1-0.3-1h-3.2c-0.2,1.2-0.7,2.5-1.6,3.9
		c-1,1.2-2.5,2.2-4.3,3L28.6,626.8z M30.9,617.3c1.4-0.4,2.6-0.8,3.6-1.3c-0.7-0.8-1.4-1.8-2-3.1c-0.5,0.9-1.1,1.7-1.8,2.3l-1.3-1.1
		c1.8-1.8,2.2-3.1,2.7-5l1.7,0.3l-0.2,0.7H41v1.7h-1.4c-0.7,1.7-1.5,3.1-2.5,4.2c1.2,0.7,2.6,1.3,4.2,1.7l-1,1.5
		c-1.7-0.4-3.2-1.1-4.6-2.1c-1.2,0.7-2.5,1.3-4,1.7L30.9,617.3z M33.8,611.8c0.4,0.9,0.8,2.2,2,3.2c0.9-0.9,1.6-2,2.1-3.2H33.8z"/>
	<path d="M24.8,644.6c-0.2,2.4-0.7,4.7-1.5,7l-1.7-0.9c1-2.8,1.6-5.8,1.6-9.1v-7.5c0-0.4,0.1-0.6,0.4-0.6c2.3,0,4.6-0.3,6.9-0.8
		l0.7,1.8c-1.8,0.3-3.8,0.6-5.9,0.7c-0.2,0-0.3,0.1-0.3,0.3v1.7h5.4c0.4,0,0.6,0.2,0.6,0.6v6.2c0,0.4-0.2,0.6-0.6,0.6H24.8z
		 M29.1,639.2c0-0.1-0.1-0.2-0.2-0.2h-4v2.5l0,1.3h4c0.1,0,0.2-0.1,0.2-0.2V639.2z M37.2,640.2H34v2.8c0,2.5-0.5,5.2-4.5,8.9
		l-1.4-1.4c2.5-2.2,4-4.1,4.1-7.4V634c0-0.4,0.1-0.6,0.5-0.6c2.9,0,5.4-0.3,7.7-0.7l0.6,1.8c-2,0.3-4.3,0.5-6.7,0.6
		c-0.2,0-0.3,0.1-0.3,0.3v2.9h7.1v1.8H39V652h-1.8V640.2z"/>
</g>
<path fill="#1B1464" d="M408,719c0,6.6-4.9,12-11,12h-40.4c-6.1,0-10.5-5.4-10.5-12V465c0-6.6,4.5-12,10.5-12H397
	c6.1,0,11,5.4,11,12V719z"/>
<path fill="#F7931E" d="M402,716c0,6.6-4.5,12-10.5,12H351c-6.1,0-11-5.4-11-12V462c0-6.6,4.9-12,11-12h40.4c6.1,0,10.5,5.4,10.5,12
	V716z"/>
<g>
	<path d="M361.7,545.6c1.5-2.1,2.5-4.5,2.9-7l1.8,0.3c-0.6,3.2-1.6,5.7-2.9,7.5L361.7,545.6z M365.4,536.6c-1.4-1.1-2.5-1.9-3.5-2.4
		l1-1.5c1.1,0.5,2.3,1.3,3.5,2.4L365.4,536.6z M366,531.2c-1.5-1.1-2.7-2-3.7-2.4l0.9-1.5c1.2,0.5,2.4,1.4,3.8,2.5L366,531.2z
		 M366.2,536.8c2.5-0.7,4.7-1.7,6.7-2.8c-0.9-0.8-1.8-1.7-2.7-2.8c-0.8,0.9-1.8,1.7-3,2.5l-1-1.4c2.1-1.2,3.1-2.1,4.6-5.1l1.7,0.1
		l-0.2,0.5h6.2l1.3,1c-0.9,1.7-1.8,3.1-2.8,4.1l-1.2,1.2c1.4,0.9,3.3,1.7,5.5,2.4l-1,1.6c-2.1-0.8-4.1-1.7-5.9-3
		c-1.8,1.1-4.2,2.2-7.2,3.3L366.2,536.8z M369.9,545.7v0.9h-1.8v-7.8c0-0.2,0.1-0.3,0.3-0.3h10.9c0.3,0,0.4,0.1,0.4,0.4v7.7h-1.8
		v-0.9H369.9z M369.9,543.9h8v-3.3c0-0.2-0.1-0.3-0.3-0.3h-7.5c-0.2,0-0.3,0.1-0.3,0.3V543.9z M371.2,529.8c1.1,1.3,2.1,2.4,3,3.2
		c1.6-1.3,2.9-3,2.9-3.3c0-0.1,0-0.1-0.1-0.1h-5.7L371.2,529.8z"/>
	<path d="M370.1,562.7c-0.6-1.1-1.3-2.2-2.2-3.5v11h-1.8v-10.5c-0.8,1.8-1.7,3.4-2.8,4.7l-1.6-0.7c1.8-2.1,3.2-4.5,4.2-7.2h-3.4
		v-1.8h3.7V551h1.8v3.8h3v1.8h-3c1.3,1.6,2.5,3.3,3.7,5.1L370.1,562.7z M370.1,568.4c6.1-1.4,7.4-3,9.7-6.2l1.4,1
		c-2.1,2.9-4.2,5.3-10.3,6.8L370.1,568.4z M372.1,555.1c2.5-0.9,4.6-2.3,6.4-4.1l1.3,1.3c-2.3,2.2-4.6,3.7-6.7,4.4L372.1,555.1z
		 M372.1,561.4c2.8-1.1,5.2-2.7,7.2-4.9l1.3,1.2c-2.5,2.6-5,4.4-7.4,5.3L372.1,561.4z"/>
	<path d="M365.1,592.4v0.8h-1.6v-7.6l-0.3,0.5l-1.6-0.4c1.4-2.8,2.2-5.6,2.3-8.5H362v-1.6h5.9v1.6h-2.5c-0.1,2.2-0.4,3.8-0.8,4.9
		h2.9c0.4,0,0.5,0.2,0.5,0.5v9.2c0,0.4-0.2,0.5-0.5,0.5H365.1z M366.5,583.9c0-0.2-0.1-0.3-0.3-0.3h-0.9c-0.2,0-0.3,0.1-0.3,0.3v6.8
		h1.1c0.2,0,0.3-0.1,0.3-0.3V583.9z M372.5,583.2l-3.8,0.6c-0.1-0.4-0.2-0.9-0.4-1.5l1.1-0.2l1.1-1.6c-0.8-0.8-1.6-1.4-2.4-1.8
		l0.8-1.3l0.4,0.3c0.4-0.9,0.9-1.9,1.3-2.9l1.4,0.7c-0.3,0.8-0.8,1.9-1.4,3.1l0.7,0.6c0.3-0.7,0.5-1.4,0.7-2l1.5,0.4
		c-0.2,0.9-0.9,2.4-2.1,4.3l0.8-0.1l-0.2-0.8l1.3-0.3l0.7,2.9l-1.3,0.2L372.5,583.2z M378.8,584.8h2.2v1.6h-4.7
		c0.2,0.9,0.5,1.8,0.9,2.6l1.2-1.9l1.4,0.9c-0.5,0.7-1.1,1.6-1.8,2.6l0.2,0.2c0.4,0.7,0.8,1,0.9,1c0.1,0,0.2-0.1,0.2-0.3
		c0.1-0.4,0.1-1.1,0.1-2.4l1.7,0.4c-0.1,2.1-0.4,3.5-1,4.1c-0.2,0.2-0.4,0.3-0.7,0.3c-0.7,0-1.6-0.8-2.6-2.3c-1,0.9-2,1.7-2.9,2.2
		l-1.1-1.5c1.4-0.6,2.6-1.6,3.2-2.2c-0.7-1.4-1.1-2.7-1.4-3.9h-3.5c-0.1,0-0.2,0.1-0.2,0.2v1.6c1,0.5,2.1,1.1,3.1,1.8l-0.9,1.5
		l-2.3-1.6c-0.2,1.6-0.5,2.9-1.1,4l-1.6-0.6c0.9-1.7,1.1-3,1.1-5.1v-2.9c0-0.3,0.1-0.5,0.5-0.5h4.5c-0.6-3.2-0.9-6.6-0.9-10.1
		l1.7,0.2l0,2.9l0.4-0.7l0.5,0.3c0.4-0.9,0.8-1.7,1.1-2.8l1.4,0.7c-0.3,0.7-0.7,1.7-1.3,2.9l0.8,0.7c0.5-0.9,0.8-1.7,1-2.6l1.5,0.4
		c-0.2,1.1-1,2.6-2.3,4.5l1-0.2l-0.3-0.8l1.4-0.3c0.4,1.4,0.7,2.5,0.8,3.3l-1.4,0.2l-0.2-0.9l-1.8,0.3c0.5,0.2,1.1,0.6,1.7,1.1
		L378.8,584.8z M377.1,580.1c-0.7-0.6-1.3-1.1-2-1.4l0.3,3l0.7-0.1L377.1,580.1z M376.9,583.9l0.7-1.2l-1.8,0.4l-0.3-0.8l0.4,2.5
		h2.3L376.9,583.9z"/>
	<path d="M361.6,606.7c1.9-1.7,3.3-3.7,4.2-5.9l1.7,0.7c-1.3,2.9-2.8,5-4.4,6.4L361.6,606.7z M378.4,606.2c0,0.2,0,0.7,0,1.3
		c0,0.8,0,1.8-0.1,3.1c-0.1,2.6-0.4,4.2-0.8,5c-0.8,1.2-1.9,1.8-3.6,1.8c-1.1,0-2.4-0.2-3.9-0.7l0.1-2c1.6,0.5,2.8,0.8,3.8,0.8
		c1.8,0,2.3-1,2.5-3.6c0.1-1.3,0.1-2.4,0.1-3.1c0-0.7,0-1-0.1-1.1l-0.2-0.1h-5.1c-0.3,1.6-0.8,3-1.4,4.1c-1.3,2.1-3.5,4.1-6.8,5.9
		l-1.3-1.5c1.2-0.5,2.2-1.1,3.3-1.9c2.4-1.6,3.9-3.8,4.4-6.6h-4v-1.9h12.5l0.2,0c-0.9-1.2-1.9-3-2.9-5.3c0-0.1-0.1-0.2-0.3-0.2h-6.1
		v-1.8h7c0.2,0,0.4,0.1,0.5,0.4c1.4,3.4,3.2,6,5.2,7.7l-1.7,1.1L378.4,606.2z"/>
	<path d="M368.3,629.9c0.7-1.8,1.2-3.3,1.4-4.4l1.5,0.5c-0.2,1-0.6,2.2-1.2,3.8h2.6v1.6H362v-1.6H368.3z M366.4,623.3v-1.5h1.8v1.5
		h4v1.6h-9.8v-1.6H366.4z M364.2,640.1v0.9h-1.7v-7.7c0-0.2,0.1-0.3,0.3-0.3h8.8c0.3,0,0.4,0.1,0.4,0.3v7.6h-1.7v-0.9H364.2z
		 M364.5,629.4c-0.3-1.3-0.7-2.4-1-3.3l1.5-0.5c0.5,1.5,0.9,2.7,1.1,3.4L364.5,629.4z M364.2,638.5h6v-3.6c0-0.1-0.1-0.2-0.3-0.2
		h-5.5c-0.2,0-0.3,0.1-0.3,0.3V638.5z M375.3,624.1c-0.2,0-0.3,0.1-0.3,0.3v16.9h-1.8v-18.5c0-0.2,0.1-0.3,0.3-0.3h6l1.2,0.9
		l-1.9,6.2c0,0.1,0,0.1,0,0.2c0,0.1,0,0.2,0.1,0.3c1.6,2.2,2.3,3.7,2.3,5.7c0,1.8-0.8,3.7-2.9,3.7c-0.7,0-1.6-0.2-2.6-0.6l0.2-1.9
		c0.9,0.5,1.7,0.8,2.3,0.8c0.1,0,0.3,0,0.4,0c0.7-0.2,1-0.8,1-2.1c0-1.5-0.8-3-2.4-5.2c-0.1-0.2-0.2-0.3-0.2-0.4l1.7-5.4l0-0.3
		H375.3z"/>
</g>
<path fill="#1B1464" d="M644,720c0,6.6-4.9,12-11,12h-40.4c-6.1,0-10.5-5.4-10.5-12V466c0-6.6,4.5-12,10.5-12H633
	c6.1,0,11,5.4,11,12V720z"/>
<path fill="#F7931E" d="M638,717c0,6.6-4.5,12-10.5,12H587c-6.1,0-11-5.4-11-12V463c0-6.6,4.9-12,11-12h40.4c6.1,0,10.5,5.4,10.5,12
	V717z"/>
<g>
	<path d="M600.3,546.6v0.9h-1.8v-17.9c0-0.4,0.2-0.6,0.6-0.6h16.7c0.4,0,0.6,0.2,0.6,0.6v17.9h-1.8v-0.9H600.3z M609.9,541.7
		c-0.6,0-0.9-0.3-0.9-0.9v-10H606v4.7c-0.1,4-1.1,6.1-4,6.8l-1.3-1.5c0.6,0,1.2-0.3,1.8-0.6c1-0.7,1.6-2.3,1.7-4.7v-4.7h-3.7
		c-0.2,0-0.3,0.1-0.2,0.3v13.8h14.4v-3.1H609.9z M610.9,539.4c0,0.3,0.1,0.5,0.5,0.5h3.3V531c0-0.2-0.1-0.3-0.3-0.3h-3.5V539.4z"/>
	<path d="M599.8,552.3h1.9v8.5c-0.1,4.1-1.1,8.3-2.1,10l-2-0.4c1.5-2.9,2.3-6.1,2.2-9.6V552.3z M606.5,553.1h1.9v16.5h-1.9V553.1z
		 M613.6,552h1.8v19.2h-1.8V552z"/>
	<path d="M597.6,593.4c2-0.8,2.6-1.4,2.9-2.8v-3.7c0-0.2-0.1-0.3-0.2-0.3h-2v-1.8h3.6c0.3,0,0.4,0.1,0.4,0.5v4.9
		c0.1,0.4,0.3,0.8,0.7,1.3c0.3,0.5,1.3,1.5,4.2,1.5c3.3,0,7.5-0.1,10-0.2l-0.5,2l-9.9-0.1c-2.6-0.1-4.3-1-5.1-2.4
		c-0.3,0.8-1.7,2.2-3.2,2.7L597.6,593.4z M601.3,583.8c-1.4-1-2.5-1.7-3.4-2.1l0.9-1.6c1.1,0.5,2.2,1.2,3.5,2.1L601.3,583.8z
		 M602,579.8c-1.4-1.1-2.6-1.8-3.5-2.3l0.9-1.5c1.1,0.5,2.3,1.3,3.6,2.3L602,579.8z M609.3,590.4h-5.6v-1.6h5.6v-1.1h-4.9
		c-0.1,0-0.2-0.1-0.2-0.3v-7.6c0-0.1,0.1-0.2,0.2-0.2h4.9v-1.2h-5.5v-1.6h5.5v-1h1.7v1h5.4v1.6H611v1.2h4.8c0.2,0,0.3,0.1,0.3,0.2
		v7.6c0,0.2-0.1,0.3-0.3,0.3H611v1.1h5.8v1.6H611v2h-1.7V590.4z M609.3,582.8v-1.7h-3.4c-0.1,0-0.1,0-0.1,0.1v1.7H609.3z
		 M609.3,586.1v-1.7h-3.5v1.7l0.1,0.1H609.3z M611,581.1v1.7h3.3v-1.7l-0.1-0.1H611z M611,584.4v1.7h3.2l0.1-0.1v-1.7H611z"/>
	<path d="M601,609.6l-3,0.3c-0.1-0.5-0.2-1-0.4-1.6l1.2-0.1c0.6-0.6,1.2-1.3,1.8-2.2c-1-1-2-1.7-3.1-2.3l0.8-1.4l0.8,0.5
		c0.6-1,1.2-2.2,1.7-3.5l1.4,0.8c-0.4,0.9-1,2.1-1.9,3.6l1.2,1c0.9-1.4,1.5-2.7,1.9-4l1.5,0.5c-0.5,1.9-1.9,4.2-4.1,6.8l2.7-0.3
		l-0.5-1.4l1.6-0.4l1.2,4.1l-1.6,0.3l-0.3-1l-1.4,0.2v9.1H601V609.6z M597.7,617c0.4-1.7,0.7-3.7,0.8-5.8l1.6,0.3
		c-0.2,2.3-0.5,4.3-0.8,6L597.7,617z M605.1,611l0.8,5.1l-1.6,0.3l-0.8-5L605.1,611z M605.8,608.4c1.7-0.7,3.3-1.5,4.8-2.5
		c-0.8-0.8-1.5-1.7-2.3-2.8c-0.6,0.8-1.3,1.5-2.1,2.2l-1.2-1.3c1.7-1.3,2.4-2.1,3.4-4.9l1.7-0.1l-0.2,0.7h5.2l1.3,0.8
		c-0.8,2.1-1.9,3.9-3.3,5.4c1.1,0.8,2.5,1.6,4.2,2.4l-1.1,1.4c-1.6-0.8-3-1.7-4.3-2.7c-1.5,1-3.1,2-5,2.8L605.8,608.4z M608.5,617.5
		v0.9h-1.7v-7.8c0-0.2,0.1-0.3,0.3-0.3h8.7c0.3,0,0.4,0.1,0.4,0.4v7.7h-1.7v-0.9H608.5z M608.5,615.8h5.9v-3.5
		c0-0.2-0.1-0.3-0.3-0.3h-5.4c-0.2,0-0.3,0.1-0.3,0.3V615.8z M609.2,601.6c0.9,1.4,1.7,2.5,2.6,3.4c0.8-0.8,1.6-1.8,2.2-3
		c0-0.1,0-0.2,0-0.3c0-0.1,0-0.2-0.1-0.2L609.2,601.6L609.2,601.6z"/>
	<path d="M603.9,639c-0.5-0.5-1-1.2-1.5-2l-1,1.1l-0.9-0.9c-0.2,1.8-0.6,3.5-1.2,5.1l-1.7-0.8c1-2.6,1.5-5.5,1.5-8.5v-6.3
		c0-0.3,0.1-0.4,0.4-0.4h5.3v-3.4h1.8v1h7.6v1.5h-7.6v0.9h9l1.4,0.8c0,1.1-0.3,2.3-0.9,3.5l-1.6-0.5c0.3-0.8,0.6-1.8,0.6-2.2
		c0-0.1-0.1-0.1-0.2-0.1h-8.3v1.2h5.3v1.4h-5.3v0.3c0,0.4,0.3,0.9,0.9,0.9h5c0.1,0,0.5-0.1,0.5-0.4l0.1-1.2l1.4,0.3
		c-0.2,1.3-0.3,2.1-0.4,2.1c-0.4,0.4-0.8,0.6-1,0.6h-6.6c-0.9,0-1.6-0.9-1.6-1.6v-1h-3.3v-1.4h3.3v-1.2h-3.8c-0.2,0-0.3,0.1-0.3,0.3
		v4.2l-0.2,4.3c0.9-0.8,1.6-2,2.1-3.5l1.6-0.1l-0.2,0.7h3.8l1.3,0.7c-0.5,1.4-1.1,2.6-1.7,3.4l-0.9,1.2c1,0.6,2.3,1.2,6.6,1.2h4
		l-0.4,1.8h-2.9c-3.5-0.1-6-0.3-8.4-1.9c-1.3,0.9-2,1.4-3.8,2.2l-1.1-1.4c1.4-0.6,2.6-1.2,3.5-1.8L603.9,639z M603.5,635.5
		c0.4,0.7,0.8,1.4,1.4,2l0.4,0.5c0.4-0.4,1-1.2,1.6-2.2c0-0.1,0-0.2,0-0.3c0-0.1,0-0.2-0.1-0.2h-3.1L603.5,635.5z M611.6,635.4
		c-0.1,0-0.2,0.1-0.2,0.2c0,1.7-0.7,3.1-2.1,4l-1.1-1.2c1.1-0.7,1.7-1.8,1.7-3.3v-0.8l0.1-0.3l0.2-0.1h4.2l0.2,0.1l0.1,0.3v3
		l0.1,0.5c0.1,0.1,0.3,0.2,0.5,0.2l0.4-0.1c0,0,0.1-0.2,0.1-0.5l0-1.1l1.5,0.1l-0.1,1.9c-0.1,0.7-0.8,1-1.3,1h-1.1
		c-0.9,0-1.5-0.6-1.5-1.5v-2.4c0-0.1-0.1-0.2-0.3-0.2H611.6z"/>
</g>
<path fill="#1B1464" d="M740,720c0,6.6-4.9,12-11,12h-40.4c-6.1,0-10.5-5.4-10.5-12V466c0-6.6,4.5-12,10.5-12H729
	c6.1,0,11,5.4,11,12V720z"/>
<path fill="#F7931E" d="M734,717c0,6.6-4.5,12-10.5,12H683c-6.1,0-11-5.4-11-12V463c0-6.6,4.9-12,11-12h40.4c6.1,0,10.5,5.4,10.5,12
	V717z"/>
<g>
	<path d="M695.9,541.7c1.3-1.4,2.4-2.6,3.2-3.7h-5.2v-1.8h6.3c0.5-0.9,1-2.1,1.5-3.3l1.7,0.9c-0.3,0.9-0.7,1.7-1.1,2.5h10.8v1.8
		h-3.7c-0.6,2.4-1.8,4.4-3.4,6l6.9,2.2l-1.1,1.6l-7.6-2.4c-2.5,1.5-5.7,2.3-9.7,2.2l-0.5-1.8c0.5,0,1.1,0,1.6,0
		c1.9,0,3.5-0.2,4.6-0.5l1.9-0.7l-5.9-1.9L695.9,541.7z M702.6,530.4v-2h1.8v2h7.2l1.6,0.8c-0.1,1.2-0.5,2.6-1.1,4.2l-1.7-0.6
		l0.7-2.3c0-0.2,0-0.3-0.3-0.3h-14.6c-0.1,0-0.2,0.1-0.2,0.2v2.8h-1.8v-4.3c0-0.2,0.1-0.4,0.4-0.4H702.6z M701.2,538
		c-0.7,1.2-1.6,2.4-2.7,3.5c-0.1,0-0.1,0.1-0.1,0.1c0,0,0.1,0.1,0.1,0.1l5.6,1.8c1.6-1.3,2.7-3.2,3.4-5.5H701.2z"/>
	<path d="M693.6,556.3c1.3-1.3,2.2-2.8,2.9-4.4l1.5,0.5c-0.9,2.2-1.9,3.8-3,4.8L693.6,556.3z M695.6,561.9l-0.6,0.5l-1.3-1
		c1.5-1.4,2.7-3.1,3.4-5l1.5,0.6c-0.5,1.1-0.9,2-1.4,2.7v11.4h-1.6V561.9z M701.6,565.7l-3.5,0.4c-0.1-0.4-0.2-0.9-0.4-1.5l2-0.3
		l1.2-1.1c-1-0.8-1.9-1.5-2.9-2l0.7-1.4l1.1,0.6l1.2-1.6h-2.3v-1.5h7.1v1.5h-3l-1.9,2.4l1,0.8c0.7-0.8,1.2-1.6,1.6-2.4l1.4,0.7
		c-0.4,0.9-1.4,2.2-2.9,3.7l2.7-0.3l-0.5-1.2l1.3-0.5c0.6,1,1,2.3,1.5,3.9l-1.4,0.5l-0.3-1.1l-2,0.3v5.8h-1.6V565.7z M700.8,567
		c-0.4,1.6-0.9,2.9-1.7,4c-0.4-0.4-0.9-0.7-1.2-0.9c0.7-1,1.2-2.2,1.3-3.4L700.8,567z M703.1,555.1h1.4c0.2,0,0.3-0.1,0.3-0.3v-2.2
		h1.4v3.2c0,0.5-0.2,0.7-0.7,0.7h-6.4c-0.5,0-0.7-0.2-0.7-0.7v-3.2h1.5v2.2c0,0.2,0.1,0.3,0.2,0.3h1.4v-3.1h1.5V555.1z M705.2,569.9
		c-0.4-1.1-0.8-2-1.2-2.6l1.4-0.6l0.6,1.2l0.7,1.5L705.2,569.9z M706.1,570.4c1.2-1.1,2.3-2.7,3.1-4.8c-0.8-2.4-1.4-4.6-1.6-6.4
		l-0.7,1.6l-1.6-0.4c1.3-2.8,1.9-5.6,1.8-8.4h1.6l-0.1,2.2h4.5v1.6h-1v0.7c0,2.7-0.5,5.8-1.3,9.1c0.7,1.8,1.5,3.4,2.5,5l-1.5,0.7
		c-0.8-1.5-1.3-2.7-1.7-3.6c-0.5,1.2-1.3,2.4-2.5,3.6L706.1,570.4z M708.9,556c0,2.6,0.4,5,1,7.2c0.4-1.9,0.6-4,0.7-6.5V556H708.9z"
		/>
	<path d="M693.6,593.4c2-0.8,2.6-1.4,2.9-2.8v-3.7c0-0.2-0.1-0.3-0.2-0.3h-2v-1.8h3.6c0.3,0,0.4,0.1,0.4,0.5v4.9
		c0.1,0.4,0.3,0.8,0.7,1.3c0.3,0.5,1.3,1.5,4.2,1.5c3.3,0,7.5-0.1,10-0.2l-0.5,2l-9.9-0.1c-2.6-0.1-4.3-1-5.1-2.4
		c-0.3,0.8-1.7,2.2-3.2,2.7L693.6,593.4z M697.3,583.8c-1.4-1-2.5-1.7-3.4-2.1l0.9-1.6c1.1,0.5,2.2,1.2,3.5,2.1L697.3,583.8z
		 M698,579.8c-1.4-1.1-2.6-1.8-3.5-2.3l0.9-1.5c1.1,0.5,2.3,1.3,3.6,2.3L698,579.8z M705.3,590.4h-5.6v-1.6h5.6v-1.1h-4.9
		c-0.1,0-0.2-0.1-0.2-0.3v-7.6c0-0.1,0.1-0.2,0.2-0.2h4.9v-1.2h-5.5v-1.6h5.5v-1h1.7v1h5.4v1.6H707v1.2h4.8c0.2,0,0.3,0.1,0.3,0.2
		v7.6c0,0.2-0.1,0.3-0.3,0.3H707v1.1h5.8v1.6H707v2h-1.7V590.4z M705.3,582.8v-1.7h-3.4c-0.1,0-0.1,0-0.1,0.1v1.7H705.3z
		 M705.3,586.1v-1.7h-3.5v1.7l0.1,0.1H705.3z M707,581.1v1.7h3.3v-1.7l-0.1-0.1H707z M707,584.4v1.7h3.2l0.1-0.1v-1.7H707z"/>
	<path d="M697,609.6l-3,0.3c-0.1-0.5-0.2-1-0.4-1.6l1.2-0.1c0.6-0.6,1.2-1.3,1.8-2.2c-1-1-2-1.7-3.1-2.3l0.8-1.4l0.8,0.5
		c0.6-1,1.2-2.2,1.7-3.5l1.4,0.8c-0.4,0.9-1,2.1-1.9,3.6l1.2,1c0.9-1.4,1.5-2.7,1.9-4l1.5,0.5c-0.5,1.9-1.9,4.2-4.1,6.8l2.7-0.3
		l-0.5-1.4l1.6-0.4l1.2,4.1l-1.6,0.3l-0.3-1l-1.4,0.2v9.1H697V609.6z M693.7,617c0.4-1.7,0.7-3.7,0.8-5.8l1.6,0.3
		c-0.2,2.3-0.5,4.3-0.8,6L693.7,617z M701.1,611l0.8,5.1l-1.6,0.3l-0.8-5L701.1,611z M701.8,608.4c1.7-0.7,3.3-1.5,4.8-2.5
		c-0.8-0.8-1.5-1.7-2.3-2.8c-0.6,0.8-1.3,1.5-2.1,2.2l-1.2-1.3c1.7-1.3,2.4-2.1,3.4-4.9l1.7-0.1l-0.2,0.7h5.2l1.3,0.8
		c-0.8,2.1-1.9,3.9-3.3,5.4c1.1,0.8,2.5,1.6,4.2,2.4l-1.1,1.4c-1.6-0.8-3-1.7-4.3-2.7c-1.5,1-3.1,2-5,2.8L701.8,608.4z M704.5,617.5
		v0.9h-1.7v-7.8c0-0.2,0.1-0.3,0.3-0.3h8.7c0.3,0,0.4,0.1,0.4,0.4v7.7h-1.7v-0.9H704.5z M704.5,615.8h5.9v-3.5
		c0-0.2-0.1-0.3-0.3-0.3h-5.4c-0.2,0-0.3,0.1-0.3,0.3V615.8z M705.2,601.6c0.9,1.4,1.7,2.5,2.6,3.4c0.8-0.8,1.6-1.8,2.2-3
		c0-0.1,0-0.2,0-0.3c0-0.1,0-0.2-0.1-0.2L705.2,601.6L705.2,601.6z"/>
	<path d="M699.9,639c-0.5-0.5-1-1.2-1.5-2l-1,1.1l-0.9-0.9c-0.2,1.8-0.6,3.5-1.2,5.1l-1.7-0.8c1-2.6,1.5-5.5,1.5-8.5v-6.3
		c0-0.3,0.1-0.4,0.4-0.4h5.3v-3.4h1.8v1h7.6v1.5h-7.6v0.9h9l1.4,0.8c0,1.1-0.3,2.3-0.9,3.5l-1.6-0.5c0.3-0.8,0.6-1.8,0.6-2.2
		c0-0.1-0.1-0.1-0.2-0.1h-8.3v1.2h5.3v1.4h-5.3v0.3c0,0.4,0.3,0.9,0.9,0.9h5c0.1,0,0.5-0.1,0.5-0.4l0.1-1.2l1.4,0.3
		c-0.2,1.3-0.3,2.1-0.4,2.1c-0.4,0.4-0.8,0.6-1,0.6h-6.6c-0.9,0-1.6-0.9-1.6-1.6v-1h-3.3v-1.4h3.3v-1.2h-3.8c-0.2,0-0.3,0.1-0.3,0.3
		v4.2l-0.2,4.3c0.9-0.8,1.6-2,2.1-3.5l1.6-0.1l-0.2,0.7h3.8l1.3,0.7c-0.5,1.4-1.1,2.6-1.7,3.4l-0.9,1.2c1,0.6,2.3,1.2,6.6,1.2h4
		l-0.4,1.8h-2.9c-3.5-0.1-6-0.3-8.4-1.9c-1.3,0.9-2,1.4-3.8,2.2l-1.1-1.4c1.4-0.6,2.6-1.2,3.5-1.8L699.9,639z M699.5,635.5
		c0.4,0.7,0.8,1.4,1.4,2l0.4,0.5c0.4-0.4,1-1.2,1.6-2.2c0-0.1,0-0.2,0-0.3c0-0.1,0-0.2-0.1-0.2h-3.1L699.5,635.5z M707.6,635.4
		c-0.1,0-0.2,0.1-0.2,0.2c0,1.7-0.7,3.1-2.1,4l-1.1-1.2c1.1-0.7,1.7-1.8,1.7-3.3v-0.8l0.1-0.3l0.2-0.1h4.2l0.2,0.1l0.1,0.3v3
		l0.1,0.5c0.1,0.1,0.3,0.2,0.5,0.2l0.4-0.1c0,0,0.1-0.2,0.1-0.5l0-1.1l1.5,0.1l-0.1,1.9c-0.1,0.7-0.8,1-1.3,1h-1.1
		c-0.9,0-1.5-0.6-1.5-1.5v-2.4c0-0.1-0.1-0.2-0.3-0.2H707.6z"/>
</g>
<path fill="#1B1464" d="M547,719c0,6.6-4.9,12-11,12h-40.4c-6.1,0-10.5-5.4-10.5-12V465c0-6.6,4.5-12,10.5-12H536
	c6.1,0,11,5.4,11,12V719z"/>
<path fill="#F7931E" d="M541,716c0,6.6-4.5,12-10.5,12H490c-6.1,0-11-5.4-11-12V462c0-6.6,4.9-12,11-12h40.4c6.1,0,10.5,5.4,10.5,12
	V716z"/>
<g>
	<path d="M500.8,532.4h-3v-1.8h3v-3.2h1.9v3.2h9.5v-3.2h1.9v3.2h3.1v1.8h-3.1v13c0,0.6-0.3,0.9-0.9,0.9h-11.5
		c-0.6,0-0.9-0.3-0.9-0.9V532.4z M502.7,537.3h9.5v-4.9h-9.5V537.3z M512.2,539.1h-9.5v5c0,0.2,0.1,0.3,0.3,0.3h8.9
		c0.2,0,0.3-0.1,0.3-0.3V539.1z"/>
	<path d="M514.1,565.6v-1h-5.7v5.8h-1.8v-5.8h-5.5l-0.1,0.9h4c0.3,0,0.4,0.1,0.4,0.4v4.4h-1.6v-3.1c0-0.1-0.1-0.2-0.2-0.2h-2.8
		c-0.3,1.4-0.8,2.5-1.5,3.4l-1.6-0.9c1.2-1.4,1.9-3.9,2-7.5v-2.4h1.7v1.2h2.6c0.1,0,0.2-0.1,0.2-0.2v-1.1h1.6v2.4
		c0,0.3-0.1,0.4-0.4,0.4h-3.9l0,0.9h5.4v-4.4h-6.8v-1.5h6.8v-1h-8.8v-1.6h8.8v-1.1h-6.9v-1.5h6.9v-1.2h1.8v1.2h6.8
		c0.3,0,0.5,0.2,0.5,0.5v2.1h1.4v1.6h-1.4v2c0,0.4-0.2,0.5-0.5,0.5h-6.8v4.4h5.7v-0.9h-3.8c-0.5,0-0.7-0.3-0.7-0.7v-2.1h1.5v1
		c0,0.3,0.1,0.4,0.4,0.4h2.6v-1.5h1.8v11.2h-1.8V567h-2.6c-0.1,0-0.2,0.1-0.2,0.2v3.1h-1.6v-4.3c0-0.2,0.1-0.4,0.4-0.4H514.1z
		 M508.4,553.6v1.1h5.5v-1c0-0.1-0.1-0.1-0.2-0.1H508.4z M508.4,556.2v1h5.4c0.1,0,0.2-0.1,0.2-0.1v-0.9H508.4z"/>
	<path d="M497.6,592.4c2-0.8,2.6-1.4,2.9-2.8v-3.7c0-0.2-0.1-0.3-0.2-0.3h-2v-1.8h3.6c0.3,0,0.4,0.1,0.4,0.5v4.9
		c0.1,0.4,0.3,0.8,0.7,1.3c0.3,0.5,1.3,1.5,4.2,1.5c3.3,0,7.5-0.1,10-0.2l-0.5,2l-9.9-0.1c-2.6-0.1-4.3-1-5.1-2.4
		c-0.3,0.8-1.7,2.2-3.2,2.7L497.6,592.4z M501.3,582.8c-1.4-1-2.5-1.7-3.4-2.1l0.9-1.6c1.1,0.5,2.2,1.2,3.5,2.1L501.3,582.8z
		 M502,578.8c-1.4-1.1-2.6-1.8-3.5-2.3l0.9-1.5c1.1,0.5,2.3,1.3,3.6,2.3L502,578.8z M509.3,589.4h-5.6v-1.6h5.6v-1.1h-4.9
		c-0.1,0-0.2-0.1-0.2-0.3v-7.6c0-0.1,0.1-0.2,0.2-0.2h4.9v-1.2h-5.5v-1.6h5.5v-1h1.7v1h5.4v1.6H511v1.2h4.8c0.2,0,0.3,0.1,0.3,0.2
		v7.6c0,0.2-0.1,0.3-0.3,0.3H511v1.1h5.8v1.6H511v2h-1.7V589.4z M509.3,581.8v-1.7h-3.4c-0.1,0-0.1,0-0.1,0.1v1.7H509.3z
		 M509.3,585.1v-1.7h-3.5v1.7l0.1,0.1H509.3z M511,580.1v1.7h3.3v-1.7l-0.1-0.1H511z M511,583.4v1.7h3.2l0.1-0.1v-1.7H511z"/>
	<path d="M501,608.6l-3,0.3c-0.1-0.5-0.2-1-0.4-1.6l1.2-0.1c0.6-0.6,1.2-1.3,1.8-2.2c-1-1-2-1.7-3.1-2.3l0.8-1.4l0.8,0.5
		c0.6-1,1.2-2.2,1.7-3.5l1.4,0.8c-0.4,0.9-1,2.1-1.9,3.6l1.2,1c0.9-1.4,1.5-2.7,1.9-4l1.5,0.5c-0.5,1.9-1.9,4.2-4.1,6.8l2.7-0.3
		l-0.5-1.4l1.6-0.4l1.2,4.1l-1.6,0.3l-0.3-1l-1.4,0.2v9.1H501V608.6z M497.7,616c0.4-1.7,0.7-3.7,0.8-5.8l1.6,0.3
		c-0.2,2.3-0.5,4.3-0.8,6L497.7,616z M505.1,610l0.8,5.1l-1.6,0.3l-0.8-5L505.1,610z M505.8,607.4c1.7-0.7,3.3-1.5,4.8-2.5
		c-0.8-0.8-1.5-1.7-2.3-2.8c-0.6,0.8-1.3,1.5-2.1,2.2l-1.2-1.3c1.7-1.3,2.4-2.1,3.4-4.9l1.7-0.1l-0.2,0.7h5.2l1.3,0.8
		c-0.8,2.1-1.9,3.9-3.3,5.4c1.1,0.8,2.5,1.6,4.2,2.4l-1.1,1.4c-1.6-0.8-3-1.7-4.3-2.7c-1.5,1-3.1,2-5,2.8L505.8,607.4z M508.5,616.5
		v0.9h-1.7v-7.8c0-0.2,0.1-0.3,0.3-0.3h8.7c0.3,0,0.4,0.1,0.4,0.4v7.7h-1.7v-0.9H508.5z M508.5,614.8h5.9v-3.5
		c0-0.2-0.1-0.3-0.3-0.3h-5.4c-0.2,0-0.3,0.1-0.3,0.3V614.8z M509.2,600.6c0.9,1.4,1.7,2.5,2.6,3.4c0.8-0.8,1.6-1.8,2.2-3
		c0-0.1,0-0.2,0-0.3c0-0.1,0-0.2-0.1-0.2L509.2,600.6L509.2,600.6z"/>
	<path d="M503.9,638c-0.5-0.5-1-1.2-1.5-2l-1,1.1l-0.9-0.9c-0.2,1.8-0.6,3.5-1.2,5.1l-1.7-0.8c1-2.6,1.5-5.5,1.5-8.5v-6.3
		c0-0.3,0.1-0.4,0.4-0.4h5.3v-3.4h1.8v1h7.6v1.5h-7.6v0.9h9l1.4,0.8c0,1.1-0.3,2.3-0.9,3.5l-1.6-0.5c0.3-0.8,0.6-1.8,0.6-2.2
		c0-0.1-0.1-0.1-0.2-0.1h-8.3v1.2h5.3v1.4h-5.3v0.3c0,0.4,0.3,0.9,0.9,0.9h5c0.1,0,0.5-0.1,0.5-0.4l0.1-1.2l1.4,0.3
		c-0.2,1.3-0.3,2.1-0.4,2.1c-0.4,0.4-0.8,0.6-1,0.6h-6.6c-0.9,0-1.6-0.9-1.6-1.6v-1h-3.3v-1.4h3.3v-1.2h-3.8c-0.2,0-0.3,0.1-0.3,0.3
		v4.2l-0.2,4.3c0.9-0.8,1.6-2,2.1-3.5l1.6-0.1l-0.2,0.7h3.8l1.3,0.7c-0.5,1.4-1.1,2.6-1.7,3.4l-0.9,1.2c1,0.6,2.3,1.2,6.6,1.2h4
		l-0.4,1.8h-2.9c-3.5-0.1-6-0.3-8.4-1.9c-1.3,0.9-2,1.4-3.8,2.2l-1.1-1.4c1.4-0.6,2.6-1.2,3.5-1.8L503.9,638z M503.5,634.5
		c0.4,0.7,0.8,1.4,1.4,2l0.4,0.5c0.4-0.4,1-1.2,1.6-2.2c0-0.1,0-0.2,0-0.3c0-0.1,0-0.2-0.1-0.2h-3.1L503.5,634.5z M511.6,634.4
		c-0.1,0-0.2,0.1-0.2,0.2c0,1.7-0.7,3.1-2.1,4l-1.1-1.2c1.1-0.7,1.7-1.8,1.7-3.3v-0.8l0.1-0.3l0.2-0.1h4.2l0.2,0.1l0.1,0.3v3
		l0.1,0.5c0.1,0.1,0.3,0.2,0.5,0.2l0.4-0.1c0,0,0.1-0.2,0.1-0.5l0-1.1l1.5,0.1l-0.1,1.9c-0.1,0.7-0.8,1-1.3,1h-1.1
		c-0.9,0-1.5-0.6-1.5-1.5v-2.4c0-0.1-0.1-0.2-0.3-0.2H511.6z"/>
</g>
<line fill="#1B1464" stroke="#1B1464" stroke-width="10" stroke-miterlimit="10" x1="31" y1="425" x2="226" y2="425"/>
<line fill="#1B1464" stroke="#1B1464" stroke-width="10" stroke-miterlimit="10" x1="511" y1="428" x2="706" y2="428"/>
</svg>
